<svg xmlns="http://www.w3.org/2000/svg" viewBox="0 0 163.02 257.63"><defs><style>.cls-1{fill:#0c0c11;}.cls-2{fill:#f4c9ab;}.cls-3{fill:#e5b593;}.cls-4{fill:#0a0a0c;}.cls-5{fill:#fffffd;}.cls-6{fill:#121221;}.cls-7{fill:#1e1515;}.cls-8{fill:#050505;}.cls-9{fill:#edede6;}.cls-10{fill:#0f0a0a;}.cls-11{fill:#0d0d11;}.cls-12{fill:#ddd;}.cls-13{fill:#060607;}.cls-14{fill:#e5e5e5;}.cls-15{fill:#6d4b3c;}.cls-16{fill:#230909;}</style></defs><title>macron</title><g id="Calque_1" data-name="Calque 1"><rect class="cls-1" x="153.18" y="111.71" width="8.8" height="43.99" transform="translate(202.07 328.28) rotate(-147.43)"/><circle class="cls-2" cx="154.93" cy="108.39" r="8.08"/><path class="cls-3" d="M161.08,112.31h0a1.73,1.73,0,0,0,.07.21,0,0,0,0,1,0,0c.62,1.55,3.23,3.77,3.8,3.53s1.71-2.55,1.56-4.61h0a1.48,1.48,0,0,0,0-.21c0-.12,0-.24-.05-.35a.24.24,0,0,0,0-.08,2.52,2.52,0,0,0-.07-.26.09.09,0,0,0,0-.05h0a2.78,2.78,0,0,0-5.26,1.81Z" transform="translate(-16.33 -2.93)"/><rect class="cls-1" x="33.7" y="111.71" width="8.8" height="43.99" transform="translate(-82.32 38.61) rotate(-32.57)"/><path class="cls-4" d="M129.33,256.59c-9.14,2.72-19.63,4-30.86,4s-21.71-1.25-30.85-4c9.38-11.2,10.91-30.7,10.91-30.7H93A2,2,0,0,0,94.73,227h8.54a2,2,0,0,0,1.76-1.13H121q.7,3.6,1.55,7.22c.1.47.21.93.32,1.39.69,2.93,1.44,5.87,2.26,8.79.31,1.11.63,2.21,1,3.31s.61,2,.92,3c.45,1.44.93,2.87,1.42,4.3C128.69,254.81,129,255.7,129.33,256.59Z" transform="translate(-16.33 -2.93)"/><path class="cls-5" d="M98.47,225.89H105a2,2,0,0,1-1.76,1.13h-4.8Z" transform="translate(-16.33 -2.93)"/><path class="cls-5" d="M105,217.64H98.47v-1.12h4.8A1.94,1.94,0,0,1,105,217.64Z" transform="translate(-16.33 -2.93)"/><polygon class="cls-5" points="87.48 158.56 89.78 199.71 82.14 206.21 82.14 158.56 87.48 158.56"/><path class="cls-5" d="M163.28,214.22c0,.67,0,1.33,0,2,0,.1,0,.2,0,.3,0,.56,0,1.12-.1,1.67,0,.7-.1,1.38-.18,2.06l-.09.74c0,.34-.09.67-.14,1l-.15.93c-.21,1.24-.47,2.43-.78,3.6-.09.4-.2.79-.32,1.18,0,.13-.07.25-.1.37-.12.39-.24.77-.38,1.15,0,.14-.09.29-.14.43a5.55,5.55,0,0,1-.21.57c-.13.4-.28.79-.44,1.17s-.39,1-.61,1.42a30.89,30.89,0,0,1-1.41,2.82c-.13.25-.26.49-.41.73s-.43.73-.66,1.09l-.15.24c-.26.42-.54.83-.83,1.23-.09.14-.18.27-.28.4s-.38.53-.58.78l-.4.53c-.34.42-.68.84-1,1.24s-.66.75-1,1.12l-.11.12c-.38.4-.76.79-1.15,1.17-.69.68-1.42,1.34-2.17,2-.25.22-.5.43-.76.63l-.15.13c-.44.35-.89.7-1.36,1-.3.23-.61.45-.93.67s-.66.46-1,.68l-.72.47c-1,.64-2,1.24-3.08,1.81-.31.17-.62.34-.94.5l-.83.42-1.3.62-1.18.53-1,.43a69.49,69.49,0,0,1-6.83,2.42c-.32-.89-.64-1.78-.94-2.68-.49-1.43-1-2.86-1.42-4.3-.31-1-.62-2-.92-3s-.65-2.2-1-3.31c-.82-2.92-1.57-5.86-2.26-8.79-.11-.46-.22-.92-.32-1.39q-.84-3.61-1.55-7.22c-.3-1.51-.59-3-.85-4.51-.2-1.11-.39-2.21-.58-3.31,0-.15-.05-.29-.07-.43-.11-.65-.21-1.29-.32-1.93-.2-1.31-.4-2.61-.58-3.9-.06-.35-.11-.71-.16-1.06v0c-.32-2.22-.6-4.4-.86-6.55q-.11-.78-.18-1.56c-.09-.7-.16-1.39-.23-2.07-.06-.5-.11-1-.16-1.51-.15-1.4-.29-2.78-.41-4.14-.11-1.1-.2-2.18-.29-3.25l-.06-.76c-.05-.74-.11-1.47-.16-2.19s-.11-1.44-.15-2.14-.09-1.4-.14-2.09c-.08-1.38-.15-2.72-.22-4s-.12-2.49-.16-3.68v-.1q-.06-1.38-.09-2.67c-.17-5.58-.17-10.12-.14-13.26,0-.5,0-1,0-1.4s0-.67,0-1,0-.27,0-.39,0-.35,0-.51,0-.49,0-.68l0-.89,34.11-9.71,1.31.54.3.12.67,1.39c.63,1.35,1.24,2.73,1.82,4.16.51,1.23,1,2.5,1.49,3.8,0,0,0,0,0,0a126.7,126.7,0,0,1,6.65,28.6h0c.19,1.44.35,2.92.5,4.43l.15,1.53a0,0,0,0,0,0,0q.16,1.75.3,3.57c.09,1.22.17,2.47.25,3.74,0,0,0,.11,0,.16.06.86.1,1.72.14,2.6V201c.05.91.09,1.82.12,2.75q.11,2.85.15,5.85c0,.5,0,1,0,1.51s0,1,0,1.54S163.28,213.7,163.28,214.22Z" transform="translate(-16.33 -2.93)"/><path class="cls-6" d="M163.28,214.22c0,.67,0,1.33,0,2,0,.1,0,.2,0,.3,0,.56,0,1.12-.1,1.67,0,.7-.1,1.38-.18,2.06l-.09.74c0,.34-.09.67-.14,1l-.15.93c-.21,1.24-.47,2.43-.78,3.6-.09.4-.2.79-.32,1.18,0,.13-.07.25-.1.37-.12.39-.24.77-.38,1.15,0,.14-.09.29-.14.43a5.55,5.55,0,0,1-.21.57c-.13.4-.28.79-.44,1.17s-.39,1-.61,1.42a30.89,30.89,0,0,1-1.41,2.82c-.13.25-.26.49-.41.73s-.43.73-.66,1.09l-.15.24c-.26.42-.54.83-.83,1.23-.09.14-.18.27-.28.4s-.38.53-.58.78l-.4.53c-.34.42-.68.84-1,1.24s-.66.75-1,1.12l-.11.12c-.38.4-.76.79-1.15,1.17-.69.68-1.42,1.34-2.17,2-.25.22-.5.43-.76.63l-.15.13c-.44.35-.89.7-1.36,1-.3.23-.61.45-.93.67s-.66.46-1,.68l-.72.47c-1,.64-2,1.24-3.08,1.81-.31.17-.62.34-.94.5l-.83.42-1.3.62-1.18.53-1,.43a69.49,69.49,0,0,1-6.83,2.42c-.32-.89-.64-1.78-.94-2.68-.49-1.43-1-2.86-1.42-4.3-.31-1-.62-2-.92-3s-.65-2.2-1-3.31c-.82-2.92-1.57-5.86-2.26-8.79-.11-.46-.22-.92-.32-1.39q-.84-3.61-1.55-7.22c-.3-1.51-.59-3-.85-4.51-.2-1.11-.39-2.21-.58-3.31,0-.15-.05-.29-.07-.43-.11-.65-.21-1.29-.32-1.93-.2-1.31-.4-2.61-.58-3.9-.06-.35-.11-.71-.16-1.06v0c-.32-2.22-.6-4.4-.86-6.55-.07-.52-.12-1-.18-1.56-.09-.7-.16-1.39-.23-2.07-.06-.5-.11-1-.16-1.51-.15-1.4-.29-2.78-.41-4.14-.11-1.1-.2-2.19-.29-3.25l-.06-.76c-.05-.74-.11-1.47-.16-2.19s-.11-1.44-.15-2.14-.09-1.4-.14-2.09c-.08-1.38-.15-2.72-.22-4s-.11-2.49-.16-3.68v-.1c0-.91-.06-1.81-.09-2.67-.17-5.58-.17-10.12-.14-13.26,0-.5,0-1,0-1.4s0-.67,0-1,0-.27,0-.39,0-.35,0-.51,0-.49,0-.68l0-.89,35.08-9h.09c7,14.24,12.47,32.82,12.81,64.27,0,.51,0,1,0,1.54S163.28,213.7,163.28,214.22Z" transform="translate(-16.33 -2.93)"/><path class="cls-5" d="M118.56,211.81c-.06-.35-.11-.71-.16-1.06v0c-.32-2.22-.6-4.4-.86-6.55q-.11-.78-.18-1.56c-.09-.7-.16-1.39-.23-2.07-.06-.51-.12-1-.16-1.51-.15-1.4-.29-2.78-.41-4.14-.11-1.1-.2-2.18-.29-3.25l-.06-.76c-.06-.74-.11-1.47-.16-2.19s-.11-1.44-.15-2.14-.1-1.4-.14-2.09c-.08-1.38-.15-2.72-.22-4s-.12-2.49-.16-3.68v-.1q-.06-1.38-.09-2.67c-.17-5.58-.17-10.12-.14-13.26,0-.5,0-1,0-1.4s0-.67,0-1,0-.27,0-.39,0-.35,0-.51,0-.49,0-.68l0-.89,34.11-9.71-50.92-21-45.95,8.49L46.89,146l34.78,9.9s.24,5.18.09,13.7c0,.63,0,1.29,0,2,0,1,0,2.07-.08,3.16,0,.46,0,.93,0,1.41-.11,2.83-.25,5.9-.46,9.16q-.06,1.08-.15,2.19c0,.46-.06.92-.1,1.38s0,.75-.08,1.12c0,.68-.1,1.37-.16,2.06-.49,5.84-1.16,12.13-2.09,18.68v0c0,.35-.1.71-.16,1.06-.13,1-.28,1.93-.43,2.9s-.31,1.95-.47,2.93H93a1.94,1.94,0,0,1,1.76-1.12h8.54a1.94,1.94,0,0,1,1.76,1.12h14.43c-.11-.65-.21-1.29-.32-1.93C118.94,214.4,118.74,213.1,118.56,211.81Zm-20.09-2.67-7.34-6.5,2.65-41.15h10l2.3,41.15Z" transform="translate(-16.33 -2.93)"/><polygon class="cls-5" points="30.56 143.08 65.34 152.98 30.17 143.93 30.56 143.08"/><polygon class="cls-5" points="82.14 158.56 82.14 206.21 74.8 199.71 77.45 158.56 82.14 158.56"/><path class="cls-5" d="M94.73,216.52h3.74v1.12H93A1.94,1.94,0,0,1,94.73,216.52Z" transform="translate(-16.33 -2.93)"/><path class="cls-5" d="M98.47,225.89V227H94.73A2,2,0,0,1,93,225.89Z" transform="translate(-16.33 -2.93)"/><path class="cls-7" d="M81.76,169.61c0,.63,0,1.29,0,2,0,1,0,2.07-.08,3.16,0,.46,0,.93,0,1.41-.11,2.83-.25,5.9-.46,9.16L81,187.49c0,.46-.06.91-.1,1.38s0,.75-.08,1.12c0,.68-.11,1.36-.16,2.06-.49,5.84-1.16,12.13-2.09,18.68l0-.07-7.28-36.27L76.88,160,46.5,146.86l35.17,9S81.91,161.09,81.76,169.61Z" transform="translate(-16.33 -2.93)"/><path class="cls-6" d="M81.76,169.61c0,.63,0,1.29,0,2,0,1,0,2.07-.08,3.16,0,.46,0,.93,0,1.41-.11,2.83-.25,5.9-.46,9.16L81,187.49c0,.46-.06.91-.1,1.38s0,.75-.08,1.12c0,.68-.11,1.36-.16,2.06-.49,5.84-1.16,12.13-2.09,18.68l0-.07-7.28-36.27L76.88,160,46.5,146.86l.39-.85,34.92,9.64S81.91,161.09,81.76,169.61Z" transform="translate(-16.33 -2.93)"/><polygon class="cls-8" points="53.92 171.46 59.55 157.05 30.17 143.93 60.55 157.05 54.92 171.46 62.2 207.73 53.92 171.46"/><path class="cls-1" d="M78.55,210.73v0c0,.35-.1.71-.16,1.06-.13,1-.28,1.93-.43,2.9l-.48,2.93c-.08.5-.16,1-.25,1.51-.34,2-.72,4-1.11,6.08,0,.22-.09.44-.14.66l-.09.49c-.09.45-.19.91-.28,1.36-.2,1-.4,1.93-.62,2.89s-.36,1.65-.55,2.48c0,.14-.07.28-.1.42-.22,1-.45,1.94-.69,2.9,0,0,0,0,0,.06q-.35,1.43-.72,2.85c-.24.92-.48,1.83-.73,2.75-.3,1.08-.6,2.17-.92,3.25-.24.84-.49,1.67-.75,2.5-.61,2-1.27,4.06-2,6.07-.31.9-.62,1.79-.94,2.68-20.33-6.05-34-19.37-34-42.37,0-33.33,5.66-52.66,12.83-67.36L75.88,160l-5.63,14.41,8.28,36.27Z" transform="translate(-16.33 -2.93)"/><path class="cls-7" d="M150.38,146.88l-.22.1h0l-30.08,13,5.63,14.41-7.27,36.27,0,.07c-.32-2.22-.6-4.4-.86-6.55q-.11-.78-.18-1.56c-.09-.7-.16-1.39-.23-2.07-.06-.5-.11-1-.16-1.51-.15-1.4-.29-2.78-.41-4.14-.11-1.1-.2-2.18-.29-3.25l-.06-.76c-.05-.74-.11-1.47-.16-2.19s-.11-1.44-.15-2.14-.09-1.4-.14-2.09c-.08-1.38-.15-2.72-.22-4s-.12-2.49-.16-3.68v-.1q-.06-1.38-.09-2.67c-.17-5.58-.17-10.12-.14-13.26,0-.5,0-1,0-1.4s0-.67,0-1,0-.27,0-.39,0-.35,0-.51,0-.49,0-.68l0-.89,35.08-9Z" transform="translate(-16.33 -2.93)"/><polygon class="cls-7" points="134.09 143.94 134.05 143.95 134.07 143.94 134.09 143.94"/><path class="cls-6" d="M150.9,146.65l-.2.09-.3.13h0L120.06,160l5.63,14.41-7.27,36.27,0,.07c-.32-2.22-.6-4.4-.86-6.55q-.11-.78-.18-1.56c-.09-.7-.16-1.39-.23-2.07-.06-.5-.11-1-.16-1.51-.15-1.4-.29-2.78-.41-4.14-.11-1.1-.2-2.18-.29-3.25l-.06-.76c-.05-.74-.11-1.47-.16-2.19s-.11-1.44-.15-2.14-.09-1.4-.14-2.09c-.08-1.38-.15-2.72-.22-4s-.12-2.49-.16-3.68v-.1q-.06-1.38-.09-2.67c-.17-5.58-.17-10.12-.14-13.26,0-.5,0-1,0-1.4s0-.67,0-1,0-.27,0-.39,0-.35,0-.51,0-.49,0-.68c0-.59.06-1.1.06-1.1l34.08-9.5,1-.3Z" transform="translate(-16.33 -2.93)"/><polygon class="cls-8" points="104.73 157.05 110.36 171.46 102.09 207.73 109.36 171.46 103.73 157.05 133.81 144.06 104.73 157.05"/><path class="cls-1" d="M163.28,214.22c0,.67,0,1.33,0,2,0,.1,0,.2,0,.3,0,.56,0,1.12-.1,1.67,0,.7-.1,1.38-.18,2.06l-.09.74c0,.34-.09.67-.14,1l-.15.93c-.21,1.24-.47,2.43-.78,3.6-.09.4-.2.79-.32,1.18,0,.13-.07.25-.1.37-.12.39-.24.77-.38,1.15,0,.14-.09.29-.14.43a5.55,5.55,0,0,1-.21.57c-.13.4-.28.79-.44,1.17s-.39,1-.61,1.42a30.89,30.89,0,0,1-1.41,2.82c-.13.25-.26.49-.41.73s-.43.73-.66,1.09l-.15.24c-.26.42-.54.83-.83,1.23-.09.14-.18.27-.28.4s-.38.53-.58.78l-.4.53c-.34.42-.68.84-1,1.24s-.66.75-1,1.12l-.11.12c-.38.4-.76.79-1.15,1.17-.69.68-1.42,1.34-2.17,2-.25.22-.5.43-.76.63l-.15.13c-.44.35-.89.7-1.36,1-.3.23-.61.45-.93.67s-.66.46-1,.68l-.72.47c-1,.64-2,1.24-3.08,1.81-.31.17-.62.34-.94.5l-.83.42-1.3.62-1.18.53-1,.43a69.49,69.49,0,0,1-6.83,2.42c-.32-.89-.64-1.78-.94-2.68-.49-1.43-1-2.86-1.42-4.3-.31-1-.62-2-.92-3s-.65-2.2-1-3.31c-.82-2.92-1.57-5.86-2.26-8.79-.11-.46-.22-.92-.32-1.39q-.84-3.61-1.55-7.22c-.3-1.51-.59-3-.85-4.51-.2-1.11-.39-2.21-.58-3.31,0-.15-.05-.29-.07-.43-.11-.65-.21-1.29-.32-1.93-.2-1.31-.4-2.61-.58-3.9-.06-.35-.11-.71-.16-1.06v0l0-.07,8.27-36.27L121.06,160l29.08-13h0l.2-.1h.09l.25-.12.2-.09.1.21.67,1.39c.62,1.34,1.23,2.73,1.82,4.16.51,1.23,1,2.49,1.49,3.8,0,0,0,0,0,0a129,129,0,0,1,6.65,28.6h0c.18,1.44.35,2.92.5,4.43l.15,1.53a0,0,0,0,0,0,0c.1,1.17.21,2.36.3,3.57s.17,2.47.25,3.74c0,0,0,.11,0,.16,0,.86.1,1.72.14,2.6V201c.05.9.08,1.82.12,2.75q.11,2.85.15,5.85c0,.5,0,1,0,1.51s0,1,0,1.54S163.28,213.7,163.28,214.22Z" transform="translate(-16.33 -2.93)"/><polyline class="cls-9" points="36.19 130.78 30.56 143.08 81.17 157.05 82.17 151.56"/><polyline class="cls-9" points="128.65 130.78 134.12 142.97 83.67 157.05 82.67 151.56"/><polygon class="cls-7" points="89.78 199.71 82.14 206.21 74.8 199.71 77.45 158.56 87.48 158.56 89.78 199.71"/><polyline class="cls-10" points="78.86 151.41 74.8 155.41 82.17 165.71 89.78 155.48 84.56 151.41 78.86 151.41"/><path class="cls-11" d="M121,225.89H76c0-.22.08-.44.13-.66.39-2,.77-4.06,1.11-6.08.09-.5.17-1,.26-1.51h42c0,.14,0,.28.07.43.18,1.1.38,2.2.58,3.31C120.37,222.88,120.66,224.38,121,225.89Z" transform="translate(-16.33 -2.93)"/><path class="cls-12" d="M105.21,218.45v6.63a2,2,0,0,1-.18.81,2,2,0,0,1-1.76,1.13H94.73A2,2,0,0,1,93,225.89a2,2,0,0,1-.18-.81v-6.63a2,2,0,0,1,.18-.81,1.94,1.94,0,0,1,1.76-1.12h8.54a1.94,1.94,0,0,1,1.76,1.12A2,2,0,0,1,105.21,218.45Z" transform="translate(-16.33 -2.93)"/><rect class="cls-13" x="77.88" y="215.17" width="8.68" height="7.23" rx="1.54" ry="1.54"/><rect class="cls-12" x="82.06" y="218.27" width="6.23" height="0.84" rx="0.42" ry="0.42"/><path d="M78.53,225.89s-1.53,19.5-10.91,30.7c.32-.89.64-1.78.94-2.68.69-2,1.35-4,2-6.07.26-.83.51-1.66.75-2.5.32-1.08.62-2.17.92-3.25.25-.92.49-1.83.73-2.75s.49-1.9.72-2.85c0,0,0,0,0-.06.24-1,.47-1.93.69-2.9,0-.14.07-.28.1-.42.19-.83.37-1.65.55-2.48s.42-1.92.62-2.89c.09-.45.19-.91.28-1.36,0-.16.06-.32.1-.49Z" transform="translate(-16.33 -2.93)"/><path d="M118.42,225.89s1.53,19.5,10.91,30.7c-.32-.89-.64-1.78-.94-2.68-.69-2-1.35-4-2-6.07-.26-.83-.51-1.66-.75-2.5-.32-1.08-.62-2.17-.92-3.25-.25-.92-.49-1.83-.73-2.75s-.49-1.9-.72-2.85c0,0,0,0,0-.06-.24-1-.47-1.93-.69-2.9,0-.14-.07-.28-.1-.42-.19-.83-.37-1.65-.55-2.48s-.42-1.92-.62-2.89c-.09-.45-.19-.91-.28-1.36,0-.16-.06-.32-.1-.49Z" transform="translate(-16.33 -2.93)"/><polygon class="cls-14" points="65.48 152.72 74.9 155.32 74.8 155.41 77.42 159.07 74.8 199.71 82.14 206.21 73.25 200.13 76.8 159.04 74.55 155.67 65.48 152.72"/><circle class="cls-2" cx="8.08" cy="108.39" r="8.08"/><path class="cls-3" d="M34.59,112.31h0a1.73,1.73,0,0,1-.07.21,0,0,0,0,0,0,0c-.62,1.55-3.23,3.77-3.8,3.53s-1.71-2.55-1.56-4.61h0a1.48,1.48,0,0,1,0-.21c0-.12,0-.24.05-.35a.24.24,0,0,1,0-.08,2.52,2.52,0,0,1,.07-.26.09.09,0,0,1,0-.05h0a2.78,2.78,0,0,1,5.26,1.81Z" transform="translate(-16.33 -2.93)"/></g><g id="Calque_2" data-name="Calque 2"><path class="cls-2" d="M166.34,73.59c0,.58,0,1.17,0,1.75a76.11,76.11,0,0,1-.5,7.73,123,123,0,0,1-5.44,24.37c-3.78,11.57-8.59,21.18-12,24.81-6.48,6.8-27.84,22.24-49.83,22.24-22.32,0-45.93-19-50.34-25.58-2.16-3.24-6.34-11.76-10.06-21.79a129.43,129.43,0,0,1-6.69-24,55.39,55.39,0,0,1-.73-7.73c0-.58,0-1.17,0-1.75a67.84,67.84,0,1,1,135.68,0Z" transform="translate(-16.33 -2.93)"/><path class="cls-3" d="M160.38,107.44a123,123,0,0,0,5.44-24.37,9,9,0,0,1,2.18.19C174.2,84.56,175.52,92.6,160.38,107.44Z" transform="translate(-16.33 -2.93)"/><path class="cls-3" d="M38.1,107.12C22.36,91,22.34,84.84,29.26,83.26a8.65,8.65,0,0,1,2.15-.19A129.43,129.43,0,0,0,38.1,107.12Z" transform="translate(-16.33 -2.93)"/><path class="cls-15" d="M168,83.26a9,9,0,0,0-2.18-.19h0l-6.48-3.89S164.62,45.53,145,26.6c-17-16.33-15.24-.5-46.49-2.13C79.33,23.47,77.67.56,53,25.61,25.66,53.38,38.21,79.18,38.21,79.18l-6.8,3.89a8.65,8.65,0,0,0-2.15.19C25.33,36.22,58.33,2.93,98.5,2.93S168,30.3,168,83.26Z" transform="translate(-16.33 -2.93)"/><path class="cls-16" d="M70.33,98.35S72.67,103,98.5,103,128,98.35,128,98.35s-8.87,2.79-29.5,2.79S70.33,98.35,70.33,98.35Z" transform="translate(-16.33 -2.93)"/><circle cx="48.48" cy="77.52" r="2.81"/><circle cx="116.23" cy="77.52" r="2.81"/><path class="cls-3" d="M97.5,81.89c-4.92,5.92-5,8.88,0,8.88C92.5,89.47,97.5,81.89,97.5,81.89Z" transform="translate(-16.33 -2.93)"/><polygon class="cls-3" points="78.06 115.96 79.67 122.29 78.86 115.96 78.06 115.96"/><polygon class="cls-3" points="85.36 115.96 83.75 122.29 84.56 115.96 85.36 115.96"/></g></svg>