<svg id="Calque_1" data-name="Calque 1" xmlns="http://www.w3.org/2000/svg" viewBox="0 0 159.35 143.4"><defs><style>.cls-1{fill:#9e716f;}.cls-2,.cls-6{fill:#8d5c5b;}.cls-3{fill:#705252;}.cls-4{fill:#997373;}.cls-5{fill:#020102;}.cls-6{stroke:#8d5c5b;stroke-miterlimit:10;}</style></defs><title>bureau</title><polygon class="cls-1" points="4 54.67 155 143.4 155 54.67 4 54.67"/><polygon class="cls-2" points="4 143.4 155 143.4 4 54.67 4 143.4"/><polygon class="cls-3" points="0 43.5 0 50.64 159.34 50.64 159.34 43.5 141.5 43.5 141.5 41.12 101.57 41.12 101.57 43.73 58.39 43.5 58.39 41.12 17.43 41.12 17.23 43.73 0 43.5"/><path class="cls-4" d="M149.36,14.25s-5.8,19.68-.74,32.44h-3s.12-22.35,2.38-34.26" transform="translate(-109.63 -4.3)"/><path class="cls-4" d="M227.85,14s5.8,19.68.74,32.44h3s-.12-22.35-2.38-34.26" transform="translate(-109.63 -4.3)"/><path class="cls-5" d="M153.54,4.67a4.79,4.79,0,0,1,2.82,3.28,4,4,0,0,1-.74,3.63l-4.29,5a2.67,2.67,0,0,1-2.77,1A4.48,4.48,0,0,1,145.8,15a4,4,0,0,1,.47-4.13l4.22-5.24A2.68,2.68,0,0,1,153.54,4.67Z" transform="translate(-109.63 -4.3)"/><path class="cls-5" d="M224.12,4.37A4.55,4.55,0,0,0,221,7.25a4,4,0,0,0,.38,3.71l3.77,5.57a2.77,2.77,0,0,0,2.66,1.33,4.25,4.25,0,0,0,3-2.18,4.06,4.06,0,0,0-.07-4.17l-3.68-5.77A2.77,2.77,0,0,0,224.12,4.37Z" transform="translate(-109.63 -4.3)"/><rect class="cls-6" x="4" y="50.18" width="151" height="4.49"/></svg>