<svg id="Calque_1" data-name="Calque 1" xmlns="http://www.w3.org/2000/svg" viewBox="0 0 163.01 259.4">
  <defs>
    <style>
      .cls-1 {
        fill: #e5b593;
      }

      .cls-2 {
        fill: #111;
      }

      .cls-3 {
        fill: #f4c9ab;
      }

      .cls-4 {
        fill: #e86f3a;
      }

      .cls-5 {
        fill: #fffffd;
      }

      .cls-6 {
        fill: #efbf9e;
      }

      .cls-7 {
        fill: #1e1515;
      }

      .cls-8 {
        fill: #edede6;
      }

      .cls-9 {
        fill: #0f0f0f;
      }

      .cls-10 {
        fill: #fa2;
      }

      .cls-11 {
        fill: #060607;
      }

      .cls-12 {
        fill: #a5411e;
      }

      .cls-13 {
        fill: #fcd170;
      }

      .cls-14 {
        fill: none;
        stroke: #1e1515;
        stroke-miterlimit: 10;
      }

      .cls-15 {
        fill: #232323;
      }

      .cls-16 {
        fill: #020202;
      }

      .cls-17 {
        fill: #230909;
      }

      .cls-18 {
        fill: #ffedca;
      }
    </style>
  </defs>
  <title>lepen</title>
  <path class="cls-1" d="M38.13,111.17a40.08,40.08,0,0,1-5.55-5c-6.1-6.41-12.31-16-2.65-17A14,14,0,0,1,32.08,89c.12.7.27,1.38.44,2C34.27,98,38.13,102.68,38.13,111.17Z" transform="translate(-17 -7.51)"/>
  <path class="cls-1" d="M166.22,106.21A29.47,29.47,0,0,1,162,110.3h0c-5.27-8.3,3.48-13,4.47-21.31h0c.78,0,1.47.19,2.17.19C177.62,89.19,171.84,99.7,166.22,106.21Z" transform="translate(-17 -7.51)"/>
  <path class="cls-2" d="M173.79,123.47,153,156c-.26-.6-.53-1.18-.8-1.76l-.67-1.39-.3-.12-1.29-.53-2,.56-4,1.14,0,0,2.1-3.29,2.63-4.11,17.69-27.7Z" transform="translate(-17 -7.51)"/>
  <circle class="cls-3" cx="154.93" cy="109.74" r="8.08"/>
  <path class="cls-1" d="M161.75,118.24h0a1.73,1.73,0,0,0,.07.21h0c.62,1.55,3.23,3.77,3.8,3.53s1.71-2.55,1.56-4.61h0a1.48,1.48,0,0,0,0-.21.83.83,0,0,0-.05-.35.24.24,0,0,0,0-.08,2.52,2.52,0,0,0-.07-.26.09.09,0,0,0,0-.05h0a2.78,2.78,0,1,0-5.26,1.81Z" transform="translate(-17 -7.51)"/>
  <rect class="cls-2" x="34.36" y="117.64" width="8.8" height="43.99" transform="matrix(0.84, -0.54, 0.54, 0.84, -86.07, 35.32)"/>
  <path class="cls-2" d="M105.61,266.37c-2.13.1-4.28.15-6.47.15-11.23,0-21.71-1.25-30.85-4,9.38-11.2,10.91-30.7,10.91-30.7H93.67a2,2,0,0,0,.3.45l.14.14.08.07a.16.16,0,0,0,.08.06.41.41,0,0,0,.11.07l0,0a1.12,1.12,0,0,0,.37.17l.08,0h0l.2,0,.27,0h3.89v0C100.19,259.08,104.74,265.4,105.61,266.37Z" transform="translate(-17 -7.51)"/>
  <path class="cls-4" d="M104.16,232.92a.91.91,0,0,1-.23,0,.83.83,0,0,0,.22,0S104.16,232.92,104.16,232.92Z" transform="translate(-17 -7.51)"/>
  <path class="cls-5" d="M99.29,232.93v0H99.1v0l0-1.11h.11C99.27,232.19,99.28,232.56,99.29,232.93Z" transform="translate(-17 -7.51)"/>
  <path class="cls-5" d="M99.15,222.45h0c0,.37,0,.74,0,1.11v-1.12Z" transform="translate(-17 -7.51)"/>
  <polygon class="cls-5" points="132.99 144.64 130.97 145.2 132.97 144.63 132.99 144.64"/>
  <path class="cls-6" d="M105.59,223.34a1,1,0,0,1,.13.23h0A1.09,1.09,0,0,0,105.59,223.34Zm40.47-72.8-6.33-2.61-6.5-2.68L99,131.13l-46,8.49-.21.47-5.28,11.84,1.16.33h0l33.6,9.56s.23,5.18.08,13.7v2c0,1,0,2.07-.08,3.16v1.41c-.11,2.83-.25,5.9-.46,9.16,0,.72-.08,1.45-.15,2.19,0,.46-.06.92-.1,1.38a9,9,0,0,1-.08,1.12c0,.68-.1,1.37-.16,2.06-.49,5.84-1.16,12.13-2.09,18.68a6.47,6.47,0,0,1-.16,1.06c-.13,1-.28,1.93-.43,2.9s-.31,1.94-.47,2.92H93.68l.06-.12a.39.39,0,0,1,.06-.11.87.87,0,0,1,.17-.22,1.14,1.14,0,0,1,.19-.19l0,0,0,0,0,0,.21-.13a1.5,1.5,0,0,1,.22-.11l.08,0,.17,0,.07,0h.11l.28,0h3.72c.16-36.48,8.39-50.15,13.2-59.8h0l31-8.65.61-.17.13,0,5.83-1.66Z" transform="translate(-17 -7.51)"/>
  <path class="cls-5" d="M95.4,222.45h3.74v1.12H93.67A1.94,1.94,0,0,1,95.4,222.45Z" transform="translate(-17 -7.51)"/>
  <path class="cls-5" d="M99.14,231.82v1.11H95.4a2,2,0,0,1-1.73-1.11Z" transform="translate(-17 -7.51)"/>
  <polygon class="cls-7" points="134.09 145.29 134.05 145.3 134.07 145.29 134.09 145.29"/>
  <polygon class="cls-8" points="134.12 144.32 132.99 144.64 130.97 145.2 127.09 146.28 126.97 146.32 126.36 146.49 95.36 155.14 95.36 155.14 82.42 205.29 82.25 180.5 82.44 179.84 88.91 155.76 105.89 144.56 116.23 137.74 128.65 132.13 129.54 134.13 131.69 138.92 134.12 144.32"/>
  <polygon class="cls-8" points="82.67 180.76 82.42 205.29 69.33 155.25 69.31 155.25 38.33 146.6 37.72 146.43 37.59 146.39 33.7 145.31 33.22 145.17 33.2 145.17 31.7 144.75 30.57 144.43 32.98 139.03 35.13 134.24 36.03 132.24 48.45 137.85 60.17 144.95 60.19 144.95 75.69 154.33 82.44 179.84 82.44 179.85 82.67 180.76"/>
  <path class="cls-9" d="M99.25,231.82H76.67a3.08,3.08,0,0,1,.13-.66c.38-2,.76-4.06,1.11-6.08.08-.5.16-1,.26-1.51h21V224c0,1.11,0,2.2,0,3.25h0c0,.18,0,.37,0,.55h0c0,1.17,0,2.31.07,3.41C99.25,231.45,99.25,231.64,99.25,231.82Z" transform="translate(-17 -7.51)"/>
  <path class="cls-10" d="M99.29,232.93v0H95.4a1.51,1.51,0,0,1-.47-.09h0l-.08,0-.19-.08-.18-.09a.57.57,0,0,1-.16-.11.16.16,0,0,1-.08-.06l-.08-.07-.14-.14a1.87,1.87,0,0,1-.48-1.26v-6.63a1.84,1.84,0,0,1,.18-.8h0a.75.75,0,0,1,.07-.12.39.39,0,0,1,.06-.11.87.87,0,0,1,.17-.22,1.14,1.14,0,0,1,.19-.19h0l0,0,0,0,0,0,.21-.13.1-.07.12,0,.08,0,.17,0,.11,0h.07l.11,0h3.89c0,.37,0,.74,0,1.11V224c0,1.11,0,2.2,0,3.25h0c0,.18,0,.37,0,.55h0c0,1.17,0,2.31.07,3.41,0,.19,0,.38,0,.56C99.27,232.19,99.28,232.56,99.29,232.93Z" transform="translate(-17 -7.51)"/>
  <path class="cls-10" d="M104.15,232.92s0,0,0,0a.91.91,0,0,1-.23,0A.83.83,0,0,0,104.15,232.92Z" transform="translate(-17 -7.51)"/>
  <path class="cls-10" d="M105.69,231.82a1.13,1.13,0,0,1-.15.23l.13-.23Z" transform="translate(-17 -7.51)"/>
  <path class="cls-10" d="M105.73,223.57h0a1,1,0,0,0-.13-.23A1.09,1.09,0,0,1,105.73,223.57Z" transform="translate(-17 -7.51)"/>
  <path class="cls-11" d="M99.24,231.26H96.42a1.53,1.53,0,0,1-1.54-1.54v-4.15A1.53,1.53,0,0,1,96.42,224h2.72c0,1.11,0,2.2,0,3.25h0c0,.18,0,.37,0,.55h0C99.19,229,99.21,230.16,99.24,231.26Z" transform="translate(-17 -7.51)"/>
  <path class="cls-10" d="M99.17,227.84a.41.41,0,0,1-.11-.28.41.41,0,0,1,.1-.27C99.16,227.47,99.17,227.66,99.17,227.84Z" transform="translate(-17 -7.51)"/>
  <path class="cls-12" d="M79.2,231.82s-1.53,19.5-10.91,30.7c.32-.89.64-1.78.94-2.68.69-2,1.35-4,2-6.07.26-.83.51-1.66.75-2.5.32-1.08.62-2.17.92-3.25.25-.92.49-1.83.73-2.75s.49-1.9.72-2.85v-.06c.24-1,.47-1.93.69-2.9a2.13,2.13,0,0,1,.1-.42c.19-.83.37-1.65.55-2.48s.42-1.92.62-2.89c.09-.45.19-.91.28-1.36a2.25,2.25,0,0,1,.1-.49Z" transform="translate(-17 -7.51)"/>
  <circle class="cls-3" cx="8.08" cy="109.74" r="8.08"/>
  <path class="cls-1" d="M35.26,118.24h0a1.73,1.73,0,0,1-.07.21h0c-.62,1.55-3.23,3.77-3.8,3.53s-1.71-2.55-1.56-4.61h0a1.48,1.48,0,0,1,0-.21.83.83,0,0,1,0-.35.24.24,0,0,1,0-.08,2.52,2.52,0,0,1,.07-.26.09.09,0,0,1,0-.05h0a2.78,2.78,0,0,1,5.26,1.81Z" transform="translate(-17 -7.51)"/>
  <path class="cls-3" d="M167.09,79.52v0l-.09,0v1.75a74.12,74.12,0,0,1-.5,7.73A123.13,123.13,0,0,1,162,110.3c-.31,1-.64,2-1,3.07A104.8,104.8,0,0,1,157.18,124h0c-1.72,3.82-3.79,7.14-8.11,14.19-7.44,12.14-27.83,22.24-49.83,22.24-22.32,0-45.36-16.07-50.34-25.58-1.67-3.19-2.93-5.56-4-7.68a114.87,114.87,0,0,1-6-14.11c-.24-.62-.48-1.25-.7-1.88A129.08,129.08,0,0,1,32.52,91c-.14-.66-.26-1.32-.38-2a57.27,57.27,0,0,1-.73-7.73V79.57a67.84,67.84,0,1,1,135.68,0Z" transform="translate(-17 -7.51)"/>
  <circle cx="48.48" cy="79.87" r="2.81"/>
  <circle cx="116.23" cy="79.87" r="2.81"/>
  <path class="cls-1" d="M96.67,87.39c-6.17,10.5-3.5,13.11,1.5,13.11C89.5,99.57,96.67,87.39,96.67,87.39Z" transform="translate(-17 -7.51)"/>
  <polygon class="cls-1" points="78.06 113.31 79.67 119.65 78.86 113.31 78.06 113.31"/>
  <polygon class="cls-1" points="85.36 113.31 83.75 119.65 84.56 113.31 85.36 113.31"/>
  <path class="cls-13" d="M28.75,89.37c-8-44.23,28.73-107.18,99.48-71.18,34.75-3,45.6,31.29,40.44,71L166.5,89s.69-62.36-38.27-62.86C98.23,15.64,35.79,29.7,32.14,89,32.08,89,28.75,89.37,28.75,89.37Z" transform="translate(-17 -7.51)"/>
  <path class="cls-13" d="M44.88,127.16l-15.07-1.83s4.13-1.42,2.77-19.12a40.08,40.08,0,0,0,5.55,5c.22.63.46,1.26.7,1.88A114.87,114.87,0,0,0,44.88,127.16Z" transform="translate(-17 -7.51)"/>
  <path class="cls-13" d="M169.88,124h-12.7a104.8,104.8,0,0,0,3.88-10.61c.34-1,.67-2,1-3.07a29.47,29.47,0,0,0,4.18-4.09A34.07,34.07,0,0,0,169.88,124Z" transform="translate(-17 -7.51)"/>
  <path class="cls-14" d="M105.75,266.52a1.11,1.11,0,0,1-.14-.15" transform="translate(-17 -7.51)"/>
  <line class="cls-14" x1="95.36" y1="155.14" x2="95.36" y2="155.13"/>
  <path class="cls-15" d="M99.66,222.46h0c0-3.41-.1-6.63-.25-9.65v-.11a.15.15,0,0,0,0,.07L82.88,168.39l2.87-1.12H81.62l-34.4-14.56-.65,1.48c-.27.58-.54,1.16-.8,1.76q-.53,1.17-1,2.4c-.51,1.23-1,2.5-1.5,3.8a126.64,126.64,0,0,0-6.64,28.6c-.19,1.44-.36,2.92-.5,4.43L36,196.71q-.17,1.74-.3,3.57c-.09,1.22-.17,2.47-.25,3.74v.16c-.06.86-.1,1.72-.14,2.6v.15c-.05.91-.09,1.82-.12,2.75q-.12,2.85-.15,5.85v3c0,.54-.14,1-.14,1.57v2.3a8.48,8.48,0,0,0,.11,1.67,20,20,0,0,0,.17,2.06l.09.74a6.69,6.69,0,0,0,.14,1l.15.93c.21,1.24.47,2.43.78,3.6.09.4.2.79.32,1.18a2.24,2.24,0,0,0,.1.37c.12.39.25.77.39,1.15a1.44,1.44,0,0,0,.14.43,3.28,3.28,0,0,0,.21.57c.13.4.28.79.44,1.17s.39,1,.61,1.42a30.89,30.89,0,0,0,1.41,2.82c.13.25.26.49.41.73s.43.73.66,1.09l.15.24c.26.42.54.83.83,1.23.09.14.18.27.28.4s.38.53.58.78l.4.53,1,1.24c.32.4.66.75,1,1.12l.11.12c.38.4.76.79,1.15,1.17.69.68,1.42,1.34,2.17,2,.25.22.5.43.76.63l.14.13a16.37,16.37,0,0,0,1.36,1c.3.23.61.45.93.67s.66.46,1,.68l.72.47c1,.64,2,1.24,3.08,1.81.31.17.62.34.94.5l.83.42,1.3.62,1.18.53,1,.43c2.24.92,4.53,1.71,6.84,2.4l.07,0a102.33,102.33,0,0,0,24.39,3.85c.84-.93,5.08-6.82,6.21-30.55,0-.93.08-1.89.11-2.87v0c0-.37,0-.74,0-1.11,0-.18,0-.37,0-.56,0-1.1,0-2.24.07-3.41h0c0-.18,0-.37,0-.55h0c0-1.05,0-2.14,0-3.25v-.46C99.67,223.2,99.67,222.83,99.66,222.46Zm-6.58,1.11a1.09,1.09,0,0,1,.14-.23,1,1,0,0,0-.13.23Zm0,8.25h0l.13.23A1.13,1.13,0,0,1,93.12,231.82Z" transform="translate(-17 -7.51)"/>
  <path class="cls-15" d="M163.81,218.58v-3q0-3-.15-5.85c0-.93-.07-1.84-.12-2.75v-.15c0-.88-.08-1.74-.14-2.6V204c-.08-1.27-.16-2.52-.25-3.74s-.19-2.41-.3-3.57l-.15-1.53c-.14-1.51-.31-3-.5-4.43a126.94,126.94,0,0,0-2.49-14.5,126.46,126.46,0,0,0-4.15-14.1c-.5-1.3-1-2.57-1.5-3.8q-.5-1.23-1-2.4c-.26-.6-.53-1.18-.8-1.76l-.67-1.39-35.32,16.45-3.89-.06,2.82.86L99.41,212.8v-.11a.15.15,0,0,0,0,.07v0c-.15,3-.24,6.25-.25,9.67h0c0,.37,0,.74,0,1.11V224c0,1.11,0,2.2,0,3.25h0c0,.18,0,.37,0,.55h0c0,1.17,0,2.31.07,3.41,0,.19,0,.38,0,.56,0,.37,0,.74,0,1.11v0c0,1,.07,1.94.12,2.87,1.12,23.73,5.36,29.62,6.2,30.55A102.33,102.33,0,0,0,130,262.52l.07,0c2.31-.69,4.6-1.48,6.84-2.4l1-.43,1.18-.53,1.3-.62.83-.42c.32-.16.63-.33.94-.5,1.08-.57,2.08-1.17,3.08-1.81l.72-.47c.34-.22.68-.46,1-.68s.63-.44.93-.67a16.37,16.37,0,0,0,1.36-1l.14-.13c.26-.2.51-.41.76-.63.75-.66,1.48-1.32,2.17-2,.39-.38.77-.77,1.15-1.17l.11-.12c.34-.37.68-.72,1-1.12l1-1.24.4-.53c.2-.25.48-.65.58-.78s.19-.26.28-.4c.29-.4.57-.81.83-1.23l.15-.24c.23-.36.51-.85.66-1.09s.28-.48.41-.73a30.89,30.89,0,0,0,1.41-2.82c.22-.42.45-1,.61-1.42s.31-.77.44-1.17a3.28,3.28,0,0,0,.21-.57,1.44,1.44,0,0,0,.14-.43c.14-.38.27-.76.39-1.15a2.24,2.24,0,0,0,.1-.37c.12-.39.23-.78.32-1.18.31-1.17.57-2.36.78-3.6l.15-.93a6.69,6.69,0,0,0,.14-1l.09-.74a20,20,0,0,0,.17-2.06,8.48,8.48,0,0,0,.11-1.67v-2.3C164,219.63,163.81,219.12,163.81,218.58ZM105.54,232l.13-.23h0A1.13,1.13,0,0,1,105.54,232Zm.18-8.48a1,1,0,0,0-.13-.23,1.09,1.09,0,0,1,.14.23Z" transform="translate(-17 -7.51)"/>
  <circle class="cls-2" cx="82.5" cy="213.13" r="2.37"/>
  <circle class="cls-15" cx="82.06" cy="212.42" r="0.44"/>
  <circle class="cls-15" cx="99.94" cy="221.33" r="0.44" transform="translate(-158.05 243.71) rotate(-72.77)"/>
  <circle class="cls-15" cx="98.74" cy="221.14" r="0.44" transform="translate(-158.72 242.43) rotate(-72.77)"/>
  <circle class="cls-15" cx="100.26" cy="220.12" r="0.44" transform="translate(-106.54 62.69) rotate(-27.21)"/>
  <polygon class="cls-2" points="27.23 240.29 30.56 230.13 29.5 242.7 27.23 240.29"/>
  <polygon class="cls-2" points="130.9 246.46 130 234.38 133.16 244.7 130.9 246.46"/>
  <path class="cls-2" d="M116.25,169.25l-3.89-.06,2.82.86L99.41,212.8v-.11c1.43-29.27,8.59-41.3,12.94-50h0l31-8.65.61-.17,0,0,4-1.14,2-.56,1.13-.32.46,1Z" transform="translate(-17 -7.51)"/>
  <polygon class="cls-2" points="130.97 145.2 126.94 146.34 126.97 146.32 127.09 146.28 130.97 145.2"/>
  <path class="cls-2" d="M99.41,212.69a.15.15,0,0,0,0,.07L82.88,168.39l2.87-1.12H81.62l-34.4-14.56.34-.78,1.27.22,2,.56,4,1.14,0,0,.61.17,31,8.65h0C90.81,171.39,98,183.42,99.41,212.69Z" transform="translate(-17 -7.51)"/>
  <polygon class="cls-2" points="82.42 205.27 82.42 205.29 82.41 205.27 82.42 205.27"/>
  <polygon class="cls-16" points="30.23 145.2 64.5 160.3 66.57 160.19 64.87 160.6 82.25 204.85 65.89 160.88 68.75 159.76 64.63 159.76 30.23 145.2"/>
  <polygon class="cls-16" points="134.57 145.29 99.46 162.13 97.62 162.08 98.97 162.49 82.42 205.29 98.19 162.54 95.36 161.68 99.25 161.74 134.57 145.29"/>
  <path class="cls-17" d="M72.31,109.1c6.38-1.52,45.5-1.84,51.63,0C119.94,108.39,76.15,108.81,72.31,109.1Z" transform="translate(-17 -7.51)"/>
  <path class="cls-18" d="M111.63,17.27c-29.75-5.56-75.75-4.75-81.5,55.13C38.5,9.89,86.13,14.39,111.63,17.27Z" transform="translate(-17 -7.51)"/>
  <path class="cls-18" d="M46,40.72c3.5-9.17,10.26-14,19.48-12.67C54.83,27.56,49.67,33.39,46,40.72Z" transform="translate(-17 -7.51)"/>
  <path class="cls-18" d="M157.17,35.56c7.16,8,10.83,19.2,10,36.83C166.67,54.22,163.51,46.22,157.17,35.56Z" transform="translate(-17 -7.51)"/>
  <path class="cls-1" d="M124.63,106.21c-1.25,1.19-1,4.52-.49,5.85A23.4,23.4,0,0,1,124.63,106.21Z" transform="translate(-17 -7.51)"/>
  <path class="cls-1" d="M71.55,106.21a6.1,6.1,0,0,1,.77,5.85A23.23,23.23,0,0,0,71.55,106.21Z" transform="translate(-17 -7.51)"/>
</svg>
