<svg id="Calque_1" data-name="Calque 1" xmlns="http://www.w3.org/2000/svg" viewBox="0 0 163.01 257.66">
  <defs>
    <style>
      .cls-1 {
        fill: #0c0c11;
      }

      .cls-2 {
        fill: #f4c9ab;
      }

      .cls-3 {
        fill: #e5b593;
      }

      .cls-4 {
        fill: #0a0a0c;
      }

      .cls-5 {
        fill: #fffffd;
      }

      .cls-6 {
        fill: #121221;
      }

      .cls-7 {
        fill: #1e1515;
      }

      .cls-8 {
        fill: #050505;
      }

      .cls-9 {
        fill: #edede6;
      }

      .cls-10 {
        fill: #0f0a0a;
      }

      .cls-11 {
        fill: #0d0d11;
      }

      .cls-12 {
        fill: #ddd;
      }

      .cls-13 {
        fill: #060607;
      }

      .cls-14 {
        fill: #e5e5e5;
      }

      .cls-15 {
        fill: #6d4b3c;
      }

      .cls-16 {
        fill: #230909;
      }
    </style>
  </defs>
  <title>macron</title>
  <g>
    <g id="Calque_1-2" data-name="Calque 1">
      <rect class="cls-1" x="136.8" y="135.54" width="43.99" height="8.8" transform="translate(-62.17 189.26) rotate(-57.43)"/>
      <circle class="cls-2" cx="154.93" cy="108.39" r="8.08"/>
      <path class="cls-3" d="M162.3,118.55h0a1.73,1.73,0,0,0,.07.21h0c.62,1.55,3.23,3.77,3.8,3.53s1.71-2.55,1.56-4.61h0a1.48,1.48,0,0,0,0-.21.83.83,0,0,0-.05-.35.24.24,0,0,0,0-.08,2.52,2.52,0,0,0-.07-.26.09.09,0,0,0,0-.05h0a2.78,2.78,0,1,0-5.26,1.81Z" transform="translate(-17.55 -9.17)"/>
      <rect class="cls-1" x="34.92" y="117.95" width="8.8" height="43.99" transform="translate(-86.7 34) rotate(-32.57)"/>
      <path class="cls-4" d="M130.55,262.83a109.19,109.19,0,0,1-30.86,4c-11.23,0-21.71-1.25-30.85-4,9.38-11.2,10.91-30.7,10.91-30.7H94.22A2,2,0,0,0,96,233.24h8.54a2,2,0,0,0,1.76-1.13h16q.7,3.6,1.55,7.22c.1.47.21.93.32,1.39.69,2.93,1.44,5.87,2.26,8.79.31,1.11.63,2.21,1,3.31s.61,2,.92,3c.45,1.44.93,2.87,1.42,4.3A23.06,23.06,0,0,0,130.55,262.83Z" transform="translate(-17.55 -9.17)"/>
      <path class="cls-5" d="M99.69,232.13h6.53a2,2,0,0,1-1.76,1.13h-4.8Z" transform="translate(-17.55 -9.17)"/>
      <path class="cls-5" d="M106.22,223.88H99.69v-1.12h4.8A1.94,1.94,0,0,1,106.22,223.88Z" transform="translate(-17.55 -9.17)"/>
      <polygon class="cls-5" points="87.48 158.56 89.78 199.71 82.14 206.21 82.14 158.56 87.48 158.56"/>
      <path class="cls-5" d="M164.5,220.46v2.3a9.31,9.31,0,0,1-.1,1.67,17.52,17.52,0,0,1-.18,2.06l-.09.74a6.69,6.69,0,0,1-.14,1l-.15.93c-.21,1.24-.47,2.43-.78,3.6-.09.4-.2.79-.32,1.18a1.56,1.56,0,0,1-.1.37c-.12.39-.24.77-.38,1.15a1.44,1.44,0,0,1-.14.43,5.55,5.55,0,0,1-.21.57c-.13.4-.28.79-.44,1.17s-.39,1-.61,1.42a30.89,30.89,0,0,1-1.41,2.82c-.13.25-.26.49-.41.73s-.43.73-.66,1.09l-.15.24c-.26.42-.54.83-.83,1.23-.09.14-.18.27-.28.4s-.38.53-.58.78l-.4.53-1,1.24c-.32.4-.66.75-1,1.12l-.11.12c-.38.4-.76.79-1.15,1.17-.69.68-1.42,1.34-2.17,2-.25.22-.5.43-.76.63l-.15.13a16.37,16.37,0,0,1-1.36,1c-.3.23-.61.45-.93.67s-.66.46-1,.68l-.72.47c-1,.64-2,1.24-3.08,1.81-.31.17-.62.34-.94.5l-.83.42-1.3.62-1.18.53-1,.43a69.49,69.49,0,0,1-6.83,2.42c-.32-.89-.64-1.78-.94-2.68-.49-1.43-1-2.86-1.42-4.3-.31-1-.62-2-.92-3s-.65-2.2-1-3.31c-.82-2.92-1.57-5.86-2.26-8.79-.11-.46-.22-.92-.32-1.39q-.84-3.61-1.55-7.22c-.3-1.51-.59-3-.85-4.51-.2-1.11-.39-2.21-.58-3.31a3,3,0,0,0-.07-.43c-.11-.65-.21-1.29-.32-1.93-.2-1.31-.4-2.61-.58-3.9-.06-.35-.11-.71-.16-1.06h0c-.32-2.22-.6-4.4-.86-6.55q-.11-.78-.18-1.56c-.09-.7-.16-1.39-.23-2.07-.06-.5-.11-1-.16-1.51-.15-1.4-.29-2.78-.41-4.14-.11-1.1-.2-2.18-.29-3.25l-.06-.76c-.05-.74-.11-1.47-.16-2.19s-.11-1.44-.15-2.14-.09-1.4-.14-2.09c-.08-1.38-.15-2.72-.22-4s-.12-2.49-.16-3.68V183q-.06-1.38-.09-2.67c-.17-5.58-.17-10.12-.14-13.26v-4.87l34.11-9.71,1.31.54.3.12.67,1.39c.63,1.35,1.24,2.73,1.82,4.16.51,1.23,1,2.5,1.49,3.8h0a126.7,126.7,0,0,1,6.65,28.6h0c.19,1.44.35,2.92.5,4.43l.15,1.53h0q.16,1.75.3,3.57c.09,1.22.17,2.47.25,3.74v.16c.06.86.1,1.72.14,2.6v.15c.05.91.09,1.82.12,2.75q.11,2.85.15,5.85v3C164.37,219.43,164.5,219.94,164.5,220.46Z" transform="translate(-17.55 -9.17)"/>
      <path class="cls-6" d="M164.5,220.46v2.3a9.31,9.31,0,0,1-.1,1.67,17.52,17.52,0,0,1-.18,2.06l-.09.74a6.69,6.69,0,0,1-.14,1l-.15.93c-.21,1.24-.47,2.43-.78,3.6-.09.4-.2.79-.32,1.18a1.56,1.56,0,0,1-.1.37c-.12.39-.24.77-.38,1.15a1.44,1.44,0,0,1-.14.43,5.55,5.55,0,0,1-.21.57c-.13.4-.28.79-.44,1.17s-.39,1-.61,1.42a30.89,30.89,0,0,1-1.41,2.82c-.13.25-.26.49-.41.73s-.43.73-.66,1.09l-.15.24c-.26.42-.54.83-.83,1.23-.09.14-.18.27-.28.4s-.38.53-.58.78l-.4.53-1,1.24c-.32.4-.66.75-1,1.12l-.11.12c-.38.4-.76.79-1.15,1.17-.69.68-1.42,1.34-2.17,2-.25.22-.5.43-.76.63l-.15.13a16.37,16.37,0,0,1-1.36,1c-.3.23-.61.45-.93.67s-.66.46-1,.68l-.72.47c-1,.64-2,1.24-3.08,1.81-.31.17-.62.34-.94.5l-.83.42-1.3.62-1.18.53-1,.43a69.49,69.49,0,0,1-6.83,2.42c-.32-.89-.64-1.78-.94-2.68-.49-1.43-1-2.86-1.42-4.3-.31-1-.62-2-.92-3s-.65-2.2-1-3.31c-.82-2.92-1.57-5.86-2.26-8.79-.11-.46-.22-.92-.32-1.39q-.84-3.61-1.55-7.22c-.3-1.51-.59-3-.85-4.51-.2-1.11-.39-2.21-.58-3.31a3,3,0,0,0-.07-.43c-.11-.65-.21-1.29-.32-1.93-.2-1.31-.4-2.61-.58-3.9-.06-.35-.11-.71-.16-1.06h0c-.32-2.22-.6-4.4-.86-6.55-.07-.52-.12-1-.18-1.56s-.16-1.39-.23-2.07c-.06-.5-.11-1-.16-1.51-.15-1.4-.29-2.78-.41-4.14-.11-1.1-.2-2.19-.29-3.25l-.06-.76c-.05-.74-.11-1.47-.16-2.19s-.11-1.44-.15-2.14-.09-1.4-.14-2.09c-.08-1.38-.15-2.72-.22-4s-.11-2.49-.16-3.68V183c0-.91-.06-1.81-.09-2.67-.17-5.58-.17-10.12-.14-13.26v-4.87l35.08-9h.09c7,14.24,12.47,32.82,12.81,64.27V219C164.39,219.51,164.5,219.94,164.5,220.46Z" transform="translate(-17.55 -9.17)"/>
      <path class="cls-5" d="M119.78,218c-.06-.35-.11-.71-.16-1.06h0c-.32-2.22-.6-4.4-.86-6.55q-.11-.78-.18-1.56c-.09-.7-.16-1.39-.23-2.07-.06-.51-.12-1-.16-1.51-.15-1.4-.29-2.78-.41-4.14-.11-1.1-.2-2.18-.29-3.25l-.06-.76c-.06-.74-.11-1.47-.16-2.19s-.11-1.44-.15-2.14-.1-1.4-.14-2.09c-.08-1.38-.15-2.72-.22-4s-.12-2.49-.16-3.68V183q-.06-1.38-.09-2.67c-.17-5.58-.17-10.12-.14-13.26v-4.87l34.11-9.71-50.92-21-46,8.49-5.5,12.31,34.78,9.9s.24,5.18.09,13.7v2c0,1,0,2.07-.08,3.16v1.41c-.11,2.83-.25,5.9-.46,9.16q-.06,1.08-.15,2.19c0,.46-.06.92-.1,1.38a9.05,9.05,0,0,1-.08,1.12c0,.68-.1,1.37-.16,2.06-.49,5.84-1.16,12.13-2.09,18.68h0a6.47,6.47,0,0,1-.16,1.06c-.13,1-.28,1.93-.43,2.9s-.31,1.95-.47,2.93H94.22A1.94,1.94,0,0,1,96,222.77h8.54a1.94,1.94,0,0,1,1.76,1.12h14.43c-.11-.65-.21-1.29-.32-1.93C120.16,220.64,120,219.34,119.78,218Zm-20.09-2.67-7.34-6.5L95,167.73h10l2.3,41.15Z" transform="translate(-17.55 -9.17)"/>
      <polygon class="cls-5" points="30.56 143.08 65.34 152.98 30.17 143.93 30.56 143.08"/>
      <polygon class="cls-5" points="82.14 158.56 82.14 206.21 74.8 199.71 77.45 158.56 82.14 158.56"/>
      <path class="cls-5" d="M96,222.76h3.74v1.12H94.22A1.94,1.94,0,0,1,96,222.76Z" transform="translate(-17.55 -9.17)"/>
      <path class="cls-5" d="M99.69,232.13v1.11H96a2,2,0,0,1-1.73-1.11Z" transform="translate(-17.55 -9.17)"/>
      <path class="cls-7" d="M83,175.85v2c0,1,0,2.07-.08,3.16v1.41c-.11,2.83-.25,5.9-.46,9.16l-.22,2.15c0,.46-.06.91-.1,1.38a8.91,8.91,0,0,1-.08,1.12c0,.68-.11,1.36-.16,2.06-.49,5.84-1.16,12.13-2.09,18.68v-.07l-7.28-36.27,5.59-14.39L47.72,153.1l35.17,9S83.13,167.33,83,175.85Z" transform="translate(-17.55 -9.17)"/>
      <path class="cls-6" d="M83,175.85v2c0,1,0,2.07-.08,3.16v1.41c-.11,2.83-.25,5.9-.46,9.16l-.22,2.15c0,.46-.06.91-.1,1.38a8.91,8.91,0,0,1-.08,1.12c0,.68-.11,1.36-.16,2.06-.49,5.84-1.16,12.13-2.09,18.68v-.07l-7.28-36.27,5.59-14.39L47.72,153.1l.39-.85L83,161.89S83.13,167.33,83,175.85Z" transform="translate(-17.55 -9.17)"/>
      <polygon class="cls-8" points="53.92 171.46 59.55 157.05 30.17 143.93 60.55 157.05 54.92 171.46 62.2 207.73 53.92 171.46"/>
      <path class="cls-1" d="M79.77,217h0a6.47,6.47,0,0,1-.16,1.06c-.13,1-.28,1.93-.43,2.9l-.48,2.93c-.08.5-.16,1-.25,1.51-.34,2-.72,4-1.11,6.08a3.11,3.11,0,0,1-.14.66l-.09.49c-.09.45-.19.91-.28,1.36-.2,1-.4,1.93-.62,2.89s-.36,1.65-.55,2.48a2.13,2.13,0,0,1-.1.42c-.22,1-.45,1.94-.69,2.9v.06q-.35,1.43-.72,2.85c-.24.92-.48,1.83-.73,2.75-.3,1.08-.6,2.17-.92,3.25-.24.84-.49,1.67-.75,2.5-.61,2-1.27,4.06-2,6.07-.31.9-.62,1.79-.94,2.68-20.33-6.05-34-19.37-34-42.37,0-33.33,5.66-52.66,12.83-67.36L77.1,166.24l-5.63,14.41,8.28,36.27Z" transform="translate(-17.55 -9.17)"/>
      <path class="cls-7" d="M151.6,153.12l-.22.1h0l-30.08,13,5.63,14.41-7.27,36.27V217c-.32-2.22-.6-4.4-.86-6.55q-.11-.78-.18-1.56c-.09-.7-.16-1.39-.23-2.07-.06-.5-.11-1-.16-1.51-.15-1.4-.29-2.78-.41-4.14-.11-1.1-.2-2.18-.29-3.25l-.06-.76c-.05-.74-.11-1.47-.16-2.19s-.11-1.44-.15-2.14-.09-1.4-.14-2.09c-.08-1.38-.15-2.72-.22-4s-.12-2.49-.16-3.68v-.1q-.06-1.38-.09-2.67c-.17-5.58-.17-10.12-.14-13.26v-4.87l35.08-9Z" transform="translate(-17.55 -9.17)"/>
      <polygon class="cls-7" points="134.09 143.94 134.05 143.95 134.07 143.94 134.09 143.94"/>
      <path class="cls-6" d="M152.12,152.89l-.2.09-.3.13h0l-30.34,13.13,5.63,14.41-7.27,36.27V217c-.32-2.22-.6-4.4-.86-6.55q-.11-.78-.18-1.56c-.09-.7-.16-1.39-.23-2.07-.06-.5-.11-1-.16-1.51-.15-1.4-.29-2.78-.41-4.14-.11-1.1-.2-2.18-.29-3.25l-.06-.76c-.05-.74-.11-1.47-.16-2.19s-.11-1.44-.15-2.14-.09-1.4-.14-2.09c-.08-1.38-.15-2.72-.22-4s-.12-2.49-.16-3.68V183q-.06-1.38-.09-2.67c-.17-5.58-.17-10.12-.14-13.26v-4a10.57,10.57,0,0,1,.06-1.1l34.08-9.5,1-.3Z" transform="translate(-17.55 -9.17)"/>
      <polygon class="cls-8" points="104.73 157.05 110.36 171.46 102.09 207.73 109.36 171.46 103.73 157.05 133.81 144.06 104.73 157.05"/>
      <path class="cls-1" d="M164.5,220.46v2.3a9.31,9.31,0,0,1-.1,1.67,17.52,17.52,0,0,1-.18,2.06l-.09.74a6.69,6.69,0,0,1-.14,1l-.15.93c-.21,1.24-.47,2.43-.78,3.6-.09.4-.2.79-.32,1.18a1.56,1.56,0,0,1-.1.37c-.12.39-.24.77-.38,1.15a1.44,1.44,0,0,1-.14.43,5.55,5.55,0,0,1-.21.57c-.13.4-.28.79-.44,1.17s-.39,1-.61,1.42a30.89,30.89,0,0,1-1.41,2.82c-.13.25-.26.49-.41.73s-.43.73-.66,1.09l-.15.24c-.26.42-.54.83-.83,1.23-.09.14-.18.27-.28.4s-.38.53-.58.78l-.4.53-1,1.24c-.32.4-.66.75-1,1.12l-.11.12c-.38.4-.76.79-1.15,1.17-.69.68-1.42,1.34-2.17,2-.25.22-.5.43-.76.63l-.15.13a16.37,16.37,0,0,1-1.36,1c-.3.23-.61.45-.93.67s-.66.46-1,.68l-.72.47c-1,.64-2,1.24-3.08,1.81-.31.17-.62.34-.94.5l-.83.42-1.3.62-1.18.53-1,.43a69.49,69.49,0,0,1-6.83,2.42c-.32-.89-.64-1.78-.94-2.68-.49-1.43-1-2.86-1.42-4.3-.31-1-.62-2-.92-3s-.65-2.2-1-3.31c-.82-2.92-1.57-5.86-2.26-8.79-.11-.46-.22-.92-.32-1.39q-.84-3.61-1.55-7.22c-.3-1.51-.59-3-.85-4.51-.2-1.11-.39-2.21-.58-3.31a3,3,0,0,0-.07-.43c-.11-.65-.21-1.29-.32-1.93-.2-1.31-.4-2.61-.58-3.9-.06-.35-.11-.71-.16-1.06h0v-.07l8.27-36.27-5.65-14.42,29.08-13h0l.2-.1h.09l.25-.12.2-.09.1.21.67,1.39c.62,1.34,1.23,2.73,1.82,4.16.51,1.23,1,2.49,1.49,3.8h0a129,129,0,0,1,6.65,28.6h0c.18,1.44.35,2.92.5,4.43l.15,1.53h0c.1,1.17.21,2.36.3,3.57s.17,2.47.25,3.74v.16c0,.86.1,1.72.14,2.6v.12c.05.9.08,1.82.12,2.75q.11,2.85.15,5.85v3C164.44,219.43,164.5,219.94,164.5,220.46Z" transform="translate(-17.55 -9.17)"/>
      <polyline class="cls-9" points="36.19 130.78 30.56 143.08 81.17 157.05 82.17 151.56"/>
      <polyline class="cls-9" points="128.65 130.78 134.12 142.97 83.67 157.05 82.67 151.56"/>
      <polygon class="cls-7" points="89.78 199.71 82.14 206.21 74.8 199.71 77.45 158.56 87.48 158.56 89.78 199.71"/>
      <polyline class="cls-10" points="78.86 151.41 74.8 155.41 82.17 165.71 89.78 155.48 84.56 151.41 78.86 151.41"/>
      <path class="cls-11" d="M122.22,232.13h-45a3.08,3.08,0,0,1,.13-.66c.39-2,.77-4.06,1.11-6.08.09-.5.17-1,.26-1.51h42a1,1,0,0,0,.07.43c.18,1.1.38,2.2.58,3.31C121.59,229.12,121.88,230.62,122.22,232.13Z" transform="translate(-17.55 -9.17)"/>
      <path class="cls-12" d="M106.43,224.69v6.63a1.95,1.95,0,0,1-1.94,1.94H96A1.95,1.95,0,0,1,94,231.32v-6.63a2,2,0,0,1,.18-.81A1.94,1.94,0,0,1,96,222.76h8.54a1.94,1.94,0,0,1,1.76,1.12A2,2,0,0,1,106.43,224.69Z" transform="translate(-17.55 -9.17)"/>
      <rect class="cls-13" x="77.88" y="215.17" width="8.68" height="7.23" rx="1.54" ry="1.54"/>
      <path class="cls-12" d="M100,227.44h5.39a.42.42,0,0,1,.42.42h0a.42.42,0,0,1-.42.42H100a.42.42,0,0,1-.42-.42h0A.42.42,0,0,1,100,227.44Z" transform="translate(-17.55 -9.17)"/>
      <path d="M79.75,232.13s-1.53,19.5-10.91,30.7c.32-.89.64-1.78.94-2.68.69-2,1.35-4,2-6.07.26-.83.51-1.66.75-2.5.32-1.08.62-2.17.92-3.25.25-.92.49-1.83.73-2.75s.49-1.9.72-2.85v-.06c.24-1,.47-1.93.69-2.9a2.13,2.13,0,0,1,.1-.42c.19-.83.37-1.65.55-2.48s.42-1.92.62-2.89c.09-.45.19-.91.28-1.36a2.25,2.25,0,0,1,.1-.49Z" transform="translate(-17.55 -9.17)"/>
      <path d="M119.64,232.13s1.53,19.5,10.91,30.7c-.32-.89-.64-1.78-.94-2.68-.69-2-1.35-4-2-6.07-.26-.83-.51-1.66-.75-2.5-.32-1.08-.62-2.17-.92-3.25-.25-.92-.49-1.83-.73-2.75s-.49-1.9-.72-2.85v-.06c-.24-1-.47-1.93-.69-2.9a2.13,2.13,0,0,0-.1-.42c-.19-.83-.37-1.65-.55-2.48s-.42-1.92-.62-2.89c-.09-.45-.19-.91-.28-1.36a2.25,2.25,0,0,0-.1-.49Z" transform="translate(-17.55 -9.17)"/>
      <polygon class="cls-14" points="65.48 152.72 74.9 155.32 74.8 155.41 77.42 159.07 74.8 199.71 82.14 206.21 73.25 200.13 76.8 159.04 74.55 155.67 65.48 152.72"/>
      <circle class="cls-2" cx="8.08" cy="108.39" r="8.08"/>
      <path class="cls-3" d="M35.81,118.55h0a1.73,1.73,0,0,1-.07.21h0c-.62,1.55-3.23,3.77-3.8,3.53s-1.71-2.55-1.56-4.61h0a1.48,1.48,0,0,1,0-.21.83.83,0,0,1,0-.35.24.24,0,0,1,0-.08,2.52,2.52,0,0,1,.07-.26.09.09,0,0,1,0-.05h0a2.78,2.78,0,0,1,5.26,1.81Z" transform="translate(-17.55 -9.17)"/>
    </g>
    <g id="Calque_2" data-name="Calque 2">
      <path class="cls-2" d="M167.56,79.83v1.75a76.11,76.11,0,0,1-.5,7.73,123,123,0,0,1-5.44,24.37c-3.78,11.57-8.59,21.18-12,24.81-6.48,6.8-27.84,22.24-49.83,22.24-22.32,0-45.93-19-50.34-25.58-2.16-3.24-6.34-11.76-10.06-21.79a129.43,129.43,0,0,1-6.69-24A55.39,55.39,0,0,1,32,81.63V79.88a67.84,67.84,0,0,1,135.68,0v0Z" transform="translate(-17.55 -9.17)"/>
      <path class="cls-3" d="M161.6,113.68A123,123,0,0,0,167,89.31a9,9,0,0,1,2.18.19C175.42,90.8,176.74,98.84,161.6,113.68Z" transform="translate(-17.55 -9.17)"/>
      <path class="cls-3" d="M39.32,113.36C23.58,97.24,23.56,91.08,30.48,89.5a8.65,8.65,0,0,1,2.15-.19A129.43,129.43,0,0,0,39.32,113.36Z" transform="translate(-17.55 -9.17)"/>
      <path class="cls-15" d="M169.22,89.5a9,9,0,0,0-2.18-.19h0l-6.48-3.89s5.28-33.65-14.34-52.58c-17-16.33-15.24-.5-46.49-2.13-19.18-1-20.84-23.91-45.51,1.14C26.88,59.62,39.43,85.42,39.43,85.42l-6.8,3.89a8.65,8.65,0,0,0-2.15.19c-3.93-47,29.07-80.33,69.24-80.33S169.22,36.54,169.22,89.5Z" transform="translate(-17.55 -9.17)"/>
      <path class="cls-16" d="M71.55,104.59s2.34,4.65,28.17,4.65,29.5-4.65,29.5-4.65-8.87,2.79-29.5,2.79S71.55,104.59,71.55,104.59Z" transform="translate(-17.55 -9.17)"/>
      <circle cx="48.48" cy="77.52" r="2.81"/>
      <circle cx="116.23" cy="77.52" r="2.81"/>
      <path class="cls-3" d="M98.72,88.13c-4.92,5.92-5,8.88,0,8.88C93.72,95.71,98.72,88.13,98.72,88.13Z" transform="translate(-17.55 -9.17)"/>
      <polygon class="cls-3" points="78.06 115.96 79.67 122.29 78.86 115.96 78.06 115.96"/>
      <polygon class="cls-3" points="85.36 115.96 83.75 122.29 84.56 115.96 85.36 115.96"/>
    </g>
  </g>
</svg>
