<svg id="Calque_1" data-name="Calque 1" xmlns="http://www.w3.org/2000/svg" viewBox="0 0 171.5 197.03"><defs><style>.cls-1{fill:#140d0c;}.cls-2{fill:#35160f;}.cls-3{fill:#e8c1a0;}.cls-4{fill:#afafaf;}.cls-5{fill:#303030;}</style></defs><title>pancarte</title><path class="cls-1" d="M91,259.64V70.36a7.77,7.77,0,0,1,7.75-7.75h0a7.77,7.77,0,0,1,7.75,7.75V259.64Z" transform="translate(-13 -62.61)"/><rect class="cls-2" y="6.78" width="171.5" height="105" rx="9.25" ry="9.25"/><polygon class="cls-3" points="10.5 16.53 10.5 26.41 16.13 27.41 10.5 28.03 10.5 61.03 15.13 56.28 19.63 58.66 15.06 57.53 10.5 62.91 10.5 94.88 14 100.78 150.25 100.78 144.75 99.09 143.75 95.66 145.13 98.52 151.5 99.91 152.5 96.91 152.5 100.78 160.5 100.78 160.5 28.28 157.25 32.41 160.5 26.28 160.5 16.53 99.88 16.53 98.88 22.03 98.25 16.53 97.63 19.41 97.13 16.53 10.5 16.53"/><circle class="cls-4" cx="12.92" cy="18.95" r="1.42"/><circle class="cls-5" cx="12.92" cy="18.95" r="0.29"/><circle class="cls-4" cx="158" cy="18.95" r="1.42"/><circle class="cls-5" cx="158" cy="18.95" r="0.29"/><circle class="cls-4" cx="12.92" cy="98.52" r="1.42"/><circle class="cls-5" cx="12.92" cy="98.52" r="0.29"/><circle class="cls-4" cx="158" cy="98.52" r="1.42"/><circle class="cls-5" cx="158" cy="98.52" r="0.29"/></svg>