<svg xmlns="http://www.w3.org/2000/svg" xmlns:xlink="http://www.w3.org/1999/xlink" viewBox="0 0 1366 768"><defs><style>.cls-1{fill:url(#Dégradé_sans_nom_123);}.cls-2{fill:#844331;}.cls-3{fill:#bc5839;}.cls-4{fill:#d8a380;}.cls-5{fill:#191919;}.cls-6{fill:#4c4e60;}.cls-7{fill:#f4dbb0;}.cls-8{fill:#efbf8f;}.cls-9{fill:#f5fcff;}.cls-10{fill:#d7f3ff;}.cls-11{fill:#262626;}.cls-12,.cls-16{fill:none;}.cls-12{stroke:#f4dbb0;stroke-linecap:round;stroke-miterlimit:10;stroke-width:3px;}.cls-13{fill:#fff4e3;}.cls-14{fill:#111;opacity:0.35;}.cls-15{fill:#352519;}.cls-17{fill:#d8d8d8;}.cls-18{fill:#475cf4;}.cls-19,.cls-23{fill:#fff;}.cls-20{fill:#ef403c;}.cls-21{fill:#e23c2b;}.cls-22{fill:#c12017;}.cls-23{opacity:0.25;}</style><linearGradient id="Dégradé_sans_nom_123" x1="683" y1="647" x2="683" y2="132.94" gradientUnits="userSpaceOnUse"><stop offset="0" stop-color="#f7ff9a"/><stop offset="1" stop-color="#ffa140"/></linearGradient></defs><title>elysee</title><g id="sol"><rect class="cls-1" width="1366" height="768"/><path class="cls-2" d="M0,539.72s80.71,13,675.13,13,690.87-13,690.87-13V768H0Z"/><path class="cls-3" d="M0,559.72s80.71-5,675.13-5,690.87,5,690.87,5V768H0Z"/><polyline class="cls-4" points="131.04 680.22 0 692.22 0 768 1366 768 1366 692.22 1219.04 680.22 995.04 668.55 354.54 668.55 131.04 680.22"/></g><g id="Calque_2" data-name="Calque 2"><polygon class="cls-5" points="1035.04 377.05 315.04 377.05 318.04 301.4 358.55 253.72 991.53 253.72 1032.04 301.4 1035.04 377.05"/><rect class="cls-5" x="368.55" y="246.72" width="612.99" height="7"/><polygon class="cls-6" points="440.87 246.72 429.21 255.22 429.21 377.05 505.87 377.05 505.87 253.72 514.21 246.72 440.87 246.72"/><polygon class="cls-6" points="426.29 246.72 412.79 253.72 412.79 377.05 401.04 377.05 401.04 253.72 413.67 246.72 426.29 246.72"/><rect class="cls-7" x="330.54" y="385.22" width="689" height="276"/><rect class="cls-8" x="330.04" y="513.22" width="690" height="15"/><rect class="cls-7" x="330.04" y="516.22" width="690" height="4.5"/><path class="cls-8" d="M911.94,579.22v82h-9v-81a19.05,19.05,0,0,0-17-18.89,18.24,18.24,0,0,0-4,0,19.07,19.07,0,0,0-17,18.89v81h-9v-82a28,28,0,0,1,56,0Z"/><path class="cls-9" d="M881.94,561.33v18.89h-17A19.07,19.07,0,0,1,881.94,561.33Z"/><path class="cls-10" d="M902.94,580.22h-17V561.33a19.05,19.05,0,0,1,17,18.89Z"/><rect class="cls-10" x="885.94" y="584.22" width="17" height="26"/><rect class="cls-9" x="864.94" y="584.22" width="17" height="26"/><rect class="cls-9" x="864.94" y="614.22" width="17" height="26"/><rect class="cls-10" x="885.94" y="614.22" width="17" height="26"/><path class="cls-11" d="M885.94,584.22v26h17v4h-17v26h17v4h-17v17h-4v-17h-17v-4h17v-26h-17v-4h17v-26h-17v-4h17V561.33a18.24,18.24,0,0,1,4,0v18.89h17v4Z"/><rect class="cls-9" x="864.94" y="644.22" width="17" height="17"/><rect class="cls-10" x="885.94" y="644.22" width="17" height="17"/><path class="cls-12" d="M860.94,582.59c0-14.32,10.58-25.75,23.1-25.75"/><path class="cls-8" d="M990.54,579.22v82h-9v-81a19.05,19.05,0,0,0-17-18.89,18.24,18.24,0,0,0-4,0,19.07,19.07,0,0,0-17,18.89v81h-9v-82a28,28,0,0,1,56,0Z"/><path class="cls-9" d="M960.54,561.33v18.89h-17A19.07,19.07,0,0,1,960.54,561.33Z"/><path class="cls-10" d="M981.54,580.22h-17V561.33a19.05,19.05,0,0,1,17,18.89Z"/><rect class="cls-10" x="964.54" y="584.22" width="17" height="26"/><rect class="cls-9" x="943.54" y="584.22" width="17" height="26"/><rect class="cls-9" x="943.54" y="614.22" width="17" height="26"/><rect class="cls-10" x="964.54" y="614.22" width="17" height="26"/><path class="cls-11" d="M964.54,584.22v26h17v4h-17v26h17v4h-17v17h-4v-17h-17v-4h17v-26h-17v-4h17v-26h-17v-4h17V561.33a18.24,18.24,0,0,1,4,0v18.89h17v4Z"/><rect class="cls-9" x="943.54" y="644.22" width="17" height="17"/><rect class="cls-10" x="964.54" y="644.22" width="17" height="17"/><path class="cls-12" d="M939.54,582.59c0-14.32,10.58-25.75,23.1-25.75"/><path class="cls-8" d="M911.94,431.22v82h-9v-81a19.05,19.05,0,0,0-17-18.89,18.24,18.24,0,0,0-4,0,19.07,19.07,0,0,0-17,18.89v81h-9v-82a28,28,0,0,1,56,0Z"/><path class="cls-9" d="M881.94,413.33v18.89h-17A19.07,19.07,0,0,1,881.94,413.33Z"/><path class="cls-10" d="M902.94,432.22h-17V413.33a19.05,19.05,0,0,1,17,18.89Z"/><rect class="cls-10" x="885.94" y="436.22" width="17" height="26"/><rect class="cls-9" x="864.94" y="436.22" width="17" height="26"/><rect class="cls-9" x="864.94" y="466.22" width="17" height="26"/><rect class="cls-10" x="885.94" y="466.22" width="17" height="26"/><path class="cls-11" d="M885.94,436.22v26h17v4h-17v26h17v4h-17v17h-4v-17h-17v-4h17v-26h-17v-4h17v-26h-17v-4h17V413.33a18.24,18.24,0,0,1,4,0v18.89h17v4Z"/><rect class="cls-9" x="864.94" y="496.22" width="17" height="17"/><rect class="cls-10" x="885.94" y="496.22" width="17" height="17"/><path class="cls-12" d="M860.94,434.59c0-14.32,10.58-25.75,23.1-25.75"/><path class="cls-8" d="M833.8,579.22v82h-9v-81a19.05,19.05,0,0,0-17-18.89,18.24,18.24,0,0,0-4,0,19.07,19.07,0,0,0-17,18.89v81h-9v-82a28,28,0,0,1,56,0Z"/><path class="cls-9" d="M803.8,561.33v18.89h-17A19.07,19.07,0,0,1,803.8,561.33Z"/><path class="cls-10" d="M824.8,580.22h-17V561.33a19.05,19.05,0,0,1,17,18.89Z"/><rect class="cls-10" x="807.8" y="584.22" width="17" height="26"/><rect class="cls-9" x="786.8" y="584.22" width="17" height="26"/><rect class="cls-9" x="786.8" y="614.22" width="17" height="26"/><rect class="cls-10" x="807.8" y="614.22" width="17" height="26"/><path class="cls-11" d="M807.8,584.22v26h17v4h-17v26h17v4h-17v17h-4v-17h-17v-4h17v-26h-17v-4h17v-26h-17v-4h17V561.33a18.24,18.24,0,0,1,4,0v18.89h17v4Z"/><rect class="cls-9" x="786.8" y="644.22" width="17" height="17"/><rect class="cls-10" x="807.8" y="644.22" width="17" height="17"/><path class="cls-12" d="M782.8,582.59c0-14.32,10.58-25.75,23.1-25.75"/><path class="cls-8" d="M833.8,431.22v82h-9v-81a19.05,19.05,0,0,0-17-18.89,18.24,18.24,0,0,0-4,0,19.07,19.07,0,0,0-17,18.89v81h-9v-82a28,28,0,0,1,56,0Z"/><path class="cls-9" d="M803.8,413.33v18.89h-17A19.07,19.07,0,0,1,803.8,413.33Z"/><path class="cls-10" d="M824.8,432.22h-17V413.33a19.05,19.05,0,0,1,17,18.89Z"/><rect class="cls-10" x="807.8" y="436.22" width="17" height="26"/><rect class="cls-9" x="786.8" y="436.22" width="17" height="26"/><rect class="cls-9" x="786.8" y="466.22" width="17" height="26"/><rect class="cls-10" x="807.8" y="466.22" width="17" height="26"/><path class="cls-11" d="M807.8,436.22v26h17v4h-17v26h17v4h-17v17h-4v-17h-17v-4h17v-26h-17v-4h17v-26h-17v-4h17V413.33a18.24,18.24,0,0,1,4,0v18.89h17v4Z"/><rect class="cls-9" x="786.8" y="496.22" width="17" height="17"/><rect class="cls-10" x="807.8" y="496.22" width="17" height="17"/><path class="cls-12" d="M782.8,434.59c0-14.32,10.58-25.75,23.1-25.75"/><path class="cls-8" d="M990.54,431.22v82h-9v-81a19.05,19.05,0,0,0-17-18.89,18.24,18.24,0,0,0-4,0,19.07,19.07,0,0,0-17,18.89v81h-9v-82a28,28,0,0,1,56,0Z"/><path class="cls-9" d="M960.54,413.33v18.89h-17A19.07,19.07,0,0,1,960.54,413.33Z"/><path class="cls-10" d="M981.54,432.22h-17V413.33a19.05,19.05,0,0,1,17,18.89Z"/><rect class="cls-10" x="964.54" y="436.22" width="17" height="26"/><rect class="cls-9" x="943.54" y="436.22" width="17" height="26"/><rect class="cls-9" x="943.54" y="466.22" width="17" height="26"/><rect class="cls-10" x="964.54" y="466.22" width="17" height="26"/><path class="cls-11" d="M964.54,436.22v26h17v4h-17v26h17v4h-17v17h-4v-17h-17v-4h17v-26h-17v-4h17v-26h-17v-4h17V413.33a18.24,18.24,0,0,1,4,0v18.89h17v4Z"/><rect class="cls-9" x="943.54" y="496.22" width="17" height="17"/><rect class="cls-10" x="964.54" y="496.22" width="17" height="17"/><path class="cls-12" d="M939.54,434.59c0-14.32,10.58-25.75,23.1-25.75"/><path class="cls-8" d="M493.69,579.22v82h-9v-81a19.05,19.05,0,0,0-17-18.89,18.24,18.24,0,0,0-4,0,19.07,19.07,0,0,0-17,18.89v81h-9v-82a28,28,0,0,1,56,0Z"/><path class="cls-9" d="M463.69,561.33v18.89h-17A19.07,19.07,0,0,1,463.69,561.33Z"/><path class="cls-10" d="M484.69,580.22h-17V561.33a19.05,19.05,0,0,1,17,18.89Z"/><rect class="cls-10" x="467.69" y="584.22" width="17" height="26"/><rect class="cls-9" x="446.69" y="584.22" width="17" height="26"/><rect class="cls-9" x="446.69" y="614.22" width="17" height="26"/><rect class="cls-10" x="467.69" y="614.22" width="17" height="26"/><path class="cls-11" d="M467.69,584.22v26h17v4h-17v26h17v4h-17v17h-4v-17h-17v-4h17v-26h-17v-4h17v-26h-17v-4h17V561.33a18.24,18.24,0,0,1,4,0v18.89h17v4Z"/><rect class="cls-9" x="446.69" y="644.22" width="17" height="17"/><rect class="cls-10" x="467.69" y="644.22" width="17" height="17"/><path class="cls-12" d="M442.69,582.59c0-14.32,10.58-25.75,23.1-25.75"/><path class="cls-8" d="M572.29,579.22v82h-9v-81a19.05,19.05,0,0,0-17-18.89,18.24,18.24,0,0,0-4,0,19.07,19.07,0,0,0-17,18.89v81h-9v-82a28,28,0,0,1,56,0Z"/><path class="cls-9" d="M542.29,561.33v18.89h-17A19.07,19.07,0,0,1,542.29,561.33Z"/><path class="cls-10" d="M563.29,580.22h-17V561.33a19.05,19.05,0,0,1,17,18.89Z"/><rect class="cls-10" x="546.29" y="584.22" width="17" height="26"/><rect class="cls-9" x="525.29" y="584.22" width="17" height="26"/><rect class="cls-9" x="525.29" y="614.22" width="17" height="26"/><rect class="cls-10" x="546.29" y="614.22" width="17" height="26"/><path class="cls-11" d="M546.29,584.22v26h17v4h-17v26h17v4h-17v17h-4v-17h-17v-4h17v-26h-17v-4h17v-26h-17v-4h17V561.33a18.24,18.24,0,0,1,4,0v18.89h17v4Z"/><rect class="cls-9" x="525.29" y="644.22" width="17" height="17"/><rect class="cls-10" x="546.29" y="644.22" width="17" height="17"/><path class="cls-12" d="M521.29,582.59c0-14.32,10.58-25.75,23.1-25.75"/><path class="cls-8" d="M493.69,431.22v82h-9v-81a19.05,19.05,0,0,0-17-18.89,18.24,18.24,0,0,0-4,0,19.07,19.07,0,0,0-17,18.89v81h-9v-82a28,28,0,0,1,56,0Z"/><path class="cls-9" d="M463.69,413.33v18.89h-17A19.07,19.07,0,0,1,463.69,413.33Z"/><path class="cls-10" d="M484.69,432.22h-17V413.33a19.05,19.05,0,0,1,17,18.89Z"/><rect class="cls-10" x="467.69" y="436.22" width="17" height="26"/><rect class="cls-9" x="446.69" y="436.22" width="17" height="26"/><rect class="cls-9" x="446.69" y="466.22" width="17" height="26"/><rect class="cls-10" x="467.69" y="466.22" width="17" height="26"/><path class="cls-11" d="M467.69,436.22v26h17v4h-17v26h17v4h-17v17h-4v-17h-17v-4h17v-26h-17v-4h17v-26h-17v-4h17V413.33a18.24,18.24,0,0,1,4,0v18.89h17v4Z"/><rect class="cls-9" x="446.69" y="496.22" width="17" height="17"/><rect class="cls-10" x="467.69" y="496.22" width="17" height="17"/><path class="cls-12" d="M442.69,434.59c0-14.32,10.58-25.75,23.1-25.75"/><path class="cls-8" d="M415.55,579.22v82h-9v-81a19.05,19.05,0,0,0-17-18.89,18.24,18.24,0,0,0-4,0,19.07,19.07,0,0,0-17,18.89v81h-9v-82a28,28,0,0,1,56,0Z"/><path class="cls-9" d="M385.55,561.33v18.89h-17A19.07,19.07,0,0,1,385.55,561.33Z"/><path class="cls-10" d="M406.55,580.22h-17V561.33a19.05,19.05,0,0,1,17,18.89Z"/><rect class="cls-10" x="389.55" y="584.22" width="17" height="26"/><rect class="cls-9" x="368.55" y="584.22" width="17" height="26"/><rect class="cls-9" x="368.55" y="614.22" width="17" height="26"/><rect class="cls-10" x="389.55" y="614.22" width="17" height="26"/><path class="cls-11" d="M389.55,584.22v26h17v4h-17v26h17v4h-17v17h-4v-17h-17v-4h17v-26h-17v-4h17v-26h-17v-4h17V561.33a18.24,18.24,0,0,1,4,0v18.89h17v4Z"/><rect class="cls-9" x="368.55" y="644.22" width="17" height="17"/><rect class="cls-10" x="389.55" y="644.22" width="17" height="17"/><path class="cls-12" d="M364.55,582.59c0-14.32,10.58-25.75,23.1-25.75"/><path class="cls-8" d="M415.55,431.22v82h-9v-81a19.05,19.05,0,0,0-17-18.89,18.24,18.24,0,0,0-4,0,19.07,19.07,0,0,0-17,18.89v81h-9v-82a28,28,0,0,1,56,0Z"/><path class="cls-9" d="M385.55,413.33v18.89h-17A19.07,19.07,0,0,1,385.55,413.33Z"/><path class="cls-10" d="M406.55,432.22h-17V413.33a19.05,19.05,0,0,1,17,18.89Z"/><rect class="cls-10" x="389.55" y="436.22" width="17" height="26"/><rect class="cls-9" x="368.55" y="436.22" width="17" height="26"/><rect class="cls-9" x="368.55" y="466.22" width="17" height="26"/><rect class="cls-10" x="389.55" y="466.22" width="17" height="26"/><path class="cls-11" d="M389.55,436.22v26h17v4h-17v26h17v4h-17v17h-4v-17h-17v-4h17v-26h-17v-4h17v-26h-17v-4h17V413.33a18.24,18.24,0,0,1,4,0v18.89h17v4Z"/><rect class="cls-9" x="368.55" y="496.22" width="17" height="17"/><rect class="cls-10" x="389.55" y="496.22" width="17" height="17"/><path class="cls-12" d="M364.55,434.59c0-14.32,10.58-25.75,23.1-25.75"/><path class="cls-8" d="M572.29,431.22v82h-9v-81a19.05,19.05,0,0,0-17-18.89,18.24,18.24,0,0,0-4,0,19.07,19.07,0,0,0-17,18.89v81h-9v-82a28,28,0,0,1,56,0Z"/><path class="cls-9" d="M542.29,413.33v18.89h-17A19.07,19.07,0,0,1,542.29,413.33Z"/><path class="cls-10" d="M563.29,432.22h-17V413.33a19.05,19.05,0,0,1,17,18.89Z"/><rect class="cls-10" x="546.29" y="436.22" width="17" height="26"/><rect class="cls-9" x="525.29" y="436.22" width="17" height="26"/><rect class="cls-9" x="525.29" y="466.22" width="17" height="26"/><rect class="cls-10" x="546.29" y="466.22" width="17" height="26"/><path class="cls-11" d="M546.29,436.22v26h17v4h-17v26h17v4h-17v17h-4v-17h-17v-4h17v-26h-17v-4h17v-26h-17v-4h17V413.33a18.24,18.24,0,0,1,4,0v18.89h17v4Z"/><rect class="cls-9" x="525.29" y="496.22" width="17" height="17"/><rect class="cls-10" x="546.29" y="496.22" width="17" height="17"/><path class="cls-12" d="M521.29,434.59c0-14.32,10.58-25.75,23.1-25.75"/><rect class="cls-8" x="330.04" y="384.38" width="689" height="4.83"/><rect class="cls-7" x="330.04" y="377.05" width="689" height="7.33"/><path class="cls-8" d="M415.74,319.22V377h-9.19V338a18.7,18.7,0,0,0-.11-2,19.05,19.05,0,0,0-16.89-16.89,18.24,18.24,0,0,0-4,0A19.08,19.08,0,0,0,368.66,336a18.7,18.7,0,0,0-.11,2v39h-9v-18.5L372.91,312h35.66A7.17,7.17,0,0,1,415.74,319.22Z"/><rect class="cls-10" x="389.55" y="340.05" width="17" height="37"/><rect class="cls-9" x="368.55" y="340.05" width="17" height="37"/><path class="cls-9" d="M385.55,319.16V336H368.66A19.08,19.08,0,0,1,385.55,319.16Z"/><path class="cls-10" d="M406.44,336H389.55V319.16A19.05,19.05,0,0,1,406.44,336Z"/><path class="cls-11" d="M406.55,338v2h-17v37h-4V340h-17v-2a18.7,18.7,0,0,1,.11-2h16.89V319.16a18.24,18.24,0,0,1,4,0V336h16.89A18.7,18.7,0,0,1,406.55,338Z"/><path class="cls-7" d="M372.91,312l-13.36,46.5V319.22a7.17,7.17,0,0,1,7.17-7.17Z"/><path class="cls-8" d="M493.88,319.22V377h-9.19V338a18.7,18.7,0,0,0-.11-2,19.05,19.05,0,0,0-16.89-16.89,18.24,18.24,0,0,0-4,0A19.08,19.08,0,0,0,446.8,336a18.7,18.7,0,0,0-.11,2v39h-9v-18.5L451.05,312h35.66A7.17,7.17,0,0,1,493.88,319.22Z"/><rect class="cls-10" x="467.69" y="340.05" width="17" height="37"/><rect class="cls-9" x="446.69" y="340.05" width="17" height="37"/><path class="cls-9" d="M463.69,319.16V336H446.8A19.08,19.08,0,0,1,463.69,319.16Z"/><path class="cls-10" d="M484.58,336H467.69V319.16A19.05,19.05,0,0,1,484.58,336Z"/><path class="cls-11" d="M484.69,338v2h-17v37h-4V340h-17v-2a18.7,18.7,0,0,1,.11-2h16.89V319.16a18.24,18.24,0,0,1,4,0V336h16.89A18.7,18.7,0,0,1,484.69,338Z"/><path class="cls-7" d="M451.05,312l-13.36,46.5V319.22a7.17,7.17,0,0,1,7.17-7.17Z"/><path class="cls-8" d="M572,319.22V377h-9.19V338a18.7,18.7,0,0,0-.11-2,19.05,19.05,0,0,0-16.89-16.89,18.24,18.24,0,0,0-4,0A19.08,19.08,0,0,0,524.95,336a18.7,18.7,0,0,0-.11,2v39h-9v-18.5L529.2,312h35.66A7.17,7.17,0,0,1,572,319.22Z"/><rect class="cls-10" x="545.84" y="340.05" width="17" height="37"/><rect class="cls-9" x="524.84" y="340.05" width="17" height="37"/><path class="cls-9" d="M541.84,319.16V336H524.95A19.08,19.08,0,0,1,541.84,319.16Z"/><path class="cls-10" d="M562.73,336H545.84V319.16A19.05,19.05,0,0,1,562.73,336Z"/><path class="cls-11" d="M562.84,338v2h-17v37h-4V340h-17v-2a18.7,18.7,0,0,1,.11-2h16.89V319.16a18.24,18.24,0,0,1,4,0V336h16.89A18.7,18.7,0,0,1,562.84,338Z"/><path class="cls-7" d="M529.2,312l-13.36,46.5V319.22A7.17,7.17,0,0,1,523,312Z"/><path class="cls-8" d="M833.9,319.22V377h-9.19V338a18.7,18.7,0,0,0-.11-2,19.05,19.05,0,0,0-16.89-16.89,18.24,18.24,0,0,0-4,0A19.08,19.08,0,0,0,786.82,336a18.7,18.7,0,0,0-.11,2v39h-9v-18.5L791.07,312h35.66A7.17,7.17,0,0,1,833.9,319.22Z"/><rect class="cls-10" x="807.71" y="340.05" width="17" height="37"/><rect class="cls-9" x="786.71" y="340.05" width="17" height="37"/><path class="cls-9" d="M803.71,319.16V336H786.82A19.08,19.08,0,0,1,803.71,319.16Z"/><path class="cls-10" d="M824.6,336H807.71V319.16A19.05,19.05,0,0,1,824.6,336Z"/><path class="cls-11" d="M824.71,338v2h-17v37h-4V340h-17v-2a18.7,18.7,0,0,1,.11-2h16.89V319.16a18.24,18.24,0,0,1,4,0V336H824.6A18.7,18.7,0,0,1,824.71,338Z"/><path class="cls-7" d="M791.07,312l-13.36,46.5V319.22a7.17,7.17,0,0,1,7.17-7.17Z"/><path class="cls-8" d="M912.13,319.22V377h-9.19V338a18.7,18.7,0,0,0-.11-2,19.05,19.05,0,0,0-16.89-16.89,18.24,18.24,0,0,0-4,0A19.08,19.08,0,0,0,865.05,336a18.7,18.7,0,0,0-.11,2v39h-9v-18.5L869.3,312H905A7.17,7.17,0,0,1,912.13,319.22Z"/><rect class="cls-10" x="885.94" y="340.05" width="17" height="37"/><rect class="cls-9" x="864.94" y="340.05" width="17" height="37"/><path class="cls-9" d="M881.94,319.16V336H865.05A19.08,19.08,0,0,1,881.94,319.16Z"/><path class="cls-10" d="M902.83,336H885.94V319.16A19.05,19.05,0,0,1,902.83,336Z"/><path class="cls-11" d="M902.94,338v2h-17v37h-4V340h-17v-2a18.7,18.7,0,0,1,.11-2h16.89V319.16a18.24,18.24,0,0,1,4,0V336h16.89A18.7,18.7,0,0,1,902.94,338Z"/><path class="cls-7" d="M869.3,312l-13.36,46.5V319.22a7.17,7.17,0,0,1,7.17-7.17Z"/><path class="cls-8" d="M990.37,319.22V377h-9.19V338a18.7,18.7,0,0,0-.11-2,19.05,19.05,0,0,0-16.89-16.89,18.24,18.24,0,0,0-4,0A19.08,19.08,0,0,0,943.29,336a18.7,18.7,0,0,0-.11,2v39h-9v-18.5L947.54,312H983.2A7.17,7.17,0,0,1,990.37,319.22Z"/><rect class="cls-10" x="964.18" y="340.05" width="17" height="37"/><rect class="cls-9" x="943.18" y="340.05" width="17" height="37"/><path class="cls-9" d="M960.18,319.16V336H943.29A19.08,19.08,0,0,1,960.18,319.16Z"/><path class="cls-10" d="M981.07,336H964.18V319.16A19.05,19.05,0,0,1,981.07,336Z"/><path class="cls-11" d="M981.18,338v2h-17v37h-4V340h-17v-2a18.7,18.7,0,0,1,.11-2h16.89V319.16a18.24,18.24,0,0,1,4,0V336h16.89A18.7,18.7,0,0,1,981.18,338Z"/><path class="cls-7" d="M947.54,312l-13.36,46.5V319.22a7.17,7.17,0,0,1,7.17-7.17Z"/><rect class="cls-13" x="551.99" y="243.05" width="7.88" height="7.17"/><rect class="cls-13" x="551.99" y="255.22" width="6.38" height="21.5"/><polygon class="cls-7" points="576.87 231.05 576.87 291.39 554.71 291.39 558.37 276.72 558.37 255.22 559.87 250.22 559.87 243.05 551.99 243.05 551.99 231.05 576.87 231.05"/><polygon class="cls-7" points="564.43 225.05 562.91 231.05 559.87 243.05 549.66 243.05 549.66 225.05 564.43 225.05"/><polygon class="cls-8" points="579.21 225.05 579.21 243.05 559.87 243.05 564.43 225.05 579.21 225.05"/><polygon class="cls-7" points="559.87 250.22 558.37 255.22 549.66 255.22 549.66 250.22 559.87 250.22"/><polygon class="cls-8" points="579.21 250.22 579.21 255.22 558.37 255.22 559.87 250.22 579.21 250.22"/><polygon class="cls-7" points="558.37 276.72 554.71 291.39 549.66 291.39 549.66 276.72 558.37 276.72"/><polygon class="cls-8" points="579.21 276.72 579.21 291.39 554.71 291.39 558.37 276.72 579.21 276.72"/><rect class="cls-5" x="564.43" y="222.47" width="10.11" height="2.58"/><rect class="cls-6" x="554.29" y="222.47" width="10.14" height="2.58"/><rect class="cls-13" x="770.36" y="243.05" width="7.88" height="7.17"/><rect class="cls-13" x="770.36" y="255.22" width="6.38" height="21.5"/><polygon class="cls-7" points="795.24 231.05 795.24 291.39 773.08 291.39 776.74 276.72 776.74 255.22 778.24 250.22 778.24 243.05 770.36 243.05 770.36 231.05 795.24 231.05"/><polygon class="cls-7" points="782.8 225.05 781.28 231.05 778.24 243.05 768.03 243.05 768.03 225.05 782.8 225.05"/><polygon class="cls-8" points="797.58 225.05 797.58 243.05 778.24 243.05 782.8 225.05 797.58 225.05"/><polygon class="cls-7" points="778.24 250.22 776.74 255.22 768.03 255.22 768.03 250.22 778.24 250.22"/><polygon class="cls-8" points="797.58 250.22 797.58 255.22 776.74 255.22 778.24 250.22 797.58 250.22"/><polygon class="cls-7" points="776.74 276.72 773.08 291.39 768.03 291.39 768.03 276.72 776.74 276.72"/><polygon class="cls-8" points="797.58 276.72 797.58 291.39 773.08 291.39 776.74 276.72 797.58 276.72"/><rect class="cls-5" x="782.8" y="222.47" width="10.11" height="2.58"/><rect class="cls-6" x="772.66" y="222.47" width="10.14" height="2.58"/><rect class="cls-8" x="354.54" y="661.22" width="640.5" height="7.33"/></g><g id="Calque_3" data-name="Calque 3"><polygon class="cls-14" points="318.04 301.4 318.04 668.55 378.87 668.55 378.87 516.22 350.04 466.22 350.04 323.22 331.04 284.97 318.04 301.4"/><polygon class="cls-14" points="1031.96 301.4 1031.96 668.55 971.13 668.55 971.13 516.22 999.96 466.22 999.96 323.22 1018.76 285.77 1031.96 301.4"/><polygon class="cls-14" points="794.6 518.47 798.95 529.09 798.95 554.72 794.27 561.22 794.27 668.55 554.34 668.55 554.34 561.22 549.66 554.72 549.66 529.09 554.02 518.47 554.02 391.39 549.66 377.05 562.84 278.05 656.04 246.63 692.57 246.63 785.77 278.05 798.95 377.05 794.6 391.39 794.6 518.47"/></g><g id="Calque_1" data-name="Calque 1"><polygon class="cls-13" points="161.48 504.22 158.6 528.22 156.04 528.22 156.04 504.22 161.48 504.22"/><polygon class="cls-13" points="170.54 365.22 170.54 365.72 162.04 495.22 155.04 495.22 155.04 365.22 170.54 365.22"/><polygon class="cls-7" points="330.04 365.22 330.04 661.22 155.04 661.22 155.04 537.22 158.54 537.22 158.54 528.72 158.6 528.22 161.48 504.22 161.54 503.72 161.75 500.22 162.04 495.22 170.54 365.72 170.54 365.22 330.04 365.22"/><polygon class="cls-7" points="174.04 355.22 170.54 361.72 170.54 365.22 155.04 365.22 150.04 362.22 150.04 355.22 174.04 355.22"/><polygon class="cls-8" points="335.04 355.22 335.04 362.22 330.04 365.22 170.54 365.22 170.54 361.72 174.04 355.22 335.04 355.22"/><polygon class="cls-13" points="174.04 352.22 174.04 355.22 150.04 355.22 146.04 352.22 174.04 352.22"/><polygon class="cls-7" points="339.04 352.22 335.04 355.22 174.04 355.22 174.04 352.22 339.04 352.22"/><path class="cls-6" d="M214,280.22l-1.5,7H185.21a7.17,7.17,0,0,0-7.17,7.17v49.33l-4,8.5H155l17.5-72Z"/><polygon class="cls-11" points="330.04 352.22 174.04 352.22 178.04 343.72 178.04 333.72 191.4 287.22 191.4 287.22 212.54 287.22 214.04 280.22 313.04 280.22 330.04 352.22"/><path class="cls-8" d="M234.23,294.39v57.83H225v-39a18.7,18.7,0,0,0-.11-2A19.05,19.05,0,0,0,208,294.33a18.24,18.24,0,0,0-4,0,19.08,19.08,0,0,0-16.89,16.89,18.7,18.7,0,0,0-.11,2v39h-9v-18.5l13.36-46.5h35.66A7.17,7.17,0,0,1,234.23,294.39Z"/><rect class="cls-10" x="208.04" y="315.22" width="17" height="37"/><rect class="cls-9" x="187.04" y="315.19" width="17" height="37"/><path class="cls-9" d="M204,294.3v16.89H187.15A19.08,19.08,0,0,1,204,294.3Z"/><path class="cls-10" d="M224.93,311.22H208V294.33a19.05,19.05,0,0,1,16.89,16.89Z"/><path class="cls-11" d="M225,313.22v2H208v37h-4v-37H187v-2a18.7,18.7,0,0,1,.11-2H204V294.33a18.24,18.24,0,0,1,4,0v16.89h16.89A18.7,18.7,0,0,1,225,313.22Z"/><path class="cls-8" d="M308.23,294.39v57.83H299v-39a18.7,18.7,0,0,0-.11-2A19.05,19.05,0,0,0,282,294.33a18.24,18.24,0,0,0-4,0,19.08,19.08,0,0,0-16.89,16.89,18.7,18.7,0,0,0-.11,2v39h-9V294.39a7.17,7.17,0,0,1,7.17-7.17h41.85A7.17,7.17,0,0,1,308.23,294.39Z"/><rect class="cls-10" x="282.04" y="315.22" width="17" height="37"/><rect class="cls-9" x="261.04" y="315.19" width="17" height="37"/><path class="cls-9" d="M278,294.3v16.89H261.15A19.08,19.08,0,0,1,278,294.3Z"/><path class="cls-10" d="M298.93,311.22H282V294.33a19.05,19.05,0,0,1,16.89,16.89Z"/><path class="cls-11" d="M299,313.22v2H282v37h-4v-37H261v-2a18.7,18.7,0,0,1,.11-2H278V294.33a18.24,18.24,0,0,1,4,0v16.89h16.89A18.7,18.7,0,0,1,299,313.22Z"/><rect class="cls-9" x="187.04" y="478.19" width="17" height="17"/><path class="cls-8" d="M234,413.22v82h-9v-81a19.05,19.05,0,0,0-17-18.89,18.24,18.24,0,0,0-4,0,19.07,19.07,0,0,0-17,18.89v81h-9v-82a28,28,0,0,1,56,0Z"/><path class="cls-9" d="M204,395.3v18.89H187A19.07,19.07,0,0,1,204,395.3Z"/><path class="cls-10" d="M225,414.22H208V395.33a19.05,19.05,0,0,1,17,18.89Z"/><rect class="cls-10" x="208.04" y="418.22" width="17" height="26"/><rect class="cls-9" x="187.04" y="418.19" width="17" height="26"/><rect class="cls-10" x="208.04" y="448.22" width="17" height="26"/><rect class="cls-9" x="187.04" y="448.19" width="17" height="26"/><rect class="cls-10" x="208.04" y="478.22" width="17" height="17"/><path class="cls-7" d="M158.54,532.22v5H155v124H330v-129Zm3.5-37-.29,5H352v-5Z"/><path class="cls-11" d="M208,418.22v26h17v4H208v26h17v4H208v17h-4v-17H187v-4h17v-26H187v-4h17v-26H187v-4h17V395.33a18.24,18.24,0,0,1,4,0v18.89h17v4Z"/><path class="cls-8" d="M234,579.22v82h-9v-81a19.05,19.05,0,0,0-17-18.89,18.24,18.24,0,0,0-4,0,19.07,19.07,0,0,0-17,18.89v81h-9v-82a28,28,0,0,1,56,0Z"/><path class="cls-9" d="M204,561.3v18.89H187A19.07,19.07,0,0,1,204,561.3Z"/><path class="cls-10" d="M225,580.22H208V561.33a19.05,19.05,0,0,1,17,18.89Z"/><rect class="cls-10" x="208.04" y="584.22" width="17" height="26"/><rect class="cls-9" x="187.04" y="584.19" width="17" height="26"/><rect class="cls-9" x="187.04" y="614.22" width="17" height="26"/><rect class="cls-10" x="208.04" y="614.22" width="17" height="26"/><path class="cls-11" d="M208,584.22v26h17v4H208v26h17v4H208v17h-4v-17H187v-4h17v-26H187v-4h17v-26H187v-4h17V561.33a18.24,18.24,0,0,1,4,0v18.89h17v4Z"/><rect class="cls-9" x="261.04" y="478.22" width="17" height="17"/><path class="cls-8" d="M308,413.22v82h-9v-81a19.05,19.05,0,0,0-17-18.89,18.24,18.24,0,0,0-4,0,19.07,19.07,0,0,0-17,18.89v81h-9v-82a28,28,0,0,1,56,0Z"/><path class="cls-9" d="M278,395.33v18.89H261A19.07,19.07,0,0,1,278,395.33Z"/><path class="cls-10" d="M299,414.22H282V395.33a19.05,19.05,0,0,1,17,18.89Z"/><rect class="cls-10" x="282.04" y="418.22" width="17" height="26"/><rect class="cls-9" x="261.04" y="418.22" width="17" height="26"/><rect class="cls-10" x="282.04" y="448.22" width="17" height="26"/><rect class="cls-9" x="261.04" y="448.22" width="17" height="26"/><rect class="cls-10" x="282.04" y="478.22" width="17" height="17"/><path class="cls-11" d="M282,418.22v26h17v4H282v26h17v4H282v17h-4v-17H261v-4h17v-26H261v-4h17v-26H261v-4h17V395.33a18.24,18.24,0,0,1,4,0v18.89h17v4Z"/><rect class="cls-9" x="261.04" y="644.22" width="17" height="17"/><path class="cls-8" d="M308,579.22v82h-9v-81a19.05,19.05,0,0,0-17-18.89,18.24,18.24,0,0,0-4,0,19.07,19.07,0,0,0-17,18.89v81h-9v-82a28,28,0,0,1,56,0Z"/><path class="cls-9" d="M278,561.33v18.89H261A19.07,19.07,0,0,1,278,561.33Z"/><path class="cls-10" d="M299,580.22H282V561.33a19.05,19.05,0,0,1,17,18.89Z"/><rect class="cls-10" x="282.04" y="584.22" width="17" height="26"/><rect class="cls-9" x="261.04" y="584.22" width="17" height="26"/><rect class="cls-10" x="282.04" y="614.22" width="17" height="26"/><rect class="cls-9" x="261.04" y="614.22" width="17" height="26"/><rect class="cls-10" x="282.04" y="644.22" width="17" height="17"/><path class="cls-11" d="M282,584.22v26h17v4H282v26h17v4H282v17h-4v-17H261v-4h17v-26H261v-4h17v-26H261v-4h17V561.33a18.24,18.24,0,0,1,4,0v18.89h17v4Z"/><path class="cls-8" d="M350,504.22v-4H161.75l-.21,3.5-.06.5H162v24H158.6l-.06.5v3.5H350v-4h-2v-24Zm-176,24h-6v-24h6Zm12,0h-6v-24h6Zm12,0h-6v-24h6Zm12,0h-6v-24h6Zm12,0h-6v-24h6Zm12,0h-6v-24h6Zm12,0h-6v-24h6Zm12,0h-6v-24h6Zm12,0h-6v-24h6Zm12,0h-6v-24h6Zm12,0h-6v-24h6Zm12,0h-6v-24h6Zm12,0h-6v-24h6Zm12,0h-6v-24h6Zm12,0h-6v-24h6Z"/><polygon class="cls-7" points="162.04 495.22 161.75 500.22 134.04 500.22 134.04 495.22 162.04 495.22"/><polygon class="cls-8" points="352.04 495.22 352.04 500.22 161.75 500.22 162.04 495.22 352.04 495.22"/><rect class="cls-8" x="158.54" y="532.22" width="193.5" height="5"/><rect class="cls-9" x="187.04" y="644.22" width="17" height="17"/><rect class="cls-10" x="208.04" y="644.22" width="17" height="17"/><polygon class="cls-8" points="355.04 661.22 355.04 680.22 131.04 680.22 131.04 661.22 134.04 661.22 134.04 637.72 155.04 588.72 155.04 661.22 330.04 661.22 330.04 532.22 352.04 532.22 352.04 661.22 355.04 661.22"/><path class="cls-7" d="M136,500.22v4h2v24h-2v4h-2v105.5l21-49v-51.5h3.5v-8.5l.06-.5H156v-24h5.44l.06-.5.21-3.5Zm14,28h-6v-24h6Z"/><polygon class="cls-13" points="158.54 537.22 155.04 588.72 155.04 537.22 158.54 537.22"/><path class="cls-7" d="M191.4,287.22,178,333.72V294.39a7.17,7.17,0,0,1,7.17-7.17Z"/><path class="cls-12" d="M183,415.22c0-14.32,10.58-25.75,23.1-25.75"/><path class="cls-12" d="M257,415.22c0-14.32,10.58-25.75,23.1-25.75"/><path class="cls-12" d="M183,582.59c0-14.32,10.58-25.75,23.1-25.75"/><path class="cls-12" d="M257,582.59c0-14.32,10.58-25.75,23.1-25.75"/><rect class="cls-11" x="178.04" y="275.97" width="128.25" height="4.25"/><rect class="cls-6" x="178.04" y="275.97" width="36" height="4.25"/><polygon class="cls-13" points="1025.48 504.22 1022.6 528.22 1020.04 528.22 1020.04 504.22 1025.48 504.22"/><polygon class="cls-13" points="1034.54 365.22 1034.54 365.72 1026.04 495.22 1019.04 495.22 1019.04 365.22 1034.54 365.22"/><polygon class="cls-7" points="1194.04 365.22 1194.04 661.22 1019.04 661.22 1019.04 537.22 1022.54 537.22 1022.54 528.72 1022.6 528.22 1025.48 504.22 1025.54 503.72 1025.75 500.22 1026.04 495.22 1034.54 365.72 1034.54 365.22 1194.04 365.22"/><polygon class="cls-7" points="1038.04 355.22 1034.54 361.72 1034.54 365.22 1019.04 365.22 1014.04 362.22 1014.04 355.22 1038.04 355.22"/><polygon class="cls-8" points="1199.04 355.22 1199.04 362.22 1194.04 365.22 1034.54 365.22 1034.54 361.72 1038.04 355.22 1199.04 355.22"/><polygon class="cls-13" points="1038.04 352.22 1038.04 355.22 1014.04 355.22 1010.04 352.22 1038.04 352.22"/><polygon class="cls-7" points="1203.04 352.22 1199.04 355.22 1038.04 355.22 1038.04 352.22 1203.04 352.22"/><path class="cls-6" d="M1078,280.22l-1.5,7h-27.33a7.17,7.17,0,0,0-7.17,7.17v49.33l-4,8.5h-19l17.5-72Z"/><polygon class="cls-11" points="1194.04 352.22 1038.04 352.22 1042.04 343.72 1042.04 333.72 1055.4 287.22 1055.4 287.22 1076.54 287.22 1078.04 280.22 1177.04 280.22 1194.04 352.22"/><path class="cls-8" d="M1098.23,294.39v57.83H1089v-39a18.7,18.7,0,0,0-.11-2A19.05,19.05,0,0,0,1072,294.33a18.24,18.24,0,0,0-4,0,19.08,19.08,0,0,0-16.89,16.89,18.7,18.7,0,0,0-.11,2v39h-9v-18.5l13.36-46.5h35.66A7.17,7.17,0,0,1,1098.23,294.39Z"/><rect class="cls-10" x="1072.04" y="315.22" width="17" height="37"/><rect class="cls-9" x="1051.04" y="315.19" width="17" height="37"/><path class="cls-9" d="M1068,294.3v16.89h-16.89A19.08,19.08,0,0,1,1068,294.3Z"/><path class="cls-10" d="M1088.93,311.22H1072V294.33a19.05,19.05,0,0,1,16.89,16.89Z"/><path class="cls-11" d="M1089,313.22v2h-17v37h-4v-37h-17v-2a18.7,18.7,0,0,1,.11-2H1068V294.33a18.24,18.24,0,0,1,4,0v16.89h16.89A18.7,18.7,0,0,1,1089,313.22Z"/><path class="cls-8" d="M1172.23,294.39v57.83H1163v-39a18.7,18.7,0,0,0-.11-2A19.05,19.05,0,0,0,1146,294.33a18.24,18.24,0,0,0-4,0,19.08,19.08,0,0,0-16.89,16.89,18.7,18.7,0,0,0-.11,2v39h-9V294.39a7.17,7.17,0,0,1,7.17-7.17h41.85A7.17,7.17,0,0,1,1172.23,294.39Z"/><rect class="cls-10" x="1146.04" y="315.22" width="17" height="37"/><rect class="cls-9" x="1125.04" y="315.19" width="17" height="37"/><path class="cls-9" d="M1142,294.3v16.89h-16.89A19.08,19.08,0,0,1,1142,294.3Z"/><path class="cls-10" d="M1162.93,311.22H1146V294.33a19.05,19.05,0,0,1,16.89,16.89Z"/><path class="cls-11" d="M1163,313.22v2h-17v37h-4v-37h-17v-2a18.7,18.7,0,0,1,.11-2H1142V294.33a18.24,18.24,0,0,1,4,0v16.89h16.89A18.7,18.7,0,0,1,1163,313.22Z"/><rect class="cls-9" x="1051.04" y="478.19" width="17" height="17"/><path class="cls-8" d="M1098,413.22v82h-9v-81a19.05,19.05,0,0,0-17-18.89,18.24,18.24,0,0,0-4,0,19.07,19.07,0,0,0-17,18.89v81h-9v-82a28,28,0,0,1,56,0Z"/><path class="cls-9" d="M1068,395.3v18.89h-17A19.07,19.07,0,0,1,1068,395.3Z"/><path class="cls-10" d="M1089,414.22h-17V395.33a19.05,19.05,0,0,1,17,18.89Z"/><rect class="cls-10" x="1072.04" y="418.22" width="17" height="26"/><rect class="cls-9" x="1051.04" y="418.19" width="17" height="26"/><rect class="cls-10" x="1072.04" y="448.22" width="17" height="26"/><rect class="cls-9" x="1051.04" y="448.19" width="17" height="26"/><rect class="cls-10" x="1072.04" y="478.22" width="17" height="17"/><path class="cls-7" d="M1022.54,532.22v5H1019v124h175v-129Zm3.5-37-.29,5H1216v-5Z"/><path class="cls-11" d="M1072,418.22v26h17v4h-17v26h17v4h-17v17h-4v-17h-17v-4h17v-26h-17v-4h17v-26h-17v-4h17V395.33a18.24,18.24,0,0,1,4,0v18.89h17v4Z"/><path class="cls-8" d="M1098,579.22v82h-9v-81a19.05,19.05,0,0,0-17-18.89,18.24,18.24,0,0,0-4,0,19.07,19.07,0,0,0-17,18.89v81h-9v-82a28,28,0,0,1,56,0Z"/><path class="cls-9" d="M1068,561.3v18.89h-17A19.07,19.07,0,0,1,1068,561.3Z"/><path class="cls-10" d="M1089,580.22h-17V561.33a19.05,19.05,0,0,1,17,18.89Z"/><rect class="cls-10" x="1072.04" y="584.22" width="17" height="26"/><rect class="cls-9" x="1051.04" y="584.19" width="17" height="26"/><rect class="cls-9" x="1051.04" y="614.19" width="17" height="26"/><rect class="cls-10" x="1072.04" y="614.22" width="17" height="26"/><path class="cls-11" d="M1072,584.22v26h17v4h-17v26h17v4h-17v17h-4v-17h-17v-4h17v-26h-17v-4h17v-26h-17v-4h17V561.33a18.24,18.24,0,0,1,4,0v18.89h17v4Z"/><rect class="cls-9" x="1125.04" y="478.19" width="17" height="17"/><path class="cls-8" d="M1172,413.22v82h-9v-81a19.05,19.05,0,0,0-17-18.89,18.24,18.24,0,0,0-4,0,19.07,19.07,0,0,0-17,18.89v81h-9v-82a28,28,0,0,1,56,0Z"/><path class="cls-9" d="M1142,395.3v18.89h-17A19.07,19.07,0,0,1,1142,395.3Z"/><path class="cls-10" d="M1163,414.22h-17V395.33a19.05,19.05,0,0,1,17,18.89Z"/><rect class="cls-10" x="1146.04" y="418.22" width="17" height="26"/><rect class="cls-9" x="1125.04" y="418.19" width="17" height="26"/><rect class="cls-10" x="1146.04" y="448.22" width="17" height="26"/><rect class="cls-9" x="1125.04" y="448.19" width="17" height="26"/><rect class="cls-10" x="1146.04" y="478.22" width="17" height="17"/><path class="cls-11" d="M1146,418.22v26h17v4h-17v26h17v4h-17v17h-4v-17h-17v-4h17v-26h-17v-4h17v-26h-17v-4h17V395.33a18.24,18.24,0,0,1,4,0v18.89h17v4Z"/><rect class="cls-9" x="1125.04" y="644.19" width="17" height="17"/><path class="cls-8" d="M1172,579.22v82h-9v-81a19.05,19.05,0,0,0-17-18.89,18.24,18.24,0,0,0-4,0,19.07,19.07,0,0,0-17,18.89v81h-9v-82a28,28,0,0,1,56,0Z"/><path class="cls-9" d="M1142,561.3v18.89h-17A19.07,19.07,0,0,1,1142,561.3Z"/><path class="cls-10" d="M1163,580.22h-17V561.33a19.05,19.05,0,0,1,17,18.89Z"/><rect class="cls-10" x="1146.04" y="584.22" width="17" height="26"/><rect class="cls-9" x="1125.04" y="584.19" width="17" height="26"/><rect class="cls-10" x="1146.04" y="614.22" width="17" height="26"/><rect class="cls-9" x="1125.04" y="614.19" width="17" height="26"/><rect class="cls-10" x="1146.04" y="644.22" width="17" height="17"/><path class="cls-11" d="M1146,584.22v26h17v4h-17v26h17v4h-17v17h-4v-17h-17v-4h17v-26h-17v-4h17v-26h-17v-4h17V561.33a18.24,18.24,0,0,1,4,0v18.89h17v4Z"/><path class="cls-8" d="M1214,504.22v-4H1025.75l-.21,3.5-.06.5h.56v24h-3.44l-.06.5v3.5H1214v-4h-2v-24Zm-176,24h-6v-24h6Zm12,0h-6v-24h6Zm12,0h-6v-24h6Zm12,0h-6v-24h6Zm12,0h-6v-24h6Zm12,0h-6v-24h6Zm12,0h-6v-24h6Zm12,0h-6v-24h6Zm12,0h-6v-24h6Zm12,0h-6v-24h6Zm12,0h-6v-24h6Zm12,0h-6v-24h6Zm12,0h-6v-24h6Zm12,0h-6v-24h6Zm12,0h-6v-24h6Z"/><polygon class="cls-7" points="1026.04 495.22 1025.75 500.22 998.04 500.22 998.04 495.22 1026.04 495.22"/><polygon class="cls-8" points="1216.04 495.22 1216.04 500.22 1025.75 500.22 1026.04 495.22 1216.04 495.22"/><rect class="cls-8" x="1022.54" y="532.22" width="193.5" height="5"/><rect class="cls-9" x="1051.04" y="644.19" width="17" height="17"/><rect class="cls-10" x="1072.04" y="644.22" width="17" height="17"/><polygon class="cls-8" points="1219.04 661.22 1219.04 680.22 995.04 680.22 995.04 661.22 998.04 661.22 998.04 637.72 1019.04 588.72 1019.04 661.22 1194.04 661.22 1194.04 532.22 1216.04 532.22 1216.04 661.22 1219.04 661.22"/><path class="cls-7" d="M1000,500.22v4h2v24h-2v4h-2v105.5l21-49v-51.5h3.5v-8.5l.06-.5H1020v-24h5.44l.06-.5.21-3.5Zm14,28h-6v-24h6Z"/><polygon class="cls-13" points="1022.54 537.22 1019.04 588.72 1019.04 537.22 1022.54 537.22"/><path class="cls-7" d="M1055.4,287.22,1042,333.72V294.39a7.17,7.17,0,0,1,7.17-7.17Z"/><path class="cls-12" d="M1047,415.22c0-14.32,10.58-25.75,23.1-25.75"/><path class="cls-12" d="M1121,415.22c0-14.32,10.58-25.75,23.1-25.75"/><path class="cls-12" d="M1047,582.59c0-14.32,10.58-25.75,23.1-25.75"/><path class="cls-12" d="M1121,582.59c0-14.32,10.58-25.75,23.1-25.75"/><rect class="cls-11" x="1042.04" y="275.97" width="128.25" height="4.25"/><rect class="cls-6" x="1042.04" y="275.97" width="36" height="4.25"/></g><g id="Calque_4" data-name="Calque 4"><polygon class="cls-7" points="768.54 384.53 768.54 392.84 752.54 392.84 752.54 392.91 717.62 392.91 717.62 392.84 701.62 392.84 701.62 392.91 648.42 392.91 648.42 392.84 632.42 392.84 632.42 392.91 596.99 392.91 596.99 392.84 580.99 392.84 580.99 384.53 768.54 384.53"/><polygon class="cls-8" points="747.04 572.89 745.79 668.55 744.21 668.55 744.21 680.22 715.87 680.22 715.87 668.55 714.29 668.55 713.19 572.89 697.04 572.89 695.79 668.55 694.21 668.55 694.21 680.22 655.87 680.22 655.87 668.55 654.29 668.55 653.19 572.89 637.04 572.89 635.79 668.55 634.21 668.55 634.21 680.22 605.87 680.22 605.87 668.55 604.29 668.55 603.19 572.89 605.87 572.89 605.87 561.22 744.21 561.22 744.21 572.89 747.04 572.89"/><polygon class="cls-15" points="747.04 572.89 745.79 668.55 744.21 668.55 744.21 680.22 715.87 680.22 715.87 668.55 714.29 668.55 713.19 572.89 697.04 572.89 695.79 668.55 694.21 668.55 694.21 680.22 655.87 680.22 655.87 668.55 654.29 668.55 653.19 572.89 637.04 572.89 635.79 668.55 634.21 668.55 634.21 680.22 605.87 680.22 605.87 668.55 604.29 668.55 603.19 572.89 605.87 572.89 605.87 561.22 744.21 561.22 744.21 572.89 747.04 572.89"/><path class="cls-8" d="M632.42,408.84V392.91H597v15.93H582.27v95.88H597v16h35.43v-16h1.28V408.84Zm-5.85,86.36H602.83v-74h23.74Z"/><path class="cls-8" d="M702.9,435.87v-27h-1.28V392.91h-53.2v15.93h-1.29v27.68c-.06.69-.09,1.38-.09,2.08v66.12h1.38v16h53.2v-16H703V438.6A24.7,24.7,0,0,0,702.9,435.87ZM655,399.39h39V404h-3v2.29H658V404h-3Z"/><path class="cls-8" d="M752.54,408.84V392.91H717.62v15.93h-1.28v95.88h1.28v16h34.92v-16h1.28V408.84Zm-5.59,86.36H723.21v-74h23.74Z"/><polygon class="cls-13" points="596.29 532.3 590.16 537.22 576.4 537.22 576.4 532.3 596.29 532.3"/><polygon class="cls-16" points="773.12 532.3 773.12 537.22 590.16 537.22 596.29 532.3 773.12 532.3"/><rect class="cls-7" x="578.87" y="529.09" width="17.42" height="3.21"/><rect class="cls-8" x="596.29" y="529.09" width="174.36" height="3.21"/><rect class="cls-7" x="578.87" y="537.22" width="11.29" height="2.29"/><rect class="cls-8" x="590.16" y="537.22" width="180.49" height="2.29"/><polygon class="cls-8" points="771.94 374.47 771.94 380.72 768.34 384.39 580.99 384.39 577.54 380.72 577.54 374.47 771.94 374.47"/><rect class="cls-8" x="574.92" y="371.47" width="199.65" height="3"/><polygon class="cls-8" points="771.94 371.47 761.04 371.47 674.76 319.05 588.54 371.47 577.54 371.47 674.54 312.05 771.94 371.47"/><polygon class="cls-7" points="761.04 371.47 588.54 371.47 674.76 319.05 761.04 371.47"/><path class="cls-8" d="M674.74,331.16A17.24,17.24,0,1,0,692,348.4,17.24,17.24,0,0,0,674.74,331.16Zm0,32.57a15.33,15.33,0,1,1,15.33-15.33A15.33,15.33,0,0,1,674.74,363.73Z"/><path class="cls-7" d="M674.74,333.07a15.33,15.33,0,1,0,15.33,15.33A15.34,15.34,0,0,0,674.74,333.07Zm0,25a9.67,9.67,0,1,1,9.67-9.67A9.67,9.67,0,0,1,674.74,358.07Z"/><circle class="cls-8" cx="674.74" cy="348.4" r="9.67"/><polygon class="cls-6" points="774.57 371.47 771.94 371.47 674.54 312.05 577.54 371.47 574.92 371.47 674.54 309.72 774.57 371.47"/><polygon class="cls-5" points="774.57 371.47 674.54 309.72 574.92 371.47 584.92 291.39 764.57 291.39 774.57 371.47"/><rect class="cls-5" x="584.92" y="288.8" width="179.37" height="2.59"/><polygon class="cls-5" points="764.29 288.8 584.92 288.8 654.92 251.72 694.29 251.72 764.29 288.8"/><polygon class="cls-17" points="690.54 251.72 657.92 251.72 664.92 246.72 683.54 246.72 690.54 251.72"/><path class="cls-17" d="M675.66,166.3v63.91a3.59,3.59,0,0,0-2.12,0V166.3a1.06,1.06,0,0,1,2.12,0Z"/><path class="cls-17" d="M678.29,233.74v11.79a3.35,3.35,0,0,1-.21,1.19h-6.95a3.35,3.35,0,0,1-.21-1.19V233.74a3.69,3.69,0,0,1,2.62-3.53,3.59,3.59,0,0,1,2.12,0,3.6,3.6,0,0,1,1.55.92A3.67,3.67,0,0,1,678.29,233.74Z"/><path class="cls-18" d="M699,167.74v45.19c-7.25-2.08-17.35-1.21-23.37,3.24V171C681.68,166.52,691.78,165.65,699,167.74Z"/><path class="cls-19" d="M717.58,178.13v45.2c-5-.58-9.16-2.16-10.54-4.91-1.28-2.55-4.26-4.41-8-5.49V167.74c3.75,1.07,6.73,2.93,8,5.48C708.42,176,712.6,177.55,717.58,178.13Z"/><path class="cls-20" d="M740.29,173.22v45.2c-3.16,3.95-14.13,5.91-22.71,4.91v-45.2C726.16,179.13,737.13,177.17,740.29,173.22Z"/><polygon class="cls-7" points="768.54 539.51 768.54 561.22 580.99 561.22 580.99 557.6 590.16 539.51 768.54 539.51"/><rect class="cls-8" x="634.21" y="561.22" width="21.66" height="11.67"/><rect class="cls-8" x="634.21" y="668.55" width="21.66" height="11.67"/><polygon class="cls-7" points="654.29 668.55 635.79 668.55 637.04 572.89 653.19 572.89 654.29 668.55"/><rect class="cls-8" x="694.21" y="561.22" width="21.66" height="11.67"/><rect class="cls-8" x="694.21" y="668.55" width="21.66" height="11.67"/><polygon class="cls-7" points="714.29 668.55 695.79 668.55 697.04 572.89 713.19 572.89 714.29 668.55"/><rect class="cls-8" x="744.21" y="561.22" width="21.66" height="11.67"/><rect class="cls-8" x="744.21" y="668.55" width="21.66" height="11.67"/><polygon class="cls-7" points="764.29 668.55 745.79 668.55 747.04 572.89 763.19 572.89 764.29 668.55"/><rect class="cls-8" x="584.21" y="561.22" width="21.66" height="11.67"/><rect class="cls-8" x="584.21" y="668.55" width="21.66" height="11.67"/><polygon class="cls-7" points="604.29 668.55 585.79 668.55 587.04 572.89 603.19 572.89 604.29 668.55"/><rect class="cls-7" x="566.51" y="680.22" width="216.51" height="2.4"/><rect class="cls-7" x="559.01" y="682.62" width="231.52" height="2.4"/><rect class="cls-7" x="550.98" y="685.02" width="247.57" height="2.4"/><rect class="cls-7" x="542.39" y="687.42" width="264.73" height="2.4"/><rect class="cls-7" x="533.23" y="689.82" width="283.07" height="2.4"/><path class="cls-8" d="M703,438.6v66.12h-1.42V520.6H694v-81a19.05,19.05,0,0,0-17-18.9,20.05,20.05,0,0,0-4,0,19.07,19.07,0,0,0-17,18.9v81h-7.62V504.72H647V438.6c0-.7,0-1.39.09-2.08a28,28,0,0,1,55.77-.65A24.7,24.7,0,0,1,703,438.6Z"/><path class="cls-9" d="M673,420.7v18.89H656A19.07,19.07,0,0,1,673,420.7Z"/><path class="cls-10" d="M694,439.59H677V420.7a19.05,19.05,0,0,1,17,18.89Z"/><rect class="cls-10" x="677.04" y="443.59" width="17" height="26"/><rect class="cls-9" x="656.04" y="443.59" width="17" height="26"/><rect class="cls-9" x="656.04" y="473.59" width="17" height="26"/><rect class="cls-10" x="677.04" y="473.59" width="17" height="26"/><path class="cls-11" d="M677,443.59v26h17v4H677v26h17v4H677v17h-4v-17H656v-4h17v-26H656v-4h17v-26H656v-4h17V420.7a18.24,18.24,0,0,1,4,0v18.89h17v4Z"/><rect class="cls-9" x="656.04" y="503.59" width="17" height="17"/><rect class="cls-10" x="677.04" y="503.59" width="17" height="17"/><path class="cls-12" d="M652,442c0-14.32,10.58-25.75,23.1-25.75"/><rect class="cls-7" x="580.99" y="520.72" width="187.55" height="8.37"/><rect class="cls-7" x="580.99" y="504.72" width="16" height="16"/><rect class="cls-7" x="580.99" y="392.91" width="16" height="15.93"/><rect class="cls-7" x="752.54" y="504.72" width="16" height="16"/><rect class="cls-7" x="752.54" y="392.91" width="16" height="15.93"/><rect class="cls-7" x="582.27" y="408.84" width="13.44" height="95.88"/><rect class="cls-7" x="753.82" y="408.84" width="13.44" height="95.88"/><rect class="cls-7" x="701.62" y="504.72" width="16" height="16"/><rect class="cls-7" x="701.62" y="392.91" width="16" height="15.93"/><path class="cls-7" d="M716.34,408.84v95.88H703V438.6a24.7,24.7,0,0,0-.14-2.73v-27Z"/><rect class="cls-7" x="632.42" y="504.72" width="16" height="16"/><rect class="cls-7" x="632.42" y="392.91" width="16" height="15.93"/><path class="cls-7" d="M647.13,408.84v27.68c-.06.69-.09,1.38-.09,2.08v66.12H633.7V408.84Z"/><rect class="cls-7" x="655.04" y="399.39" width="39" height="4.58"/><rect class="cls-7" x="658.04" y="403.97" width="33" height="2.29"/><path class="cls-7" d="M723.21,421.24v74h23.74v-74Zm16,57.35a4.13,4.13,0,1,1-8.26,0V437.85a4.13,4.13,0,0,1,8.26,0Z"/><path class="cls-7" d="M602.83,421.24v74h23.74v-74Zm16,57.35a4.13,4.13,0,1,1-8.26,0V437.85a4.13,4.13,0,0,1,8.26,0Z"/><path class="cls-8" d="M739.21,437.85v40.74a4.13,4.13,0,1,1-8.26,0V437.85a4.13,4.13,0,0,1,8.26,0Z"/><path class="cls-8" d="M618.83,437.85v40.74a4.13,4.13,0,1,1-8.26,0V437.85a4.13,4.13,0,0,1,8.26,0Z"/><polygon class="cls-13" points="595.71 408.84 582.27 408.84 582.27 504.72 584.66 504.72 588.41 412.59 595.71 410.6 595.71 408.84"/><polygon class="cls-13" points="647.14 408.84 633.7 408.84 633.7 504.72 636.1 504.72 639.85 412.59 647.14 410.6 647.14 408.84"/><polygon class="cls-13" points="716.34 408.84 702.9 408.84 702.9 504.72 705.29 504.72 709.04 412.59 716.34 410.6 716.34 408.84"/><polygon class="cls-13" points="767.26 408.84 753.82 408.84 753.82 504.72 756.22 504.72 759.97 412.59 767.26 410.6 767.26 408.84"/><polygon class="cls-13" points="759.26 572.67 747.04 572.78 745.82 668.55 748.22 668.55 751.97 576.42 759.26 574.43 759.26 572.67"/><polygon class="cls-13" points="709.29 572.67 697.07 572.78 695.85 668.55 698.24 668.55 701.99 576.42 709.29 574.43 709.29 572.67"/><polygon class="cls-13" points="649.23 572.67 637.01 572.78 635.79 668.55 638.18 668.55 641.93 576.42 649.23 574.43 649.23 572.67"/><polygon class="cls-13" points="599.23 572.67 587.01 572.78 585.79 668.55 588.18 668.55 591.93 576.42 599.23 574.43 599.23 572.67"/><polygon class="cls-6" points="673.54 251.72 609.21 288.8 609.21 291.39 588.99 362.75 574.92 371.47 584.92 291.39 584.92 288.8 654.92 251.72 673.54 251.72"/><polygon class="cls-13" points="580.99 408.84 594.66 392.91 594.66 384.53 580.99 384.39 580.99 408.84"/><polygon class="cls-13" points="632.42 408.84 646.1 392.91 646.1 384.53 632.42 384.39 632.42 408.84"/><polygon class="cls-13" points="701.62 408.84 715.29 392.91 715.29 384.53 701.62 384.39 701.62 408.84"/><polygon class="cls-13" points="752.54 408.84 766.22 392.91 766.22 384.53 752.54 384.39 752.54 408.84"/><polygon class="cls-13" points="674.76 319.05 618.54 371.47 588.54 371.47 674.76 319.05"/><polygon class="cls-7" points="674.54 312.05 577.54 371.47 584.21 371.47 674.54 312.05"/><polygon class="cls-7" points="584.21 371.47 584.21 374.47 580.99 380.72 580.99 384.53 577.54 380.72 577.54 374.47 574.92 374.47 574.92 371.47 584.21 371.47"/><polygon class="cls-13" points="590.16 539.51 580.99 557.6 580.99 539.51 590.16 539.51"/><polygon class="cls-13" points="580.99 529.09 580.99 520.72 596.29 529.09 580.99 529.09"/></g><g id="Calque_6" data-name="Calque 6"><polygon class="cls-21" points="921.5 768 429.21 768 647.54 692.22 647.54 689.82 650.21 689.82 650.21 687.42 653.12 687.42 653.12 685.02 655.87 685.02 655.87 682.62 658.29 682.62 658.29 680.22 692.05 680.22 692.05 682.62 694.47 682.62 694.47 685.02 697.22 685.02 697.22 687.42 700.13 687.42 700.13 689.82 702.8 689.82 702.8 692.22 921.5 768"/><polygon class="cls-22" points="658.29 682.62 679.73 682.62 658.29 681.9 658.29 682.62"/><polyline class="cls-22" points="655.87 684.3 655.87 685.02 678.31 685.02"/><polyline class="cls-22" points="653.11 686.7 653.11 687.42 676.55 687.42"/><polyline class="cls-22" points="650.2 689.1 650.2 689.82 674.64 689.82"/><polyline class="cls-22" points="647.53 691.5 647.53 692.22 672.97 692.22"/></g><g id="Calque_7" data-name="Calque 7"><rect class="cls-23" width="1366" height="768"/></g></svg>