<svg id="Calque_1" data-name="Calque 1" xmlns="http://www.w3.org/2000/svg" viewBox="0 0 163.01 262.07">
  <defs>
    <style>
      .cls-1 {
        fill: #e86f3a;
      }

      .cls-2 {
        fill: #f4c9ab;
      }

      .cls-3 {
        fill: #e5b593;
      }

      .cls-4 {
        fill: #fffffd;
      }

      .cls-5 {
        fill: #121221;
      }

      .cls-6 {
        fill: #1e1515;
      }

      .cls-7 {
        fill: #050505;
      }

      .cls-8 {
        fill: #fca14f;
      }

      .cls-9 {
        fill: #edede6;
      }

      .cls-10 {
        fill: #13132d;
      }

      .cls-11 {
        fill: #060626;
      }

      .cls-12 {
        fill: #0f0f0f;
      }

      .cls-13 {
        fill: #fa2;
      }

      .cls-14 {
        fill: #060607;
      }

      .cls-15 {
        fill: #a5411e;
      }

      .cls-16 {
        fill: #e5e5e5;
      }

      .cls-17 {
        fill: #230909;
      }

      .cls-18 {
        fill: #161414;
      }
    </style>
  </defs>
  <title>fillon</title>
  <rect class="cls-1" x="136.25" y="135.24" width="43.99" height="8.8" transform="translate(-61.62 193.38) rotate(-57.43)"/>
  <circle class="cls-2" cx="154.93" cy="112.8" r="8.08"/>
  <path class="cls-3" d="M161.75,118.24h0a1.73,1.73,0,0,0,.07.21h0c.62,1.55,3.23,3.77,3.8,3.53s1.71-2.55,1.56-4.61h0a1.48,1.48,0,0,0,0-.21.83.83,0,0,0-.05-.35.24.24,0,0,0,0-.08,2.52,2.52,0,0,0-.07-.26.09.09,0,0,0,0-.05h0a2.78,2.78,0,1,0-5.26,1.81Z" transform="translate(-17 -4.45)"/>
  <rect class="cls-1" x="34.36" y="117.64" width="8.8" height="43.99" transform="matrix(0.84, -0.54, 0.54, 0.84, -86.07, 38.38)"/>
  <path class="cls-1" d="M130,262.52a109.19,109.19,0,0,1-30.86,4c-11.23,0-21.71-1.25-30.85-4,9.38-11.2,10.91-30.7,10.91-30.7H93.67a2,2,0,0,0,1.73,1.11h8.54a2,2,0,0,0,1.76-1.13h16q.7,3.6,1.55,7.22c.1.47.21.93.32,1.39.69,2.93,1.44,5.87,2.26,8.79.31,1.11.63,2.21,1,3.31s.61,2,.92,3c.45,1.44.93,2.87,1.42,4.3A23.06,23.06,0,0,0,130,262.52Z" transform="translate(-17 -4.45)"/>
  <path class="cls-4" d="M99.14,231.82h6.53a2,2,0,0,1-1.76,1.13H99.1Z" transform="translate(-17 -4.45)"/>
  <path class="cls-4" d="M105.67,223.57H99.14v-1.12h4.8A1.94,1.94,0,0,1,105.67,223.57Z" transform="translate(-17 -4.45)"/>
  <polygon class="cls-4" points="87.48 162.97 89.78 204.12 82.14 210.62 82.14 162.97 87.48 162.97"/>
  <path class="cls-4" d="M163.95,220.15v2.3a9.31,9.31,0,0,1-.1,1.67,17.52,17.52,0,0,1-.18,2.06l-.09.74a6.69,6.69,0,0,1-.14,1l-.15.93c-.21,1.24-.47,2.43-.78,3.6-.09.4-.2.79-.32,1.18a1.56,1.56,0,0,1-.1.37c-.12.39-.24.77-.38,1.15a1.44,1.44,0,0,1-.14.43,5.55,5.55,0,0,1-.21.57c-.13.4-.28.79-.44,1.17s-.39,1-.61,1.42a30.89,30.89,0,0,1-1.41,2.82c-.13.25-.26.49-.41.73s-.43.73-.66,1.09l-.15.24c-.26.42-.54.83-.83,1.23-.09.14-.18.27-.28.4s-.38.53-.58.78l-.4.53-1,1.24c-.32.4-.66.75-1,1.12l-.11.12c-.38.4-.76.79-1.15,1.17-.69.68-1.42,1.34-2.17,2-.25.22-.5.43-.76.63l-.15.13a16.37,16.37,0,0,1-1.36,1c-.3.23-.61.45-.93.67s-.66.46-1,.68l-.72.47c-1,.64-2,1.24-3.08,1.81-.31.17-.62.34-.94.5l-.83.42-1.3.62-1.18.53-1,.43a69.49,69.49,0,0,1-6.83,2.42c-.32-.89-.64-1.78-.94-2.68-.49-1.43-1-2.86-1.42-4.3-.31-1-.62-2-.92-3s-.65-2.2-1-3.31c-.82-2.92-1.57-5.86-2.26-8.79-.11-.46-.22-.92-.32-1.39q-.84-3.61-1.55-7.22c-.3-1.51-.59-3-.85-4.51-.2-1.11-.39-2.21-.58-3.31a3,3,0,0,0-.07-.43c-.11-.65-.21-1.29-.32-1.93-.2-1.31-.4-2.61-.58-3.9-.06-.35-.11-.71-.16-1.06h0c-.32-2.22-.6-4.4-.86-6.55q-.11-.78-.18-1.56c-.09-.7-.16-1.39-.23-2.07-.06-.5-.11-1-.16-1.51-.15-1.4-.29-2.78-.41-4.14-.11-1.1-.2-2.18-.29-3.25l-.06-.76c-.05-.74-.11-1.47-.16-2.19s-.11-1.44-.15-2.14-.09-1.4-.14-2.09c-.08-1.38-.15-2.72-.22-4s-.12-2.49-.16-3.68v-.1Q116,181.27,116,180c-.17-5.58-.17-10.12-.14-13.26v-4.87L150,152.14l1.31.54.3.12.67,1.39c.63,1.35,1.24,2.73,1.82,4.16.51,1.23,1,2.5,1.49,3.8h0a126.7,126.7,0,0,1,6.65,28.6h0c.19,1.44.35,2.92.5,4.43l.15,1.53h0q.16,1.75.3,3.57c.09,1.22.17,2.47.25,3.74v.16c.06.86.1,1.72.14,2.6v.15c.05.91.09,1.82.12,2.75q.11,2.85.15,5.85v3C163.81,219.12,163.95,219.63,163.95,220.15Z" transform="translate(-17 -4.45)"/>
  <path class="cls-5" d="M163.95,220.15v2.3a9.31,9.31,0,0,1-.1,1.67,17.52,17.52,0,0,1-.18,2.06l-.09.74a6.69,6.69,0,0,1-.14,1l-.15.93c-.21,1.24-.47,2.43-.78,3.6-.09.4-.2.79-.32,1.18a1.56,1.56,0,0,1-.1.37c-.12.39-.24.77-.38,1.15a1.44,1.44,0,0,1-.14.43,5.55,5.55,0,0,1-.21.57c-.13.4-.28.79-.44,1.17s-.39,1-.61,1.42a30.89,30.89,0,0,1-1.41,2.82c-.13.25-.26.49-.41.73s-.43.73-.66,1.09l-.15.24c-.26.42-.54.83-.83,1.23-.09.14-.18.27-.28.4s-.38.53-.58.78l-.4.53-1,1.24c-.32.4-.66.75-1,1.12l-.11.12c-.38.4-.76.79-1.15,1.17-.69.68-1.42,1.34-2.17,2-.25.22-.5.43-.76.63l-.15.13a16.37,16.37,0,0,1-1.36,1c-.3.23-.61.45-.93.67s-.66.46-1,.68l-.72.47c-1,.64-2,1.24-3.08,1.81-.31.17-.62.34-.94.5l-.83.42-1.3.62-1.18.53-1,.43a69.49,69.49,0,0,1-6.83,2.42c-.32-.89-.64-1.78-.94-2.68-.49-1.43-1-2.86-1.42-4.3-.31-1-.62-2-.92-3s-.65-2.2-1-3.31c-.82-2.92-1.57-5.86-2.26-8.79-.11-.46-.22-.92-.32-1.39q-.84-3.61-1.55-7.22c-.3-1.51-.59-3-.85-4.51-.2-1.11-.39-2.21-.58-3.31a3,3,0,0,0-.07-.43c-.11-.65-.21-1.29-.32-1.93-.2-1.31-.4-2.61-.58-3.9-.06-.35-.11-.71-.16-1.06h0c-.32-2.22-.6-4.4-.86-6.55-.07-.52-.12-1-.18-1.56s-.16-1.39-.23-2.07c-.06-.5-.11-1-.16-1.51-.15-1.4-.29-2.78-.41-4.14-.11-1.1-.2-2.19-.29-3.25l-.06-.76c-.05-.74-.11-1.47-.16-2.19s-.11-1.44-.15-2.14-.09-1.4-.14-2.09c-.08-1.38-.15-2.72-.22-4s-.11-2.49-.16-3.68v-.1c0-.91-.06-1.81-.09-2.67-.17-5.58-.17-10.12-.14-13.26v-4.87l35.08-9H151c7,14.24,12.47,32.82,12.81,64.27v1.54C163.83,219.2,163.95,219.63,163.95,220.15Z" transform="translate(-17 -4.45)"/>
  <path class="cls-4" d="M119.23,217.74c-.06-.35-.11-.71-.16-1.06h0c-.32-2.22-.6-4.4-.86-6.55q-.11-.78-.18-1.56c-.09-.7-.16-1.39-.23-2.07-.06-.51-.12-1-.16-1.51-.15-1.4-.29-2.78-.41-4.14-.11-1.1-.2-2.18-.29-3.25l-.06-.76c-.06-.74-.11-1.47-.16-2.19s-.11-1.44-.15-2.14-.1-1.4-.14-2.09c-.08-1.38-.15-2.72-.22-4s-.12-2.49-.16-3.68v-.1Q116,181.26,116,180c-.17-5.58-.17-10.12-.14-13.26v-4.87l34.11-9.71L99,131.13l-46,8.49-5.5,12.31,34.78,9.9s.24,5.18.09,13.7v2c0,1,0,2.07-.08,3.16v1.41c-.11,2.83-.25,5.9-.46,9.16q-.06,1.08-.15,2.19c0,.46-.06.92-.1,1.38a9.05,9.05,0,0,1-.08,1.12c0,.68-.1,1.37-.16,2.06-.49,5.84-1.16,12.13-2.09,18.68h0a6.47,6.47,0,0,1-.16,1.06c-.13,1-.28,1.93-.43,2.9s-.31,1.95-.47,2.93H93.67a1.94,1.94,0,0,1,1.76-1.12H104a1.94,1.94,0,0,1,1.76,1.12h14.43c-.11-.65-.21-1.29-.32-1.93C119.61,220.33,119.41,219,119.23,217.74Zm-20.09-2.67-7.34-6.5,2.65-41.15h10l2.3,41.15Z" transform="translate(-17 -4.45)"/>
  <polygon class="cls-4" points="30.56 147.49 65.34 157.39 30.17 148.34 30.56 147.49"/>
  <polygon class="cls-4" points="82.14 162.97 82.14 210.62 74.8 204.12 77.45 162.97 82.14 162.97"/>
  <path class="cls-4" d="M95.4,222.45h3.74v1.12H93.67A1.94,1.94,0,0,1,95.4,222.45Z" transform="translate(-17 -4.45)"/>
  <path class="cls-4" d="M99.14,231.82v1.11H95.4a2,2,0,0,1-1.73-1.11Z" transform="translate(-17 -4.45)"/>
  <path class="cls-6" d="M82.43,175.54v2c0,1,0,2.07-.08,3.16v1.41c-.11,2.83-.25,5.9-.46,9.16l-.22,2.15c0,.46-.06.91-.1,1.38a8.91,8.91,0,0,1-.08,1.12c0,.68-.11,1.36-.16,2.06-.49,5.84-1.16,12.13-2.09,18.68v-.07L72,180.32l5.59-14.39L47.17,152.79l35.17,9S82.58,167,82.43,175.54Z" transform="translate(-17 -4.45)"/>
  <path class="cls-1" d="M82.43,175.54v2c0,1,0,2.07-.08,3.16v1.41c-.11,2.83-.25,5.9-.46,9.16l-.22,2.15c0,.46-.06.91-.1,1.38a8.91,8.91,0,0,1-.08,1.12c0,.68-.11,1.36-.16,2.06-.49,5.84-1.16,12.13-2.09,18.68v-.07L72,180.32l5.59-14.39L47.17,152.79l.39-.85,34.92,9.64S82.58,167,82.43,175.54Z" transform="translate(-17 -4.45)"/>
  <polygon class="cls-7" points="53.92 175.87 59.55 161.46 30.17 148.34 60.55 161.46 54.92 175.87 62.2 212.14 53.92 175.87"/>
  <path class="cls-8" d="M79.22,216.66h0a6.47,6.47,0,0,1-.16,1.06c-.13,1-.28,1.93-.43,2.9l-.48,2.93c-.08.5-.16,1-.25,1.51-.34,2-.72,4-1.11,6.08a3.11,3.11,0,0,1-.14.66l-.09.49c-.09.45-.19.91-.28,1.36-.2,1-.4,1.93-.62,2.89s-.36,1.65-.55,2.48a2.13,2.13,0,0,1-.1.42c-.22,1-.45,1.94-.69,2.9v.06q-.35,1.43-.72,2.85c-.24.92-.48,1.83-.73,2.75-.3,1.08-.6,2.17-.92,3.25-.24.84-.49,1.67-.75,2.5-.61,2-1.27,4.06-2,6.07-.31.9-.62,1.79-.94,2.68-20.33-6.05-34-19.37-34-42.37,0-33.33,5.66-52.66,12.83-67.36l29.46,13.16-5.63,14.41,8.28,36.27Z" transform="translate(-17 -4.45)"/>
  <path class="cls-6" d="M151,152.81l-.22.1h0l-30.08,13,5.63,14.41-7.27,36.27v.07c-.32-2.22-.6-4.4-.86-6.55q-.11-.78-.18-1.56c-.09-.7-.16-1.39-.23-2.07-.06-.5-.11-1-.16-1.51-.15-1.4-.29-2.78-.41-4.14-.11-1.1-.2-2.18-.29-3.25l-.06-.76c-.05-.74-.11-1.47-.16-2.19s-.11-1.44-.15-2.14-.09-1.4-.14-2.09c-.08-1.38-.15-2.72-.22-4s-.12-2.49-.16-3.68v-.1q-.06-1.38-.09-2.67c-.17-5.58-.17-10.12-.14-13.26v-4.87l35.08-9Z" transform="translate(-17 -4.45)"/>
  <polygon class="cls-6" points="134.09 148.35 134.05 148.36 134.07 148.35 134.09 148.35"/>
  <path class="cls-1" d="M151.56,152.58l-.2.09-.3.13h0l-30.34,13.13,5.63,14.41-7.27,36.27v.07c-.32-2.22-.6-4.4-.86-6.55q-.11-.78-.18-1.56c-.09-.7-.16-1.39-.23-2.07-.06-.5-.11-1-.16-1.51-.15-1.4-.29-2.78-.41-4.14-.11-1.1-.2-2.18-.29-3.25l-.06-.76c-.05-.74-.11-1.47-.16-2.19s-.11-1.44-.15-2.14-.09-1.4-.14-2.09c-.08-1.38-.15-2.72-.22-4s-.12-2.49-.16-3.68v-.1Q116,181.26,116,180c-.17-5.58-.17-10.12-.14-13.26v-4a10.57,10.57,0,0,1,.06-1.1l34.08-9.5,1-.3Z" transform="translate(-17 -4.45)"/>
  <polygon class="cls-7" points="104.73 161.46 110.36 175.87 102.09 212.14 109.36 175.87 103.73 161.46 133.81 148.47 104.73 161.46"/>
  <path class="cls-8" d="M163.95,220.15v2.3a9.31,9.31,0,0,1-.1,1.67,17.52,17.52,0,0,1-.18,2.06l-.09.74a6.69,6.69,0,0,1-.14,1l-.15.93c-.21,1.24-.47,2.43-.78,3.6-.09.4-.2.79-.32,1.18a1.56,1.56,0,0,1-.1.37c-.12.39-.24.77-.38,1.15a1.44,1.44,0,0,1-.14.43,5.55,5.55,0,0,1-.21.57c-.13.4-.28.79-.44,1.17s-.39,1-.61,1.42a30.89,30.89,0,0,1-1.41,2.82c-.13.25-.26.49-.41.73s-.43.73-.66,1.09l-.15.24c-.26.42-.54.83-.83,1.23-.09.14-.18.27-.28.4s-.38.53-.58.78l-.4.53-1,1.24c-.32.4-.66.75-1,1.12l-.11.12c-.38.4-.76.79-1.15,1.17-.69.68-1.42,1.34-2.17,2-.25.22-.5.43-.76.63l-.15.13a16.37,16.37,0,0,1-1.36,1c-.3.23-.61.45-.93.67s-.66.46-1,.68l-.72.47c-1,.64-2,1.24-3.08,1.81-.31.17-.62.34-.94.5l-.83.42-1.3.62-1.18.53-1,.43a69.49,69.49,0,0,1-6.83,2.42c-.32-.89-.64-1.78-.94-2.68-.49-1.43-1-2.86-1.42-4.3-.31-1-.62-2-.92-3s-.65-2.2-1-3.31c-.82-2.92-1.57-5.86-2.26-8.79-.11-.46-.22-.92-.32-1.39q-.84-3.61-1.55-7.22c-.3-1.51-.59-3-.85-4.51-.2-1.11-.39-2.21-.58-3.31a3,3,0,0,0-.07-.43c-.11-.65-.21-1.29-.32-1.93-.2-1.31-.4-2.61-.58-3.9-.06-.35-.11-.71-.16-1.06h0v-.07l8.27-36.27-5.65-14.42,29.08-13h0l.2-.1h.09l.25-.12.2-.09.1.21.67,1.39c.62,1.34,1.23,2.73,1.82,4.16.51,1.23,1,2.49,1.49,3.8h0a129,129,0,0,1,6.65,28.6h0c.18,1.44.35,2.92.5,4.43l.15,1.53h0c.1,1.17.21,2.36.3,3.57s.17,2.47.25,3.74v.16c0,.86.1,1.72.14,2.6v.12c.05.9.08,1.82.12,2.75q.11,2.85.15,5.85v3C163.88,219.12,163.95,219.63,163.95,220.15Z" transform="translate(-17 -4.45)"/>
  <polyline class="cls-9" points="36.19 135.19 30.56 147.49 81.17 161.46 82.17 155.97"/>
  <polyline class="cls-9" points="128.65 135.19 134.12 147.38 83.67 161.46 82.67 155.97"/>
  <polygon class="cls-10" points="89.78 204.12 82.14 210.62 74.8 204.12 77.45 162.97 87.48 162.97 89.78 204.12"/>
  <polyline class="cls-11" points="78.86 155.83 74.8 159.83 82.17 170.12 89.78 159.89 84.56 155.83 78.86 155.83"/>
  <path class="cls-12" d="M121.67,231.82h-45a3.08,3.08,0,0,1,.13-.66c.39-2,.77-4.06,1.11-6.08.09-.5.17-1,.26-1.51h42a1,1,0,0,0,.07.43c.18,1.1.38,2.2.58,3.31C121,228.81,121.33,230.31,121.67,231.82Z" transform="translate(-17 -4.45)"/>
  <path class="cls-13" d="M105.88,224.38V231a1.95,1.95,0,0,1-1.94,1.94H95.4A1.95,1.95,0,0,1,93.49,231v-6.63a2,2,0,0,1,.18-.81,1.94,1.94,0,0,1,1.76-1.12H104a1.94,1.94,0,0,1,1.76,1.12A2,2,0,0,1,105.88,224.38Z" transform="translate(-17 -4.45)"/>
  <rect class="cls-14" x="77.88" y="219.58" width="8.68" height="7.23" rx="1.54" ry="1.54"/>
  <path class="cls-13" d="M99.47,227.14h5.39a.42.42,0,0,1,.42.42h0a.42.42,0,0,1-.42.42H99.47a.42.42,0,0,1-.42-.42h0A.42.42,0,0,1,99.47,227.14Z" transform="translate(-17 -4.45)"/>
  <path class="cls-15" d="M79.2,231.82s-1.53,19.5-10.91,30.7c.32-.89.64-1.78.94-2.68.69-2,1.35-4,2-6.07.26-.83.51-1.66.75-2.5.32-1.08.62-2.17.92-3.25.25-.92.49-1.83.73-2.75s.49-1.9.72-2.85v-.06c.24-1,.47-1.93.69-2.9a2.13,2.13,0,0,1,.1-.42c.19-.83.37-1.65.55-2.48s.42-1.92.62-2.89c.09-.45.19-.91.28-1.36a2.25,2.25,0,0,1,.1-.49Z" transform="translate(-17 -4.45)"/>
  <path class="cls-15" d="M119.09,231.82s1.53,19.5,10.91,30.7c-.32-.89-.64-1.78-.94-2.68-.69-2-1.35-4-2-6.07-.26-.83-.51-1.66-.75-2.5-.32-1.08-.62-2.17-.92-3.25-.25-.92-.49-1.83-.73-2.75s-.49-1.9-.72-2.85v-.06c-.24-1-.47-1.93-.69-2.9a2.13,2.13,0,0,0-.1-.42c-.19-.83-.37-1.65-.55-2.48s-.42-1.92-.62-2.89c-.09-.45-.19-.91-.28-1.36a2.25,2.25,0,0,0-.1-.49Z" transform="translate(-17 -4.45)"/>
  <polygon class="cls-16" points="65.48 157.13 74.9 159.73 74.8 159.83 77.42 163.48 74.8 204.12 82.14 210.62 73.25 204.54 76.8 163.46 74.55 160.08 65.48 157.13"/>
  <circle class="cls-2" cx="8.08" cy="112.8" r="8.08"/>
  <path class="cls-3" d="M35.26,118.24h0a1.73,1.73,0,0,1-.07.21h0c-.62,1.55-3.23,3.77-3.8,3.53s-1.71-2.55-1.56-4.61h0a1.48,1.48,0,0,1,0-.21.83.83,0,0,1,0-.35.24.24,0,0,1,0-.08,2.52,2.52,0,0,1,.07-.26.09.09,0,0,1,0-.05h0a2.78,2.78,0,0,1,5.26,1.81Z" transform="translate(-17 -4.45)"/>
  <path class="cls-2" d="M167,79.52v1.75a76.11,76.11,0,0,1-.5,7.73,123,123,0,0,1-5.44,24.37c-3.78,11.57-4.56,12.67-12,24.81s-27.84,22.24-49.83,22.24c-22.32,0-45.36-16.07-50.34-25.58S42.55,123.08,38.83,113a129.43,129.43,0,0,1-6.69-24,55.39,55.39,0,0,1-.73-7.73V79.57a67.84,67.84,0,0,1,135.68,0v0Z" transform="translate(-17 -4.45)"/>
  <path class="cls-3" d="M161,113.37A123,123,0,0,0,166.49,89c.78,0,1.48.19,2.18.19C180,89.19,161.64,121.16,161,113.37Z" transform="translate(-17 -4.45)"/>
  <path class="cls-3" d="M38.77,113c-2.6,6.84-21.77-22.48-8.84-23.86A15.39,15.39,0,0,1,32.08,89,129.43,129.43,0,0,0,38.77,113Z" transform="translate(-17 -4.45)"/>
  <circle cx="48.48" cy="81.93" r="2.81"/>
  <circle cx="116.23" cy="81.93" r="2.81"/>
  <path class="cls-3" d="M97.33,77.87c-7.83,21.7-4.17,22.64.83,22.64C89.5,99.57,97.33,77.87,97.33,77.87Z" transform="translate(-17 -4.45)"/>
  <polygon class="cls-3" points="78.06 116.37 79.67 122.71 78.86 116.37 78.06 116.37"/>
  <polygon class="cls-3" points="85.36 116.37 83.75 122.71 84.56 116.37 85.36 116.37"/>
  <path class="cls-3" d="M60.88,89.77c1,8.75,7.63,8.23,10-2.75C67.88,95.91,63,97,60.88,89.77Z" transform="translate(-17 -4.45)"/>
  <path class="cls-3" d="M138.23,89.77c-1,8.75-7.62,8.23-10-2.75C131.23,95.91,136.1,97,138.23,89.77Z" transform="translate(-17 -4.45)"/>
  <path class="cls-17" d="M82.51,109.17s34,4.94,39.76-10C117.5,116.89,88.52,111.27,82.51,109.17Z" transform="translate(-17 -4.45)"/>
  <path class="cls-18" d="M168.67,89.19c2-42.63-14.32-62.75-24.66-66.44-15.8-17.66-69-30.33-98.84,0-19.68,20-15.24,66.44-15.24,66.44h4.24s4.17-52.13,19.17-55.46c17.67,9,86.67-4,86.67-4S163.33,38,164.42,89Z" transform="translate(-17 -4.45)"/>
  <path class="cls-3" d="M121,96.39a4.56,4.56,0,0,0,3.25,4.11A7.23,7.23,0,0,1,121,96.39Z" transform="translate(-17 -4.45)"/>
</svg>
