<svg id="Calque_1" data-name="Calque 1" xmlns="http://www.w3.org/2000/svg" viewBox="0 0 182.42 345.02"><defs><style>.cls-1{fill:#e86f3a;}.cls-2{fill:#f4c9ab;}.cls-3{fill:#e5b593;}.cls-4{fill:#fffffd;}.cls-5{fill:#121221;}.cls-6{fill:#1e1515;}.cls-7{fill:#050505;}.cls-8{fill:#fca14f;}.cls-9{fill:#edede6;}.cls-10{fill:#13132d;}.cls-11{fill:#060626;}.cls-12{fill:#0f0f0f;}.cls-13{fill:#fa2;}.cls-14{fill:#060607;}.cls-15{fill:#a5411e;}.cls-16{fill:#e5e5e5;}.cls-17{fill:#191616;}.cls-18{fill:#230909;}.cls-19{fill:#5b5b5b;}.cls-20{fill:#b2b2b2;}.cls-21{fill:#fff;}.cls-22{font-size:20.21px;font-family:Rockwell, Rockwell;}.cls-23{opacity:0.21;}</style></defs><title>fillonbulle3</title><rect class="cls-1" x="119.15" y="131.41" width="43.93" height="8.79" transform="translate(-39.01 264.01) rotate(-57.26)"/><circle class="cls-2" cx="165.35" cy="195.74" r="8.08"/><path class="cls-3" d="M144.75,113.79h0a1.73,1.73,0,0,0,.07.21h0c.62,1.55,3.23,3.77,3.8,3.53s1.71-2.55,1.56-4.61h0a1.48,1.48,0,0,0,0-.21.83.83,0,0,0-.05-.35.24.24,0,0,0,0-.08,2.52,2.52,0,0,0-.07-.26.09.09,0,0,0,0-.05h0a2.78,2.78,0,1,0-5.26,1.81h-.05Z" transform="translate(10.42 82.94)"/><rect class="cls-1" x="17.51" y="112.77" width="8.79" height="43.93" transform="translate(-58.97 116.19) rotate(-32.74)"/><path class="cls-1" d="M113,258.07a109.19,109.19,0,0,1-30.86,4c-11.23,0-21.71-1.25-30.85-4,9.38-11.2,10.91-30.7,10.91-30.7H76.67a2,2,0,0,0,1.73,1.11h8.54a2,2,0,0,0,1.76-1.13h16q.7,3.6,1.55,7.22c.1.47.21.93.32,1.39.69,2.93,1.44,5.87,2.26,8.79.31,1.11.63,2.21,1,3.31s.61,2,.92,3c.45,1.44.93,2.87,1.42,4.3A23.06,23.06,0,0,0,113,258.07Z" transform="translate(10.42 82.94)"/><path class="cls-4" d="M82.14,227.37h6.53a2,2,0,0,1-1.76,1.13H82.1Z" transform="translate(10.42 82.94)"/><path class="cls-4" d="M88.67,219.12H82.14V218h4.8A1.94,1.94,0,0,1,88.67,219.12Z" transform="translate(10.42 82.94)"/><polygon class="cls-4" points="97.9 245.91 100.2 287.06 92.56 293.56 92.56 245.91 97.9 245.91"/><path class="cls-4" d="M146.95,215.7V218a9.31,9.31,0,0,1-.1,1.67,17.52,17.52,0,0,1-.18,2.06l-.09.74a6.69,6.69,0,0,1-.14,1l-.15.93c-.21,1.24-.47,2.43-.78,3.6-.09.4-.2.79-.32,1.18a1.56,1.56,0,0,1-.1.37c-.12.39-.24.77-.38,1.15a1.44,1.44,0,0,1-.14.43,5.55,5.55,0,0,1-.21.57c-.13.4-.28.79-.44,1.17s-.39,1-.61,1.42a30.89,30.89,0,0,1-1.41,2.82c-.13.25-.26.49-.41.73s-.43.73-.66,1.09l-.15.24c-.26.42-.54.83-.83,1.23-.09.14-.18.27-.28.4s-.38.53-.58.78l-.4.53-1,1.24c-.32.4-.66.75-1,1.12l-.11.12c-.38.4-.76.79-1.15,1.17-.69.68-1.42,1.34-2.17,2-.25.22-.5.43-.76.63l-.15.13a16.37,16.37,0,0,1-1.36,1c-.3.23-.61.45-.93.67s-.66.46-1,.68l-.72.47c-1,.64-2,1.24-3.08,1.81-.31.17-.62.34-.94.5l-.83.42-1.3.62-1.18.53-1,.43a69.49,69.49,0,0,1-6.83,2.42c-.32-.89-.64-1.78-.94-2.68-.49-1.43-1-2.86-1.42-4.3-.31-1-.62-2-.92-3s-.65-2.2-1-3.31c-.82-2.92-1.57-5.86-2.26-8.79-.11-.46-.22-.92-.32-1.39q-.84-3.61-1.55-7.22c-.3-1.51-.59-3-.85-4.51-.2-1.11-.39-2.21-.58-3.31a3,3,0,0,0-.07-.43c-.11-.65-.21-1.29-.32-1.93-.2-1.31-.4-2.61-.58-3.9-.06-.35-.11-.71-.16-1.06h0c-.32-2.22-.6-4.4-.86-6.55q-.11-.78-.18-1.56c-.09-.7-.16-1.39-.23-2.07-.06-.5-.11-1-.16-1.51-.15-1.4-.29-2.78-.41-4.14-.11-1.1-.2-2.18-.29-3.25l-.06-.76c-.05-.74-.11-1.47-.16-2.19s-.11-1.44-.15-2.14-.09-1.4-.14-2.09c-.08-1.38-.15-2.72-.22-4s-.12-2.49-.16-3.68v-.1q-.09-1.38-.09-2.65c-.17-5.58-.17-10.12-.14-13.26v-4.87L133,147.69l1.31.54.3.12.67,1.39c.63,1.35,1.24,2.73,1.82,4.16.51,1.23,1,2.5,1.49,3.8h0a126.7,126.7,0,0,1,6.65,28.6h0c.19,1.44.35,2.92.5,4.43l.15,1.53h0q.16,1.75.3,3.57c.09,1.22.17,2.47.25,3.74v.16c.06.86.1,1.72.14,2.6v.15c.05.91.09,1.82.12,2.75q.11,2.85.15,5.85v3C146.81,214.67,146.95,215.18,146.95,215.7Z" transform="translate(10.42 82.94)"/><path class="cls-5" d="M146.95,215.7V218a9.31,9.31,0,0,1-.1,1.67,17.52,17.52,0,0,1-.18,2.06l-.09.74a6.69,6.69,0,0,1-.14,1l-.15.93c-.21,1.24-.47,2.43-.78,3.6-.09.4-.2.79-.32,1.18a1.56,1.56,0,0,1-.1.37c-.12.39-.24.77-.38,1.15a1.44,1.44,0,0,1-.14.43,5.55,5.55,0,0,1-.21.57c-.13.4-.28.79-.44,1.17s-.39,1-.61,1.42a30.89,30.89,0,0,1-1.41,2.82c-.13.25-.26.49-.41.73s-.43.73-.66,1.09l-.15.24c-.26.42-.54.83-.83,1.23-.09.14-.18.27-.28.4s-.38.53-.58.78l-.4.53-1,1.24c-.32.4-.66.75-1,1.12l-.11.12c-.38.4-.76.79-1.15,1.17-.69.68-1.42,1.34-2.17,2-.25.22-.5.43-.76.63l-.15.13a16.37,16.37,0,0,1-1.36,1c-.3.23-.61.45-.93.67s-.66.46-1,.68l-.72.47c-1,.64-2,1.24-3.08,1.81-.31.17-.62.34-.94.5l-.83.42-1.3.62-1.18.53-1,.43a69.49,69.49,0,0,1-6.83,2.42c-.32-.89-.64-1.78-.94-2.68-.49-1.43-1-2.86-1.42-4.3-.31-1-.62-2-.92-3s-.65-2.2-1-3.31c-.82-2.92-1.57-5.86-2.26-8.79-.11-.46-.22-.92-.32-1.39q-.84-3.61-1.55-7.22c-.3-1.51-.59-3-.85-4.51-.2-1.11-.39-2.21-.58-3.31a3,3,0,0,0-.07-.43c-.11-.65-.21-1.29-.32-1.93-.2-1.31-.4-2.61-.58-3.9-.06-.35-.11-.71-.16-1.06h0c-.32-2.22-.6-4.4-.86-6.55-.07-.52-.12-1-.18-1.56s-.16-1.39-.23-2.07c-.06-.5-.11-1-.16-1.51-.15-1.4-.29-2.78-.41-4.14-.11-1.1-.2-2.19-.29-3.25l-.06-.76c-.05-.74-.11-1.47-.16-2.19s-.11-1.44-.15-2.14-.09-1.4-.14-2.09c-.08-1.38-.15-2.72-.22-4s-.11-2.49-.16-3.68v-.1c0-.91-.06-1.81-.09-2.67-.17-5.58-.17-10.12-.14-13.26V157.4l35.08-9H134c7,14.24,12.47,32.82,12.81,64.27v1.54C146.83,214.75,146.95,215.18,146.95,215.7Z" transform="translate(10.42 82.94)"/><path class="cls-4" d="M102.23,213.29c-.06-.35-.11-.71-.16-1.06h0c-.32-2.22-.6-4.4-.86-6.55q-.11-.78-.18-1.56c-.09-.7-.16-1.39-.23-2.07-.06-.51-.12-1-.16-1.51-.15-1.4-.29-2.78-.41-4.14-.11-1.1-.2-2.18-.29-3.25l-.06-.76c-.06-.74-.11-1.47-.16-2.19s-.11-1.44-.15-2.14-.1-1.4-.14-2.09c-.08-1.38-.15-2.72-.22-4s-.12-2.49-.16-3.68v-2.74c-.17-5.58-.17-10.12-.14-13.26v-4.87L133,147.71l-51-21L36,135.2l-5.5,12.31,34.78,9.9s.24,5.18.09,13.7v2c0,1,0,2.07-.08,3.16v1.41c-.11,2.83-.25,5.9-.46,9.16q-.06,1.08-.15,2.19c0,.46-.06.92-.1,1.38a9,9,0,0,1-.08,1.12c0,.68-.1,1.37-.16,2.06-.49,5.84-1.16,12.13-2.09,18.68h0a6.47,6.47,0,0,1-.16,1.06c-.13,1-.28,1.93-.43,2.9s-.31,1.95-.47,2.93H76.67A1.94,1.94,0,0,1,78.43,218H87a1.94,1.94,0,0,1,1.76,1.12h14.43c-.11-.65-.21-1.29-.32-1.93C102.61,215.88,102.41,214.55,102.23,213.29Zm-20.09-2.67-7.34-6.5L77.45,163h10l2.3,41.15Z" transform="translate(10.42 82.94)"/><polygon class="cls-4" points="40.98 230.43 75.76 240.33 40.59 231.28 40.98 230.43"/><polygon class="cls-4" points="92.56 245.91 92.56 293.56 85.22 287.06 87.87 245.91 92.56 245.91"/><path class="cls-4" d="M78.4,218h3.74v1.12H76.67A1.94,1.94,0,0,1,78.4,218Z" transform="translate(10.42 82.94)"/><path class="cls-4" d="M82.14,227.37v1.11H78.4a2,2,0,0,1-1.73-1.11Z" transform="translate(10.42 82.94)"/><path class="cls-6" d="M65.43,171.09v2c0,1,0,2.07-.08,3.16v1.41c-.11,2.83-.25,5.9-.46,9.16L64.67,189c0,.46-.06.91-.1,1.38a8.91,8.91,0,0,1-.08,1.12c0,.68-.11,1.36-.16,2.06-.49,5.84-1.16,12.13-2.09,18.68v-.07L55,175.87l5.59-14.39L30.17,148.34l35.17,9S65.58,162.55,65.43,171.09Z" transform="translate(10.42 82.94)"/><path class="cls-1" d="M65.43,171.09v2c0,1,0,2.07-.08,3.16v1.41c-.11,2.83-.25,5.9-.46,9.16L64.67,189c0,.46-.06.91-.1,1.38a8.91,8.91,0,0,1-.08,1.12c0,.68-.11,1.36-.16,2.06-.49,5.84-1.16,12.13-2.09,18.68v-.07L55,175.87l5.59-14.39L30.17,148.34l.39-.85,34.92,9.64S65.58,162.55,65.43,171.09Z" transform="translate(10.42 82.94)"/><polygon class="cls-7" points="64.34 258.81 69.97 244.4 40.59 231.28 70.97 244.4 65.34 258.81 72.62 295.08 64.34 258.81"/><path class="cls-8" d="M62.22,212.21h0a6.47,6.47,0,0,1-.16,1.06c-.13,1-.28,1.93-.43,2.9l-.48,2.93c-.08.5-.16,1-.25,1.51-.34,2-.72,4-1.11,6.08a3.11,3.11,0,0,1-.14.66l-.09.49c-.09.45-.19.91-.28,1.36-.2,1-.4,1.93-.62,2.89s-.36,1.65-.55,2.48a2.13,2.13,0,0,1-.1.42c-.22,1-.45,1.94-.69,2.9v.06q-.35,1.43-.72,2.85c-.24.92-.48,1.83-.73,2.75-.3,1.08-.6,2.17-.92,3.25-.24.84-.49,1.67-.75,2.5-.61,2-1.27,4.06-2,6.07-.31.9-.62,1.79-.94,2.68-20.33-6-34-19.37-34-42.37,0-33.33,5.66-52.66,12.83-67.36l29.46,13.16-5.63,14.41,8.28,36.27Z" transform="translate(10.42 82.94)"/><path class="cls-6" d="M134,148.36l-.22.1h0l-30.08,13,5.63,14.41-7.27,36.27v.07c-.32-2.22-.6-4.4-.86-6.55q-.11-.78-.18-1.56c-.09-.7-.16-1.39-.23-2.07-.06-.5-.11-1-.16-1.51-.15-1.4-.29-2.78-.41-4.14-.11-1.1-.2-2.18-.29-3.25l-.06-.76c-.05-.74-.11-1.47-.16-2.19s-.11-1.44-.15-2.14-.09-1.4-.14-2.09c-.08-1.38-.15-2.72-.22-4s-.12-2.49-.16-3.68v-.1q-.06-1.38-.09-2.67c-.17-5.58-.17-10.12-.14-13.26v-4.87l35.08-9Z" transform="translate(10.42 82.94)"/><polygon class="cls-6" points="144.51 231.29 144.47 231.3 144.49 231.29 144.51 231.29"/><path class="cls-1" d="M134.56,148.13l-.2.09-.3.13h0l-30.34,13.13,5.63,14.41-7.27,36.27v.07c-.32-2.22-.6-4.4-.86-6.55q-.11-.78-.18-1.56c-.09-.7-.16-1.39-.23-2.07-.06-.5-.11-1-.16-1.51-.15-1.4-.29-2.78-.41-4.14-.11-1.1-.2-2.18-.29-3.25l-.06-.76c-.05-.74-.11-1.47-.16-2.19s-.11-1.44-.15-2.14-.09-1.4-.14-2.09c-.08-1.38-.15-2.72-.22-4s-.12-2.49-.16-3.68v-.1q-.06-1.38-.06-2.64c-.17-5.58-.17-10.12-.14-13.26v-4a10.57,10.57,0,0,1,.06-1.1l34.08-9.5,1-.3Z" transform="translate(10.42 82.94)"/><polygon class="cls-7" points="115.15 244.4 120.78 258.81 112.51 295.08 119.78 258.81 114.15 244.4 144.23 231.41 115.15 244.4"/><path class="cls-8" d="M146.95,215.7V218a9.31,9.31,0,0,1-.1,1.67,17.52,17.52,0,0,1-.18,2.06l-.09.74a6.69,6.69,0,0,1-.14,1l-.15.93c-.21,1.24-.47,2.43-.78,3.6-.09.4-.2.79-.32,1.18a1.56,1.56,0,0,1-.1.37c-.12.39-.24.77-.38,1.15a1.44,1.44,0,0,1-.14.43,5.55,5.55,0,0,1-.21.57c-.13.4-.28.79-.44,1.17s-.39,1-.61,1.42a30.89,30.89,0,0,1-1.41,2.82c-.13.25-.26.49-.41.73s-.43.73-.66,1.09l-.15.24c-.26.42-.54.83-.83,1.23-.09.14-.18.27-.28.4s-.38.53-.58.78l-.4.53-1,1.24c-.32.4-.66.75-1,1.12l-.11.12c-.38.4-.76.79-1.15,1.17-.69.68-1.42,1.34-2.17,2-.25.22-.5.43-.76.63l-.15.13a16.37,16.37,0,0,1-1.36,1c-.3.23-.61.45-.93.67s-.66.46-1,.68l-.72.47c-1,.64-2,1.24-3.08,1.81-.31.17-.62.34-.94.5l-.83.42-1.3.62-1.18.53-1,.43a69.49,69.49,0,0,1-6.83,2.42c-.32-.89-.64-1.78-.94-2.68-.49-1.43-1-2.86-1.42-4.3-.31-1-.62-2-.92-3s-.65-2.2-1-3.31c-.82-2.92-1.57-5.86-2.26-8.79-.11-.46-.22-.92-.32-1.39q-.84-3.61-1.55-7.22c-.3-1.51-.59-3-.85-4.51-.2-1.11-.39-2.21-.58-3.31a3,3,0,0,0-.07-.43c-.11-.65-.21-1.29-.32-1.93-.2-1.31-.4-2.61-.58-3.9-.06-.35-.11-.71-.16-1.06h0v-.07l8.27-36.27-5.65-14.42,29.08-13h0l.2-.1h.09l.25-.12.2-.09.1.21.67,1.39c.62,1.34,1.23,2.73,1.82,4.16.51,1.23,1,2.49,1.49,3.8h0a129,129,0,0,1,6.65,28.6h0c.18,1.44.35,2.92.5,4.43l.15,1.53h0c.1,1.17.21,2.36.3,3.57s.17,2.47.25,3.74v.16c0,.86.1,1.72.14,2.6v.12c.05.9.08,1.82.12,2.75q.11,2.85.15,5.85v3C146.88,214.67,146.95,215.18,146.95,215.7Z" transform="translate(10.42 82.94)"/><polyline class="cls-9" points="46.61 218.13 40.98 230.43 91.59 244.4 92.59 238.91"/><polyline class="cls-9" points="139.07 218.13 144.54 230.32 94.09 244.4 93.09 238.91"/><polygon class="cls-10" points="100.2 287.06 92.56 293.56 85.22 287.06 87.87 245.91 97.9 245.91 100.2 287.06"/><polyline class="cls-11" points="89.28 238.77 85.22 242.77 92.59 253.06 100.2 242.83 94.98 238.77 89.28 238.77"/><path class="cls-12" d="M104.67,227.37h-45a3.08,3.08,0,0,1,.13-.66c.39-2,.77-4.06,1.11-6.08.09-.5.17-1,.26-1.51h42a1,1,0,0,0,.07.43c.18,1.1.38,2.2.58,3.31A45.21,45.21,0,0,0,104.67,227.37Z" transform="translate(10.42 82.94)"/><path class="cls-13" d="M88.88,219.93v6.62a2,2,0,0,1-1.94,1.94H78.4a2,2,0,0,1-1.91-1.94v-6.63a2,2,0,0,1,.18-.81A1.94,1.94,0,0,1,78.43,218H87a1.94,1.94,0,0,1,1.76,1.12A2,2,0,0,1,88.88,219.93Z" transform="translate(10.42 82.94)"/><rect class="cls-14" x="88.3" y="302.52" width="8.68" height="7.23" rx="1.54" ry="1.54"/><path class="cls-13" d="M82.47,222.69h5.39a.42.42,0,0,1,.42.42h0a.42.42,0,0,1-.42.42H82.47a.42.42,0,0,1-.42-.42h0A.42.42,0,0,1,82.47,222.69Z" transform="translate(10.42 82.94)"/><path class="cls-15" d="M62.2,227.37s-1.53,19.5-10.91,30.7c.32-.89.64-1.78.94-2.68.69-2,1.35-4,2-6.07.26-.83.51-1.66.75-2.5.32-1.08.62-2.17.92-3.25.25-.92.49-1.83.73-2.75s.49-1.9.72-2.85v-.06c.24-1,.47-1.93.69-2.9a2.13,2.13,0,0,1,.1-.42c.19-.83.37-1.65.55-2.48s.42-1.92.62-2.89c.09-.45.19-.91.28-1.36a2.25,2.25,0,0,1,.1-.49Z" transform="translate(10.42 82.94)"/><path class="cls-15" d="M102.09,227.37s1.53,19.5,10.91,30.7c-.32-.89-.64-1.78-.94-2.68-.69-2-1.35-4-2-6.07-.26-.83-.51-1.66-.75-2.5-.32-1.08-.62-2.17-.92-3.25-.25-.92-.49-1.83-.73-2.75s-.49-1.9-.72-2.85v-.06c-.24-1-.47-1.93-.69-2.9a2.13,2.13,0,0,0-.1-.42c-.19-.83-.37-1.65-.55-2.48s-.42-1.92-.62-2.89c-.09-.45-.19-.91-.28-1.36a2.25,2.25,0,0,0-.1-.49Z" transform="translate(10.42 82.94)"/><polygon class="cls-16" points="75.9 240.07 85.32 242.67 85.22 242.77 87.84 246.42 85.22 287.06 92.56 293.56 83.67 287.48 87.22 246.4 84.97 243.02 75.9 240.07"/><circle class="cls-2" cx="18.5" cy="195.74" r="8.08"/><path class="cls-3" d="M18.26,113.79h0a1.73,1.73,0,0,1-.07.21h0c-.62,1.55-3.23,3.77-3.8,3.53s-1.71-2.55-1.56-4.61h0a1.48,1.48,0,0,1,0-.21.83.83,0,0,1,0-.35.24.24,0,0,1,0-.08,2.52,2.52,0,0,1,.07-.26.09.09,0,0,1,0-.05h0a2.78,2.78,0,0,1,5.26,1.81h.1Z" transform="translate(10.42 82.94)"/><path class="cls-2" d="M150,75.07v1.75a76.11,76.11,0,0,1-.5,7.73,123,123,0,0,1-5.44,24.37c-3.78,11.57-4.56,12.67-12,24.81S104.22,156,82.23,156c-22.32,0-45.36-16.07-50.34-25.58s-6.34-11.76-10.06-21.84a129.43,129.43,0,0,1-6.69-24,55.39,55.39,0,0,1-.73-7.73v-1.7a67.84,67.84,0,0,1,135.68,0h0Z" transform="translate(10.42 82.94)"/><path class="cls-3" d="M144,108.92a123,123,0,0,0,5.49-24.37c.78,0,1.48.19,2.18.19C163,84.74,144.64,116.71,144,108.92Z" transform="translate(10.42 82.94)"/><path class="cls-3" d="M21.77,108.55C19.17,115.39,0,86.07,12.93,84.69a15.39,15.39,0,0,1,2.15-.14A129.43,129.43,0,0,0,21.77,108.55Z" transform="translate(10.42 82.94)"/><circle cx="58.9" cy="164.87" r="2.81"/><circle cx="126.65" cy="164.87" r="2.81"/><path class="cls-3" d="M80.33,73.42c-7.83,21.7-4.17,22.64.83,22.64C72.5,95.12,80.33,73.42,80.33,73.42Z" transform="translate(10.42 82.94)"/><polygon class="cls-3" points="88.48 199.31 90.09 205.65 89.28 199.31 88.48 199.31"/><polygon class="cls-3" points="95.78 199.31 94.17 205.65 94.98 199.31 95.78 199.31"/><path class="cls-3" d="M43.88,85.32c1,8.75,7.63,8.23,10-2.75C50.88,91.46,46,92.55,43.88,85.32Z" transform="translate(10.42 82.94)"/><path class="cls-3" d="M121.23,85.32c-1,8.75-7.62,8.23-10-2.75C114.23,91.46,119.1,92.55,121.23,85.32Z" transform="translate(10.42 82.94)"/><path class="cls-17" d="M151.67,84.74C153.67,42.11,137.35,22,127,18.3,111.21.64,58-12,28.17,18.3,8.49,38.3,12.93,84.74,12.93,84.74h4.24s4.17-52.13,19.17-55.46c17.67,9,86.67-4,86.67-4s23.32,8.27,24.41,59.27Z" transform="translate(10.42 82.94)"/><path class="cls-3" d="M104,91.94A4.56,4.56,0,0,0,107.25,96,7.23,7.23,0,0,1,104,91.94Z" transform="translate(10.42 82.94)"/><path class="cls-18" d="M51.83,107.72s17-1,27.84-1,31.72.83,31.72.83-21.39.88-31.72.88S51.83,107.72,51.83,107.72Z" transform="translate(10.42 82.94)"/><polygon class="cls-19" points="46.92 156.36 70.25 159.83 71.09 157.33 46.92 149 46.92 156.36"/><polygon class="cls-19" points="138.73 156.36 115.4 159.83 114.57 157.33 138.73 149 138.73 156.36"/><path class="cls-20" d="M35.33,24.22c12.33,3.83,66.46,1.67,73.06-4.5C97.5,23.56,48.92,27.56,35.33,24.22Z" transform="translate(10.42 82.94)"/><path class="cls-20" d="M36.5,18.22c4.17,2.5,24.5,5.33,37.5,3.5C57.33,24.56,39.83,21,36.5,18.22Z" transform="translate(10.42 82.94)"/><path class="cls-21" d="M125.91,34.05C149.15,33.7,129,55.73,112,59.73s-14.67,6.33,4.26,6c17.19-.26-4.72,14.22-8.88,16.87l-.48.31c.62-.44,2.82-2,5-3.85,4.48-3.83,8.86-9-.89-8.22C95.67,72,78.28,61.45,106.72,55.4,129,50.67,119,37.48,100.34,40.79c-.55.1-1.1.13-1.62.23h0a132.59,132.59,0,0,1-17.92,1.21C32,42.23-7.85,15.94-10.3-17.12c-.08-1.07-.12-2.15-.12-3.23,0-34.57,40.84-62.59,91.21-62.59S172-54.92,172-20.35C172,2.95,153.44,23.28,125.91,34.05Z" transform="translate(10.42 82.94)"/><text class="cls-22" transform="translate(38.36 45.41) rotate(0.12)">Consolider<tspan x="-20.23" y="24.25">l’enseignement</tspan><tspan x="8.42" y="48.5">classique</tspan></text><path class="cls-23" d="M111,70.88c9.75-.73,5.37,4.39.89,8.22,3.28-3.12,5.23-7-4.89-7.37-17.08-.58-21-10.5-11.64-14,14.14-5.26,36.62-17.5-.73-14C38,49-7.71,18.89-10.3-17.12-7.85,15.94,32,42.23,80.79,42.23A132.59,132.59,0,0,0,98.71,41h0c.52-.1,1.07-.13,1.62-.23C119,37.48,129,50.67,106.72,55.4,78.28,61.45,95.67,72,111,70.88Z" transform="translate(10.42 82.94)"/></svg>