<svg id="Calque_1" data-name="Calque 1" xmlns="http://www.w3.org/2000/svg" viewBox="0 0 182.42 348.32"><defs><style>.cls-1{fill:#e5b593;}.cls-2{fill:#111;}.cls-3{fill:#f4c9ab;}.cls-4{fill:#e86f3a;}.cls-5{fill:#fffffd;}.cls-6{fill:#efbf9e;}.cls-7{fill:#1e1515;}.cls-8{fill:#edede6;}.cls-9{fill:#0f0f0f;}.cls-10{fill:#fa2;}.cls-11{fill:#060607;}.cls-12{fill:#a5411e;}.cls-13{fill:#fcd170;}.cls-14{fill:none;stroke:#1e1515;stroke-miterlimit:10;}.cls-15{fill:#232323;}.cls-16{fill:#020202;}.cls-17{fill:#230909;}.cls-18{fill:#ffedca;}.cls-19{fill:#fff;}.cls-20{font-size:20.21px;font-family:Rockwell, Rockwell;}.cls-21{letter-spacing:0.02em;}.cls-22{letter-spacing:-0.04em;}.cls-23{letter-spacing:-0.01em;}.cls-24{letter-spacing:-0.02em;}.cls-25{letter-spacing:0.02em;}.cls-26{opacity:0.21;}</style></defs><title>lepenbulle6</title><path class="cls-1" d="M21.13,103.66a40.08,40.08,0,0,1-5.55-5c-6.1-6.41-12.31-16-2.65-17a14,14,0,0,1,2.15-.17c.12.7.27,1.38.44,2C17.27,90.49,21.13,95.17,21.13,103.66Z" transform="translate(10.42 88.94)"/><path class="cls-1" d="M149.22,98.7a29.47,29.47,0,0,1-4.22,4.09h0c-5.27-8.3,3.48-13,4.47-21.31h0c.78,0,1.47.19,2.17.19C160.62,81.68,154.84,92.19,149.22,98.7Z" transform="translate(10.42 88.94)"/><path class="cls-2" d="M156.79,116,136,148.49c-.26-.6-.53-1.18-.8-1.76l-.67-1.39-.3-.12-1.29-.53-2,.56-4,1.14h0l2.1-3.29,2.63-4.11,17.69-27.7Z" transform="translate(10.42 88.94)"/><circle class="cls-3" cx="165.35" cy="198.68" r="8.08"/><path class="cls-1" d="M144.75,110.73h0a1.73,1.73,0,0,0,.07.21h0c.62,1.55,3.23,3.77,3.8,3.53s1.71-2.55,1.56-4.61h0a1.48,1.48,0,0,0,0-.21.83.83,0,0,0-.05-.35.24.24,0,0,0,0-.08,2.52,2.52,0,0,0-.07-.26.09.09,0,0,0,0-.05h0a2.78,2.78,0,1,0-5.26,1.81Z" transform="translate(10.42 88.94)"/><rect class="cls-2" x="17.5" y="109.72" width="8.79" height="43.93" transform="translate(-57.31 121.69) rotate(-32.74)"/><path class="cls-2" d="M88.61,258.86c-2.13.1-4.28.15-6.47.15-11.23,0-21.71-1.25-30.85-4,9.38-11.2,10.91-30.7,10.91-30.7H76.67a2,2,0,0,0,.3.45l.14.14.08.07a.16.16,0,0,0,.08.06l.11.07h0a1.12,1.12,0,0,0,.37.17h4.44C83.19,251.57,87.74,257.89,88.61,258.86Z" transform="translate(10.42 88.94)"/><path class="cls-4" d="M87.16,225.41h0Z" transform="translate(10.42 88.94)"/><path class="cls-5" d="M82.29,225.42H82.1v-1.11h.11A8.29,8.29,0,0,1,82.29,225.42Z" transform="translate(10.42 88.94)"/><path class="cls-5" d="M82.15,214.94h0v0Z" transform="translate(10.42 88.94)"/><polygon class="cls-5" points="143.41 233.58 141.39 234.14 143.39 233.57 143.41 233.58"/><path class="cls-6" d="M88.59,215.83a1,1,0,0,1,.13.23h0A1.09,1.09,0,0,0,88.59,215.83ZM129.06,143l-6.33-2.61-6.5-2.68L82,123.62l-46,8.49-.21.47-5.28,11.84,1.16.33h0l33.6,9.56s.23,5.18.08,13.7v2c0,1,0,2.07-.08,3.16v1.41c-.11,2.83-.25,5.9-.46,9.16,0,.72-.08,1.45-.15,2.19,0,.46-.06.92-.1,1.38a9,9,0,0,1-.08,1.12c0,.68-.1,1.37-.16,2.06-.49,5.84-1.16,12.13-2.09,18.68a6.47,6.47,0,0,1-.16,1.06c-.13,1-.28,1.93-.43,2.9s-.31,1.94-.47,2.92H76.68l.06-.12a.39.39,0,0,1,.06-.11.87.87,0,0,1,.17-.22,1.14,1.14,0,0,1,.19-.19h0l.21-.13.22-.11H82c.16-36.48,8.39-50.15,13.2-59.8h0l31-8.65.61-.17H127l5.83-1.66Z" transform="translate(10.42 88.94)"/><path class="cls-5" d="M78.4,214.94h3.74v1.12H76.67A1.94,1.94,0,0,1,78.4,214.94Z" transform="translate(10.42 88.94)"/><path class="cls-5" d="M82.14,224.31v1.11H78.4a2,2,0,0,1-1.73-1.11Z" transform="translate(10.42 88.94)"/><polygon class="cls-7" points="144.51 234.23 144.47 234.24 144.49 234.23 144.51 234.23"/><polygon class="cls-8" points="144.54 233.26 143.41 233.58 141.39 234.14 137.51 235.22 137.39 235.26 136.78 235.43 105.78 244.08 105.78 244.08 92.84 294.23 92.67 269.44 92.86 268.78 99.33 244.7 116.31 233.5 126.65 226.68 139.07 221.07 139.96 223.07 142.11 227.86 144.54 233.26"/><polygon class="cls-8" points="93.09 269.7 92.84 294.23 79.75 244.19 79.73 244.19 48.75 235.54 48.14 235.37 48.01 235.33 44.12 234.25 43.64 234.11 43.62 234.11 42.12 233.69 40.99 233.37 43.4 227.97 45.55 223.18 46.45 221.18 58.87 226.79 70.59 233.89 70.61 233.89 86.11 243.27 92.86 268.78 92.86 268.79 93.09 269.7"/><path class="cls-9" d="M82.25,224.31H59.67a3.08,3.08,0,0,1,.13-.66c.38-2,.76-4.06,1.11-6.08.08-.5.16-1,.26-1.51h21v3.68h0v.55h0c0,1.17,0,2.31.07,3.41C82.25,223.94,82.25,224.13,82.25,224.31Z" transform="translate(10.42 88.94)"/><path class="cls-10" d="M82.29,225.42H78.4a1.51,1.51,0,0,1-.47-.09h-.08l-.19-.08-.18-.09a.57.57,0,0,1-.16-.11.16.16,0,0,1-.08-.06l-.08-.07-.14-.14a1.87,1.87,0,0,1-.48-1.26v-6.63a1.84,1.84,0,0,1,.18-.8h0l.07-.12a.39.39,0,0,1,.06-.11.87.87,0,0,1,.17-.22,1.14,1.14,0,0,1,.19-.19h0l.21-.13.1-.07h4.55v4.49h0v.55h0c0,1.17,0,2.31.07,3.41v.56A4.06,4.06,0,0,1,82.29,225.42Z" transform="translate(10.42 88.94)"/><path class="cls-10" d="M87.15,225.41h-.23A.83.83,0,0,0,87.15,225.41Z" transform="translate(10.42 88.94)"/><path class="cls-10" d="M88.69,224.31a1.13,1.13,0,0,1-.15.23l.13-.23Z" transform="translate(10.42 88.94)"/><path class="cls-10" d="M88.73,216.06h0a1,1,0,0,0-.13-.23A1.09,1.09,0,0,1,88.73,216.06Z" transform="translate(10.42 88.94)"/><path class="cls-11" d="M82.24,223.75H79.42a1.53,1.53,0,0,1-1.54-1.52s0,0,0,0v-4.15a1.53,1.53,0,0,1,1.49-1.57h2.77v3.25h0v.55h0C82.19,221.49,82.21,222.65,82.24,223.75Z" transform="translate(10.42 88.94)"/><path class="cls-10" d="M82.17,220.33a.41.41,0,0,1,0-.55C82.16,220,82.17,220.15,82.17,220.33Z" transform="translate(10.42 88.94)"/><path class="cls-12" d="M62.2,224.31s-1.53,19.5-10.91,30.7c.32-.89.64-1.78.94-2.68.69-2,1.35-4,2-6.07.26-.83.51-1.66.75-2.5.32-1.08.62-2.17.92-3.25.25-.92.49-1.83.73-2.75s.49-1.9.72-2.85v-.06c.24-1,.47-1.93.69-2.9a2.13,2.13,0,0,1,.1-.42c.19-.83.37-1.65.55-2.48s.42-1.92.62-2.89c.09-.45.19-.91.28-1.36a2.25,2.25,0,0,1,.1-.49Z" transform="translate(10.42 88.94)"/><circle class="cls-3" cx="18.5" cy="198.68" r="8.08"/><path class="cls-1" d="M18.26,110.73h0a1.73,1.73,0,0,1-.07.21h0c-.62,1.55-3.23,3.77-3.8,3.53s-1.71-2.55-1.56-4.61h0a1.48,1.48,0,0,1,0-.21.83.83,0,0,1,0-.35.24.24,0,0,1,0-.08,2.52,2.52,0,0,1,.07-.26.09.09,0,0,1,0-.05h0a2.78,2.78,0,0,1,5.26,1.81h.1Z" transform="translate(10.42 88.94)"/><path class="cls-3" d="M150.09,72H150v1.75a74.12,74.12,0,0,1-.5,7.73,123.13,123.13,0,0,1-4.5,21.3c-.31,1-.64,2-1,3.07a104.8,104.8,0,0,1-3.82,10.63h0c-1.72,3.82-3.79,7.14-8.11,14.19-7.44,12.14-27.83,22.24-49.83,22.24-22.32,0-45.36-16.07-50.34-25.58-1.67-3.19-2.93-5.56-4-7.68a114.87,114.87,0,0,1-6-14.11c-.24-.62-.48-1.25-.7-1.88a129.08,129.08,0,0,1-5.68-20.18c-.14-.66-.26-1.32-.38-2a57.27,57.27,0,0,1-.73-7.73v-1.7a67.84,67.84,0,0,1,135.68,0Z" transform="translate(10.42 88.94)"/><circle cx="58.9" cy="168.81" r="2.81"/><circle cx="126.65" cy="168.81" r="2.81"/><path class="cls-1" d="M79.67,79.88C73.5,90.38,76.17,93,81.17,93,72.5,92.06,79.67,79.88,79.67,79.88Z" transform="translate(10.42 88.94)"/><polygon class="cls-1" points="88.48 202.25 90.09 208.59 89.28 202.25 88.48 202.25"/><polygon class="cls-1" points="95.78 202.25 94.17 208.59 94.98 202.25 95.78 202.25"/><path class="cls-13" d="M11.75,81.86c-8-44.23,28.73-107.18,99.48-71.18,34.75-3,45.6,31.29,40.44,71l-2.17-.19s.69-62.36-38.27-62.86c-30-10.5-92.44,3.56-96.09,62.86Z" transform="translate(10.42 88.94)"/><path class="cls-13" d="M27.88,119.65l-15.07-1.83s4.13-1.42,2.77-19.12a40.08,40.08,0,0,0,5.55,5c.22.63.46,1.26.7,1.88A114.87,114.87,0,0,0,27.88,119.65Z" transform="translate(10.42 88.94)"/><path class="cls-13" d="M152.88,116.49h-12.7a104.8,104.8,0,0,0,3.88-10.61c.34-1,.67-2,1-3.07a29.47,29.47,0,0,0,4.18-4.09A34.07,34.07,0,0,0,152.88,116.49Z" transform="translate(10.42 88.94)"/><path class="cls-14" d="M88.75,259l-.14-.15" transform="translate(10.42 88.94)"/><line class="cls-14" x1="105.78" y1="244.08" x2="105.78" y2="244.07"/><path class="cls-15" d="M82.66,215h0c0-3.41-.1-6.63-.25-9.65v-.11a.15.15,0,0,0,0,.07L65.88,160.88l2.87-1.12H64.62L30.22,145.2l-.65,1.48c-.27.58-.54,1.16-.8,1.76q-.53,1.17-1,2.4c-.51,1.23-1,2.5-1.5,3.8a126.64,126.64,0,0,0-6.64,28.6c-.19,1.44-.36,2.92-.5,4.43L19,189.2q-.17,1.74-.3,3.57c-.09,1.22-.17,2.47-.25,3.74v.16c-.06.86-.1,1.72-.14,2.6v.15c0,.91-.09,1.82-.12,2.75Q18.07,205,18,208v3c0,.54-.14,1-.14,1.57v2.3a8.48,8.48,0,0,0,.11,1.67,20,20,0,0,0,.17,2.06l.09.74a6.69,6.69,0,0,0,.14,1l.15.93c.21,1.24.47,2.43.78,3.6.09.4.2.79.32,1.18a2.24,2.24,0,0,0,.1.37c.12.39.25.77.39,1.15a1.44,1.44,0,0,0,.14.43,3.28,3.28,0,0,0,.21.57c.13.4.28.79.44,1.17s.39,1,.61,1.42A30.89,30.89,0,0,0,23,234c.13.25.26.49.41.73s.43.73.66,1.09l.15.24c.26.42.54.83.83,1.23.09.14.18.27.28.4s.38.53.58.78l.4.53,1,1.24c.32.4.66.75,1,1.12l.11.12c.38.4.76.79,1.15,1.17.69.68,1.42,1.34,2.17,2,.25.22.5.43.76.63l.14.13a16.37,16.37,0,0,0,1.36,1c.3.23.61.45.93.67s.66.46,1,.68l.72.47c1,.64,2,1.24,3.08,1.81.31.17.62.34.94.5l.83.42,1.3.62,1.18.53,1,.43c2.24.92,4.53,1.71,6.84,2.4h.07a102.33,102.33,0,0,0,24.39,3.85c.84-.93,5.08-6.82,6.21-30.55,0-.93.08-1.89.11-2.87h0V223.7c0-1.1,0-2.24.07-3.41h0v-.55h0V216A7.66,7.66,0,0,0,82.66,215Zm-6.58,1.11a1.09,1.09,0,0,1,.14-.23,1,1,0,0,0-.13.23Zm0,8.25h0l.13.23a1.13,1.13,0,0,1-.09-.23Z" transform="translate(10.42 88.94)"/><path class="cls-15" d="M146.81,211.07v-3q0-3-.15-5.85c0-.93-.07-1.84-.12-2.75v-.15c0-.88-.08-1.74-.14-2.6v-.23c-.08-1.27-.16-2.52-.25-3.74s-.19-2.41-.3-3.57l-.15-1.53c-.14-1.51-.31-3-.5-4.43a126.94,126.94,0,0,0-2.49-14.5,126.46,126.46,0,0,0-4.15-14.1c-.5-1.3-1-2.57-1.5-3.8q-.5-1.23-1-2.4c-.26-.6-.53-1.18-.8-1.76l-.67-1.39L99.27,161.72l-3.89-.06,2.82.86L82.41,205.29v-.11a.15.15,0,0,0,0,.07h0c-.15,3-.24,6.25-.25,9.67h0v4.82h0v.55h0c0,1.17,0,2.31.07,3.41v1.67h0c0,1,.07,1.94.12,2.87,1.12,23.73,5.36,29.62,6.2,30.55A102.33,102.33,0,0,0,113,255h.07c2.31-.69,4.6-1.48,6.84-2.4l1-.43,1.18-.53,1.3-.62.83-.42c.32-.16.63-.33.94-.5,1.08-.57,2.08-1.17,3.08-1.81l.72-.47c.34-.22.68-.46,1-.68s.63-.44.93-.67a16.37,16.37,0,0,0,1.36-1l.14-.13c.26-.2.51-.41.76-.63.75-.66,1.48-1.32,2.17-2,.39-.38.77-.77,1.15-1.17l.11-.12c.34-.37.68-.72,1-1.12l1-1.24.4-.53c.2-.25.48-.65.58-.78s.19-.26.28-.4c.29-.4.57-.81.83-1.23l.15-.24c.23-.36.51-.85.66-1.09s.28-.48.41-.73a30.89,30.89,0,0,0,1.41-2.82,14.45,14.45,0,0,0,.61-1.42c.16-.42.31-.77.44-1.17a3.28,3.28,0,0,0,.21-.57,1.44,1.44,0,0,0,.14-.43c.14-.38.27-.76.39-1.15a2.24,2.24,0,0,0,.1-.37c.12-.39.23-.78.32-1.18.31-1.17.57-2.36.78-3.6l.15-.93a6.69,6.69,0,0,0,.14-1l.09-.74a20,20,0,0,0,.17-2.06,8.48,8.48,0,0,0,.11-1.67v-2.3C147,212.12,146.81,211.61,146.81,211.07ZM88.54,224.49l.13-.23h0A1.13,1.13,0,0,1,88.54,224.49Zm.18-8.48a1,1,0,0,0-.13-.23,1.09,1.09,0,0,1,.14.23Z" transform="translate(10.42 88.94)"/><circle class="cls-2" cx="92.92" cy="302.07" r="2.37"/><circle class="cls-15" cx="92.48" cy="301.36" r="0.44"/><circle class="cls-15" cx="82.95" cy="213.81" r="0.44" transform="translate(-135.42 318.65) rotate(-72.77)"/><circle class="cls-15" cx="81.74" cy="213.62" r="0.44" transform="translate(-136.09 317.36) rotate(-72.77)"/><circle class="cls-15" cx="83.28" cy="212.61" r="0.44" transform="translate(-77.58 150.55) rotate(-27.21)"/><polygon class="cls-2" points="37.65 329.23 40.98 319.07 39.92 331.64 37.65 329.23"/><polygon class="cls-2" points="141.32 335.4 140.42 323.32 143.58 333.64 141.32 335.4"/><path class="cls-2" d="M99.25,161.74l-3.89-.06,2.82.86L82.41,205.29v-.11c1.43-29.27,8.59-41.3,12.94-50h0l31-8.65.61-.17h0l4-1.14,2-.56,1.13-.32.46,1Z" transform="translate(10.42 88.94)"/><polygon class="cls-2" points="141.39 234.14 137.36 235.28 137.39 235.26 137.51 235.22 141.39 234.14"/><path class="cls-2" d="M82.41,205.18a.15.15,0,0,0,0,.07L65.88,160.88l2.87-1.12H64.62L30.22,145.2l.34-.78,1.27.22,2,.56,4,1.14h0l.61.17,31,8.65h0C73.81,163.88,81,175.91,82.41,205.18Z" transform="translate(10.42 88.94)"/><polygon class="cls-2" points="92.84 294.21 92.84 294.23 92.83 294.21 92.84 294.21"/><polygon class="cls-16" points="40.65 234.14 74.92 249.24 76.99 249.13 75.29 249.54 92.67 293.79 76.31 249.82 79.17 248.7 75.05 248.7 40.65 234.14"/><polygon class="cls-16" points="144.99 234.23 109.88 251.07 108.04 251.02 109.39 251.43 92.84 294.23 108.61 251.48 105.78 250.62 109.67 250.68 144.99 234.23"/><path class="cls-17" d="M55.31,101.59c6.38-1.52,45.5-1.84,51.63,0C102.94,100.88,59.15,101.3,55.31,101.59Z" transform="translate(10.42 88.94)"/><path class="cls-18" d="M94.63,9.76C64.88,4.2,18.88,5,13.13,64.89,21.5,2.38,69.13,6.88,94.63,9.76Z" transform="translate(10.42 88.94)"/><path class="cls-18" d="M29,33.21c3.5-9.17,10.26-14,19.48-12.67C37.83,20.05,32.67,25.88,29,33.21Z" transform="translate(10.42 88.94)"/><path class="cls-18" d="M140.17,28.05c7.16,8,10.83,19.2,10,36.83C149.67,46.71,146.51,38.71,140.17,28.05Z" transform="translate(10.42 88.94)"/><path class="cls-1" d="M107.63,98.7c-1.25,1.19-1,4.52-.49,5.85A23.4,23.4,0,0,1,107.63,98.7Z" transform="translate(10.42 88.94)"/><path class="cls-1" d="M54.55,98.7a6.1,6.1,0,0,1,.77,5.85A23.23,23.23,0,0,0,54.55,98.7Z" transform="translate(10.42 88.94)"/><path class="cls-19" d="M106.82,77l0,0h0Z" transform="translate(10.42 88.94)"/><path class="cls-19" d="M125.91,28.05C149.15,27.7,129,49.73,112,53.73s-14.67,6.33,4.26,6c17.19-.26-4.72,14.22-8.88,16.87l-.48.31c.62-.44,2.82-2,5-3.85,4.48-3.83,8.86-9-.89-8.22C95.67,66,78.28,55.45,106.72,49.4,129,44.67,119,31.48,100.34,34.79c-.55.1-1.1.13-1.62.23h0a132.59,132.59,0,0,1-17.92,1.21C32,36.23-7.85,9.94-10.3-23.12c-.08-1.07-.12-2.15-.12-3.23,0-34.57,40.84-62.59,91.21-62.59S172-60.92,172-26.35C172-3.05,153.44,17.28,125.91,28.05Z" transform="translate(10.42 88.94)"/><text class="cls-20" transform="matrix(1, 0.03, -0.03, 1, 33.06, 46.95)">Ren<tspan class="cls-21" x="35.38" y="0">f</tspan><tspan x="41.68" y="0">o</tspan><tspan class="cls-22" x="53.27" y="0">r</tspan><tspan x="60.89" y="0">cer le</tspan><tspan class="cls-23" x="-1.88" y="24.25">b</tspan><tspan x="10.98" y="24.25">ud</tspan><tspan class="cls-24" x="34.99" y="24.25">g</tspan><tspan x="47.21" y="24.25">et de la</tspan><tspan x="19.67" y="48.5">dé</tspan><tspan class="cls-25" x="43.88" y="48.5">f</tspan><tspan x="50.29" y="48.5">ense</tspan></text><path class="cls-26" d="M111,64.88c9.75-.73,5.37,4.39.89,8.22,3.28-3.12,5.23-7-4.89-7.37-17.08-.58-21-10.5-11.64-14,14.14-5.26,36.62-17.5-.73-14C38,43-7.71,12.89-10.3-23.12-7.85,9.94,32,36.23,80.79,36.23A132.59,132.59,0,0,0,98.71,35h0c.52-.1,1.07-.13,1.62-.23C119,31.48,129,44.67,106.72,49.4,78.28,55.45,95.67,66,111,64.88Z" transform="translate(10.42 88.94)"/></svg>