<svg id="Calque_1" data-name="Calque 1" xmlns="http://www.w3.org/2000/svg" viewBox="0 0 182.42 346.61"><defs><style>.cls-1{fill:#0c0c11;}.cls-2{fill:#f4c9ab;}.cls-3{fill:#e5b593;}.cls-4{fill:#0a0a0c;}.cls-5{fill:#fffffd;}.cls-6{fill:#121221;}.cls-7{fill:#1e1515;}.cls-8{fill:#050505;}.cls-9{fill:#edede6;}.cls-10{fill:#0f0a0a;}.cls-11{fill:#0d0d11;}.cls-12{fill:#ddd;}.cls-13{fill:#060607;}.cls-14{fill:#e5e5e5;}.cls-15{fill:#6d4b3c;}.cls-16{fill:#230909;}.cls-17{fill:#fff;}.cls-18{font-size:20.21px;font-family:Rockwell, Rockwell;}.cls-19{letter-spacing:-0.01em;}.cls-20{letter-spacing:-0.05em;}.cls-21{opacity:0.21;}</style></defs><title>macronbulle1</title><g id="Calque_1-2" data-name="Calque 1-2"><rect class="cls-1" x="119.25" y="126.37" width="43.99" height="8.8" transform="translate(-34.58 268.35) rotate(-57.43)"/><circle class="cls-2" cx="165.35" cy="197.33" r="8.08"/><path class="cls-3" d="M144.75,109.38h0a1.73,1.73,0,0,0,.07.21h0c.62,1.55,3.23,3.77,3.8,3.53s1.71-2.55,1.56-4.61h0a1.48,1.48,0,0,0,0-.21.83.83,0,0,0-.05-.35.24.24,0,0,0,0-.08,2.52,2.52,0,0,0-.07-.26.09.09,0,0,0,0-.05h0a2.78,2.78,0,1,0-5.26,1.81Z" transform="translate(10.42 88.94)"/><rect class="cls-1" x="17.37" y="108.77" width="8.8" height="43.99" transform="matrix(0.84, -0.54, 0.54, 0.84, -56.55, 121.23)"/><path class="cls-4" d="M113,253.66a109.19,109.19,0,0,1-30.86,4c-11.23,0-21.71-1.25-30.85-4C60.67,242.46,62.2,223,62.2,223H76.67a2,2,0,0,0,1.78,1.11H87a2,2,0,0,0,1.76-1.13h16q.7,3.6,1.55,7.22c.1.47.21.93.32,1.39.69,2.93,1.44,5.87,2.26,8.79.31,1.11.63,2.21,1,3.31s.61,2,.92,3c.45,1.44.93,2.87,1.42,4.3A23.06,23.06,0,0,0,113,253.66Z" transform="translate(10.42 88.94)"/><path class="cls-5" d="M82.14,223h6.53a2,2,0,0,1-1.76,1.13h-4.8Z" transform="translate(10.42 88.94)"/><path class="cls-5" d="M88.67,214.71H82.14v-1.12h4.8A1.94,1.94,0,0,1,88.67,214.71Z" transform="translate(10.42 88.94)"/><polygon class="cls-5" points="97.9 247.5 100.2 288.65 92.56 295.15 92.56 247.5 97.9 247.5"/><path class="cls-5" d="M147,211.29v2.3a9.31,9.31,0,0,1-.1,1.67,17.52,17.52,0,0,1-.18,2.06l-.09.74a6.69,6.69,0,0,1-.14,1l-.15.93c-.21,1.24-.47,2.43-.78,3.6-.09.4-.2.79-.32,1.18a1.56,1.56,0,0,1-.1.37c-.12.39-.24.77-.38,1.15a1.44,1.44,0,0,1-.14.43,5.55,5.55,0,0,1-.21.57c-.13.4-.28.79-.44,1.17s-.39,1-.61,1.42a30.89,30.89,0,0,1-1.41,2.82c-.13.25-.26.49-.41.73s-.43.73-.66,1.09l-.15.24c-.26.42-.54.83-.83,1.23-.09.14-.18.27-.28.4s-.38.53-.58.78l-.4.53-1,1.24c-.32.4-.66.75-1,1.12l-.11.12c-.38.4-.76.79-1.15,1.17-.69.68-1.42,1.34-2.17,2-.25.22-.5.43-.76.63l-.15.13a16.37,16.37,0,0,1-1.36,1c-.3.23-.61.45-.93.67s-.66.46-1,.68l-.72.47c-1,.64-2,1.24-3.08,1.81-.31.17-.62.34-.94.5l-.83.42-1.3.62-1.18.53-1,.43a69.49,69.49,0,0,1-6.83,2.42c-.32-.89-.64-1.78-.94-2.68-.49-1.43-1-2.86-1.42-4.3-.31-1-.62-2-.92-3s-.65-2.2-1-3.31c-.82-2.92-1.57-5.86-2.26-8.79-.11-.46-.22-.92-.32-1.39q-.84-3.61-1.55-7.22c-.3-1.51-.59-3-.85-4.51-.2-1.11-.39-2.21-.58-3.31a3,3,0,0,0-.07-.43c-.11-.65-.21-1.29-.32-1.93-.2-1.31-.4-2.61-.58-3.9-.06-.35-.11-.71-.16-1.06h0c-.32-2.22-.6-4.4-.86-6.55q-.11-.78-.18-1.56c-.09-.7-.16-1.39-.23-2.07-.06-.5-.11-1-.16-1.51-.15-1.4-.29-2.78-.41-4.14-.11-1.1-.2-2.18-.29-3.25l-.06-.76c-.05-.74-.11-1.47-.16-2.19s-.11-1.44-.15-2.14-.09-1.4-.14-2.09c-.08-1.38-.15-2.72-.22-4s-.12-2.49-.16-3.68v-.06q-.06-1.38-.09-2.67c-.17-5.58-.17-10.12-.14-13.26V153L133,143.32l1.31.54.3.12.67,1.39c.63,1.35,1.24,2.73,1.82,4.16.51,1.23,1,2.5,1.49,3.8h0a126.7,126.7,0,0,1,6.65,28.6h0c.19,1.44.35,2.92.5,4.43l.15,1.53h0q.16,1.75.3,3.57c.09,1.22.17,2.47.25,3.74v.16c.06.86.1,1.72.14,2.6v.15c.05.91.09,1.82.12,2.75q.11,2.85.15,5.85v3C146.82,210.26,147,210.77,147,211.29Z" transform="translate(10.42 88.94)"/><path class="cls-6" d="M147,211.29v2.3a9.31,9.31,0,0,1-.1,1.67,17.52,17.52,0,0,1-.18,2.06l-.09.74a6.69,6.69,0,0,1-.14,1l-.15.93c-.21,1.24-.47,2.43-.78,3.6-.09.4-.2.79-.32,1.18a1.56,1.56,0,0,1-.1.37c-.12.39-.24.77-.38,1.15a1.44,1.44,0,0,1-.14.43,5.55,5.55,0,0,1-.21.57c-.13.4-.28.79-.44,1.17s-.39,1-.61,1.42a30.89,30.89,0,0,1-1.41,2.82c-.13.25-.26.49-.41.73s-.43.73-.66,1.09l-.15.24c-.26.42-.54.83-.83,1.23-.09.14-.18.27-.28.4s-.38.53-.58.78l-.4.53-1,1.24c-.32.4-.66.75-1,1.12l-.11.12c-.38.4-.76.79-1.15,1.17-.69.68-1.42,1.34-2.17,2-.25.22-.5.43-.76.63l-.15.13a16.37,16.37,0,0,1-1.36,1c-.3.23-.61.45-.93.67s-.66.46-1,.68l-.72.47c-1,.64-2,1.24-3.08,1.81-.31.17-.62.34-.94.5l-.83.42-1.3.62-1.18.53-1,.43a69.49,69.49,0,0,1-6.83,2.42c-.32-.89-.64-1.78-.94-2.68-.49-1.43-1-2.86-1.42-4.3-.31-1-.62-2-.92-3s-.65-2.2-1-3.31c-.82-2.92-1.57-5.86-2.26-8.79-.11-.46-.22-.92-.32-1.39q-.84-3.61-1.55-7.22c-.3-1.51-.59-3-.85-4.51-.2-1.11-.39-2.21-.58-3.31a3,3,0,0,0-.07-.43c-.11-.65-.21-1.29-.32-1.93-.2-1.31-.4-2.61-.58-3.9-.06-.35-.11-.71-.16-1.06h0c-.32-2.22-.6-4.4-.86-6.55-.07-.52-.12-1-.18-1.56s-.16-1.39-.23-2.07c-.06-.5-.11-1-.16-1.51-.15-1.4-.29-2.78-.41-4.14-.11-1.1-.2-2.19-.29-3.25l-.06-.76c-.05-.74-.11-1.47-.16-2.19s-.11-1.44-.15-2.14-.09-1.4-.14-2.09c-.08-1.38-.15-2.72-.22-4s-.11-2.49-.16-3.68v-.06c0-.91-.06-1.81-.09-2.67-.17-5.58-.17-10.12-.14-13.26V153l35.08-9H134c7,14.24,12.47,32.82,12.81,64.27v1.53C146.84,210.34,147,210.77,147,211.29Z" transform="translate(10.42 88.94)"/><path class="cls-5" d="M102.23,208.83c-.06-.35-.11-.71-.16-1.06h0c-.32-2.22-.6-4.4-.86-6.55q-.11-.78-.18-1.56c-.09-.7-.16-1.39-.23-2.07-.06-.51-.12-1-.16-1.51-.15-1.4-.29-2.78-.41-4.14-.11-1.1-.2-2.18-.29-3.25l-.06-.76c-.06-.74-.11-1.47-.16-2.19s-.11-1.44-.15-2.14-.1-1.4-.14-2.09c-.08-1.38-.15-2.72-.22-4s-.12-2.49-.16-3.68h0q-.06-1.38-.09-2.67c-.17-5.58-.17-10.12-.14-13.26V153l34.11-9.71L82,122.32l-46,8.49-5.5,12.31L65.29,153s.24,5.18.09,13.7v2c0,1,0,2.07-.08,3.16v1.41c-.11,2.83-.25,5.9-.46,9.16q-.06,1.08-.15,2.19c0,.46-.06.92-.1,1.38a9,9,0,0,1-.08,1.12c0,.68-.1,1.37-.16,2.06-.49,5.84-1.16,12.13-2.09,18.68h0a6.47,6.47,0,0,1-.16,1.06c-.13,1-.28,1.93-.43,2.9s-.31,1.95-.47,2.93H76.67a1.94,1.94,0,0,1,1.78-1.17H87a1.94,1.94,0,0,1,1.76,1.12h14.43c-.11-.65-.21-1.29-.32-1.93C102.61,211.47,102.45,210.17,102.23,208.83Zm-20.09-2.67-7.34-6.5,2.65-41.1h10l2.3,41.15Z" transform="translate(10.42 88.94)"/><polygon class="cls-5" points="40.98 232.02 75.76 241.92 40.59 232.87 40.98 232.02"/><polygon class="cls-5" points="92.56 247.5 92.56 295.15 85.22 288.65 87.87 247.5 92.56 247.5"/><path class="cls-5" d="M78.45,213.59h3.74v1.12H76.67A1.94,1.94,0,0,1,78.45,213.59Z" transform="translate(10.42 88.94)"/><path class="cls-5" d="M82.14,223v1.11H78.45A2,2,0,0,1,76.72,223Z" transform="translate(10.42 88.94)"/><path class="cls-7" d="M65.45,166.68v2c0,1,0,2.07-.08,3.16v1.41c-.11,2.83-.25,5.9-.46,9.16l-.22,2.15c0,.46-.06.91-.1,1.38a8.91,8.91,0,0,1-.08,1.12c0,.68-.11,1.36-.16,2.06-.49,5.84-1.16,12.13-2.09,18.68v-.07L55,171.46l5.59-14.39-30.4-13.14,35.17,9S65.58,158.16,65.45,166.68Z" transform="translate(10.42 88.94)"/><path class="cls-6" d="M65.45,166.68v2c0,1,0,2.07-.08,3.16v1.41c-.11,2.83-.25,5.9-.46,9.16l-.22,2.15c0,.46-.06.91-.1,1.38a8.91,8.91,0,0,1-.08,1.12c0,.68-.11,1.36-.16,2.06-.49,5.84-1.16,12.13-2.09,18.68v-.07L55,171.46l5.59-14.39-30.4-13.14.39-.85,34.89,9.64S65.58,158.16,65.45,166.68Z" transform="translate(10.42 88.94)"/><polygon class="cls-8" points="64.34 260.4 69.97 245.99 40.59 232.87 70.97 245.99 65.34 260.4 72.62 296.67 64.34 260.4"/><path class="cls-1" d="M62.22,207.83h0a6.47,6.47,0,0,1-.16,1.06c-.13,1-.28,1.93-.43,2.9l-.48,2.93c-.08.5-.16,1-.25,1.51-.34,2-.72,4-1.11,6.08a3.11,3.11,0,0,1-.14.66l-.09.49c-.09.45-.19.91-.28,1.36-.2,1-.4,1.93-.62,2.89s-.36,1.65-.55,2.48a2.13,2.13,0,0,1-.1.42c-.22,1-.45,1.94-.69,2.9v.06Q57,235,56.6,236.42c-.24.92-.48,1.83-.73,2.75-.3,1.08-.6,2.17-.92,3.25-.24.84-.49,1.67-.75,2.5-.61,2-1.27,4.06-2,6.07-.31.9-.62,1.79-.94,2.68-20.33-6-34-19.37-34-42.37,0-33.33,5.66-52.66,12.83-67.36l29.46,13.13-5.63,14.41,8.28,36.27Z" transform="translate(10.42 88.94)"/><path class="cls-7" d="M134.05,143.95l-.22.1h0l-30.08,13,5.63,14.41-7.27,36.27v.1c-.32-2.22-.6-4.4-.86-6.55q-.11-.78-.18-1.56c-.09-.7-.16-1.39-.23-2.07-.06-.5-.11-1-.16-1.51-.15-1.4-.29-2.78-.41-4.14-.11-1.1-.2-2.18-.29-3.25l-.06-.76c-.05-.74-.11-1.47-.16-2.19s-.11-1.44-.15-2.14-.09-1.4-.14-2.09c-.08-1.38-.15-2.72-.22-4s-.12-2.49-.16-3.68v-.1q-.06-1.38-.09-2.67c-.17-5.58-.17-10.12-.14-13.26V153l35.08-9Z" transform="translate(10.42 88.94)"/><polygon class="cls-7" points="144.51 232.88 144.47 232.89 144.49 232.88 144.51 232.88"/><path class="cls-6" d="M134.57,143.72l-.2.09-.3.13h0l-30.34,13.13,5.63,14.41-7.27,36.27v.08c-.32-2.22-.6-4.4-.86-6.55q-.11-.78-.18-1.56c-.09-.7-.16-1.39-.23-2.07-.06-.5-.11-1-.16-1.51-.15-1.4-.29-2.78-.41-4.14-.11-1.1-.2-2.18-.29-3.25L99.9,188c-.05-.74-.11-1.47-.16-2.19s-.11-1.44-.15-2.14-.09-1.4-.14-2.09c-.08-1.38-.15-2.72-.22-4s-.12-2.49-.16-3.68v-.06q-.06-1.38-.09-2.67c-.17-5.58-.17-10.12-.14-13.26v-4a10.57,10.57,0,0,1,.06-1.1L133,143.3l1-.3Z" transform="translate(10.42 88.94)"/><polygon class="cls-8" points="115.15 245.99 120.78 260.4 112.51 296.67 119.78 260.4 114.15 245.99 144.23 233 115.15 245.99"/><path class="cls-1" d="M147,211.29v2.3a9.31,9.31,0,0,1-.1,1.67,17.52,17.52,0,0,1-.18,2.06l-.09.74a6.69,6.69,0,0,1-.14,1l-.15.93c-.21,1.24-.47,2.43-.78,3.6-.09.4-.2.79-.32,1.18a1.56,1.56,0,0,1-.1.37c-.12.39-.24.77-.38,1.15a1.44,1.44,0,0,1-.14.43,5.55,5.55,0,0,1-.21.57c-.13.4-.28.79-.44,1.17s-.39,1-.61,1.42a30.89,30.89,0,0,1-1.41,2.82c-.13.25-.26.49-.41.73s-.43.73-.66,1.09l-.15.24c-.26.42-.54.83-.83,1.23-.09.14-.18.27-.28.4s-.38.53-.58.78l-.4.53-1,1.24c-.32.4-.66.75-1,1.12l-.11.12c-.38.4-.76.79-1.15,1.17-.69.68-1.42,1.34-2.17,2-.25.22-.5.43-.76.63l-.15.13a16.37,16.37,0,0,1-1.36,1c-.3.23-.61.45-.93.67s-.66.46-1,.68l-.72.47c-1,.64-2,1.24-3.08,1.81-.31.17-.62.34-.94.5l-.83.42-1.3.62-1.18.53-1,.43a69.49,69.49,0,0,1-6.83,2.42c-.32-.89-.64-1.78-.94-2.68-.49-1.43-1-2.86-1.42-4.3-.31-1-.62-2-.92-3s-.65-2.2-1-3.31c-.82-2.92-1.57-5.86-2.26-8.79-.11-.46-.22-.92-.32-1.39q-.84-3.61-1.55-7.22c-.3-1.51-.59-3-.85-4.51-.2-1.11-.39-2.21-.58-3.31a3,3,0,0,0-.07-.43c-.11-.65-.21-1.29-.32-1.93-.2-1.31-.4-2.61-.58-3.9-.06-.35-.11-.71-.16-1.06h0v-.07l8.27-36.27-5.65-14.42,29.08-13h0l.2-.1h.09l.25-.12.2-.09.1.21.67,1.39c.62,1.34,1.23,2.73,1.82,4.16.51,1.23,1,2.49,1.49,3.8h0a129,129,0,0,1,6.65,28.6h0c.18,1.44.35,2.92.5,4.43l.15,1.53h0c.1,1.17.21,2.36.3,3.57s.17,2.47.25,3.74v.16c0,.86.1,1.72.14,2.6v.12c.05.9.08,1.82.12,2.75q.11,2.85.15,5.85v3C146.89,210.26,147,210.77,147,211.29Z" transform="translate(10.42 88.94)"/><polyline class="cls-9" points="46.61 219.72 40.98 232.02 91.59 245.99 92.59 240.5"/><polyline class="cls-9" points="139.07 219.72 144.54 231.91 94.09 245.99 93.09 240.5"/><polygon class="cls-7" points="100.2 288.65 92.56 295.15 85.22 288.65 87.87 247.5 97.9 247.5 100.2 288.65"/><polyline class="cls-10" points="89.28 240.35 85.22 244.35 92.59 254.65 100.2 244.42 94.98 240.35 89.28 240.35"/><path class="cls-11" d="M104.67,223h-45a3.08,3.08,0,0,1,.13-.66c.39-2,.77-4.06,1.11-6.08.09-.5.17-1,.26-1.51h42a1,1,0,0,0,.07.43c.18,1.1.38,2.2.58,3.31C104,219.95,104.33,221.45,104.67,223Z" transform="translate(10.42 88.94)"/><path class="cls-12" d="M88.88,215.52v6.63a2,2,0,0,1-1.94,1.94H78.45a2,2,0,0,1-2-1.9v-6.67a2,2,0,0,1,.18-.81,1.94,1.94,0,0,1,1.82-1.12H87a1.94,1.94,0,0,1,1.76,1.12A2,2,0,0,1,88.88,215.52Z" transform="translate(10.42 88.94)"/><rect class="cls-13" x="88.3" y="304.11" width="8.68" height="7.23" rx="1.54" ry="1.54"/><path class="cls-12" d="M82.45,218.27h5.39a.42.42,0,0,1,.42.42h0a.42.42,0,0,1-.42.42H82.45a.42.42,0,0,1-.42-.42h0A.42.42,0,0,1,82.45,218.27Z" transform="translate(10.42 88.94)"/><path d="M62.2,223s-1.53,19.5-10.91,30.7c.32-.89.64-1.78.94-2.68.69-2,1.35-4,2-6.07.26-.83.51-1.66.75-2.5.32-1.08.62-2.17.92-3.25.25-.92.49-1.83.73-2.75s.49-1.9.72-2.85v-.06c.24-1,.47-1.93.69-2.9a2.13,2.13,0,0,1,.1-.42c.19-.83.37-1.65.55-2.48s.42-1.92.62-2.89c.09-.45.19-.91.28-1.36a2.25,2.25,0,0,1,.1-.49Z" transform="translate(10.42 88.94)"/><path d="M102.09,223s1.53,19.5,10.91,30.7c-.32-.89-.64-1.78-.94-2.68-.69-2-1.35-4-2-6.07-.26-.83-.51-1.66-.75-2.5-.32-1.08-.62-2.17-.92-3.25-.25-.92-.49-1.83-.73-2.75s-.49-1.9-.72-2.85v-.06c-.24-1-.47-1.93-.69-2.9a2.13,2.13,0,0,0-.1-.42c-.19-.83-.37-1.65-.55-2.48s-.42-1.92-.62-2.89c-.09-.45-.19-.91-.28-1.36a2.25,2.25,0,0,0-.1-.49Z" transform="translate(10.42 88.94)"/><polygon class="cls-14" points="75.9 241.66 85.32 244.26 85.22 244.35 87.84 248.01 85.22 288.65 92.56 295.15 83.67 289.07 87.22 247.98 84.97 244.61 75.9 241.66"/><circle class="cls-2" cx="18.5" cy="197.33" r="8.08"/><path class="cls-3" d="M18.26,109.38h0a1.73,1.73,0,0,1-.07.21h0c-.62,1.55-3.23,3.77-3.8,3.53s-1.71-2.55-1.56-4.61h0a1.48,1.48,0,0,1,0-.21.83.83,0,0,1,0-.35.24.24,0,0,1,0-.08,2.52,2.52,0,0,1,.07-.26.09.09,0,0,1,0-.05h0a2.78,2.78,0,0,1,5.26,1.81Z" transform="translate(10.42 88.94)"/></g><g id="Calque_2" data-name="Calque 2"><path class="cls-2" d="M150,70.66v1.75a76.11,76.11,0,0,1-.5,7.73,123,123,0,0,1-5.44,24.37c-3.78,11.57-8.59,21.18-12,24.81-6.48,6.8-27.84,22.24-49.83,22.24-22.32,0-45.93-19-50.34-25.58-2.16-3.24-6.34-11.76-10.06-21.79a129.43,129.43,0,0,1-6.69-24,55.39,55.39,0,0,1-.7-7.73V70.71a67.84,67.84,0,0,1,135.68,0h0Z" transform="translate(10.42 88.94)"/><path class="cls-3" d="M144.05,104.51a123,123,0,0,0,5.4-24.37,9,9,0,0,1,2.18.19C157.87,81.63,159.19,89.67,144.05,104.51Z" transform="translate(10.42 88.94)"/><path class="cls-3" d="M21.77,104.19C6,88.07,6,81.91,12.93,80.33a8.65,8.65,0,0,1,2.15-.19A129.43,129.43,0,0,0,21.77,104.19Z" transform="translate(10.42 88.94)"/><path class="cls-15" d="M151.67,80.33a9,9,0,0,0-2.18-.19h0L143,76.25s5.28-33.65-14.34-52.58c-17-16.33-15.24-.5-46.49-2.13C63,20.54,61.34-2.37,36.67,22.68,9.33,50.45,21.88,76.25,21.88,76.25l-6.8,3.89a8.65,8.65,0,0,0-2.15.19C9,33.33,42,0,82.17,0S151.67,27.37,151.67,80.33Z" transform="translate(10.42 88.94)"/><path class="cls-16" d="M54,95.42s2.34,4.65,28.17,4.65,29.5-4.65,29.5-4.65-8.87,2.79-29.5,2.79S54,95.42,54,95.42Z" transform="translate(10.42 88.94)"/><circle cx="58.9" cy="166.46" r="2.81"/><circle cx="126.65" cy="166.46" r="2.81"/><path class="cls-3" d="M81.17,79c-4.92,5.92-5,8.88,0,8.88C76.17,86.54,81.17,79,81.17,79Z" transform="translate(10.42 88.94)"/><polygon class="cls-3" points="88.48 204.9 90.09 211.23 89.28 204.9 88.48 204.9"/><polygon class="cls-3" points="95.78 204.9 94.17 211.23 94.98 204.9 95.78 204.9"/></g><path class="cls-17" d="M125.91,28.05C149.15,27.7,129,49.73,112,53.73s-14.67,6.33,4.26,6c17.19-.26-4.72,14.22-8.88,16.87l-.48.31c.62-.44,2.82-2,5-3.85,4.48-3.83,8.86-9-.89-8.22C95.67,66,78.28,55.45,106.72,49.4,129,44.67,119,31.48,100.34,34.79c-.55.1-1.1.13-1.62.23h0a132.59,132.59,0,0,1-17.92,1.21C32,36.23-7.85,9.94-10.3-23.12c-.08-1.07-.12-2.15-.12-3.23,0-34.57,40.84-62.59,91.21-62.59S172-60.92,172-26.35C172-3.05,153.44,17.28,125.91,28.05Z" transform="translate(10.42 88.94)"/><text class="cls-18" transform="translate(38.45 67.48) rotate(-9.67)">Économies<tspan class="cls-19" x="-4.96" y="24.25">b</tspan><tspan x="7.89" y="24.25">udgétai</tspan><tspan class="cls-20" x="78.85" y="24.25">r</tspan><tspan x="86.27" y="24.25">es</tspan></text><path class="cls-21" d="M111,64.88c9.75-.73,5.37,4.39.89,8.22,3.28-3.12,5.23-7-4.89-7.37-17.08-.58-21-10.5-11.64-14,14.14-5.26,36.62-17.5-.73-14C38,43-7.71,12.89-10.3-23.12-7.85,9.94,32,36.23,80.79,36.23A132.59,132.59,0,0,0,98.71,35h0c.52-.1,1.07-.13,1.62-.23C119,31.48,129,44.67,106.72,49.4,78.28,55.45,95.67,66,111,64.88Z" transform="translate(10.42 88.94)"/></svg>