<svg id="Calque_1" data-name="Calque 1" xmlns="http://www.w3.org/2000/svg" viewBox="0 0 182.42 346.58"><defs><style>.cls-1{fill:#0f0f0f;}.cls-2{fill:#f4c9ab;}.cls-3{fill:#e5b593;}.cls-4{fill:#fffffd;}.cls-5{fill:#121221;}.cls-6{fill:#1e1515;}.cls-7{fill:#050505;}.cls-8{fill:#161616;}.cls-9{fill:#edede6;}.cls-10{fill:#db4242;}.cls-11{fill:#ad1212;}.cls-12{fill:#303030;}.cls-13{fill:#ddd;}.cls-14{fill:#060607;}.cls-15{fill:#e5e5e5;}.cls-16{fill:#0c0b0b;}.cls-17{fill:#230909;}.cls-18{fill:#686868;}.cls-19{fill:none;stroke:#686868;stroke-miterlimit:10;stroke-width:2px;}.cls-20{fill:#fff;}.cls-21{font-size:20.21px;font-family:Rockwell, Rockwell;}.cls-22{letter-spacing:0.02em;}.cls-23{letter-spacing:-0.02em;}.cls-24{letter-spacing:-0.02em;}.cls-25{letter-spacing:-0.02em;}.cls-26{opacity:0.21;}</style></defs><title>mélenchonbulle5</title><rect class="cls-1" x="119.25" y="134.34" width="43.99" height="8.8" transform="matrix(0.54, -0.84, 0.84, 0.54, -41.29, 264.03)"/><circle class="cls-2" cx="165.35" cy="197.3" r="8.08"/><path class="cls-3" d="M144.75,117.35h0a1.73,1.73,0,0,0,.07.21h0c.62,1.55,3.23,3.77,3.8,3.53s1.71-2.55,1.56-4.61h0a1.48,1.48,0,0,0,0-.21.83.83,0,0,0-.05-.35.24.24,0,0,0,0-.08,2.52,2.52,0,0,0-.07-.26.09.09,0,0,0,0-.05h0a2.78,2.78,0,1,0-5.26,1.81Z" transform="translate(10.42 80.94)"/><rect class="cls-1" x="17.5" y="116.34" width="8.79" height="43.93" transform="translate(-60.89 114.74) rotate(-32.74)"/><path class="cls-1" d="M113,261.63a109.19,109.19,0,0,1-30.86,4c-11.23,0-21.71-1.25-30.85-4,9.38-11.2,10.91-30.7,10.91-30.7H76.67A2,2,0,0,0,78.4,232h8.54a2,2,0,0,0,1.76-1.13h16q.7,3.6,1.55,7.22c.1.47.21.93.32,1.39.69,2.93,1.44,5.87,2.26,8.79.31,1.11.63,2.21,1,3.31s.61,2,.92,3c.45,1.44.93,2.87,1.42,4.3A23.06,23.06,0,0,0,113,261.63Z" transform="translate(10.42 80.94)"/><path class="cls-4" d="M82.14,230.93h6.53a2,2,0,0,1-1.76,1.13H82.1Z" transform="translate(10.42 80.94)"/><path class="cls-4" d="M88.67,222.68H82.14v-1.12h4.8A1.94,1.94,0,0,1,88.67,222.68Z" transform="translate(10.42 80.94)"/><polygon class="cls-4" points="97.9 247.47 100.2 288.62 92.56 295.12 92.56 247.47 97.9 247.47"/><path class="cls-4" d="M146.95,219.26v2.3a9.31,9.31,0,0,1-.1,1.67,17.52,17.52,0,0,1-.18,2.06l-.09.74a6.69,6.69,0,0,1-.14,1l-.15.93c-.21,1.24-.47,2.43-.78,3.6-.09.4-.2.79-.32,1.18a1.56,1.56,0,0,1-.1.37c-.12.39-.24.77-.38,1.15a1.44,1.44,0,0,1-.14.43,5.55,5.55,0,0,1-.21.57c-.13.4-.28.79-.44,1.17s-.39,1-.61,1.42a30.89,30.89,0,0,1-1.41,2.82c-.13.25-.26.49-.41.73s-.43.73-.66,1.09l-.15.24c-.26.42-.54.83-.83,1.23-.09.14-.18.27-.28.4s-.38.53-.58.78l-.4.53-1,1.24c-.32.4-.66.75-1,1.12l-.11.12c-.38.4-.76.79-1.15,1.17-.69.68-1.42,1.34-2.17,2-.25.22-.5.43-.76.63l-.15.13a16.37,16.37,0,0,1-1.36,1c-.3.23-.61.45-.93.67s-.66.46-1,.68l-.72.47c-1,.64-2,1.24-3.08,1.81-.31.17-.62.34-.94.5l-.83.42-1.3.62-1.18.53-1,.43a69.49,69.49,0,0,1-6.83,2.42c-.32-.89-.64-1.78-.94-2.68-.49-1.43-1-2.86-1.42-4.3-.31-1-.62-2-.92-3s-.65-2.2-1-3.31c-.82-2.92-1.57-5.86-2.26-8.79-.11-.46-.22-.92-.32-1.39q-.84-3.61-1.55-7.22c-.3-1.51-.59-3-.85-4.51-.2-1.11-.39-2.21-.58-3.31a3,3,0,0,0-.07-.43c-.11-.65-.21-1.29-.32-1.93-.2-1.31-.4-2.61-.58-3.9-.06-.35-.11-.71-.16-1.06h0c-.32-2.22-.6-4.4-.86-6.55q-.11-.78-.18-1.56c-.09-.7-.16-1.39-.23-2.07-.06-.5-.11-1-.16-1.51-.15-1.4-.29-2.78-.41-4.14-.11-1.1-.2-2.18-.29-3.25l-.06-.76c-.05-.74-.11-1.47-.16-2.19s-.11-1.44-.15-2.14-.09-1.4-.14-2.09c-.08-1.38-.15-2.72-.22-4s-.12-2.49-.16-3.68v-.1q-.09-1.38-.09-2.65c-.17-5.58-.17-10.12-.14-13.26V161L133,151.25l1.31.54.3.12.67,1.39c.63,1.35,1.24,2.73,1.82,4.16.51,1.23,1,2.5,1.49,3.8h0a126.7,126.7,0,0,1,6.65,28.6h0c.19,1.44.35,2.92.5,4.43l.15,1.53h0q.16,1.75.3,3.57c.09,1.22.17,2.47.25,3.74v.16c.06.86.1,1.72.14,2.6V206c.05.91.09,1.82.12,2.75q.11,2.85.15,5.85v3C146.81,218.23,146.95,218.74,146.95,219.26Z" transform="translate(10.42 80.94)"/><path class="cls-5" d="M146.95,219.26v2.3a9.31,9.31,0,0,1-.1,1.67,17.52,17.52,0,0,1-.18,2.06l-.09.74a6.69,6.69,0,0,1-.14,1l-.15.93c-.21,1.24-.47,2.43-.78,3.6-.09.4-.2.79-.32,1.18a1.56,1.56,0,0,1-.1.37c-.12.39-.24.77-.38,1.15a1.44,1.44,0,0,1-.14.43,5.55,5.55,0,0,1-.21.57c-.13.4-.28.79-.44,1.17s-.39,1-.61,1.42a30.89,30.89,0,0,1-1.41,2.82c-.13.25-.26.49-.41.73s-.43.73-.66,1.09l-.15.24c-.26.42-.54.83-.83,1.23-.09.14-.18.27-.28.4s-.38.53-.58.78l-.4.53-1,1.24c-.32.4-.66.75-1,1.12l-.11.12c-.38.4-.76.79-1.15,1.17-.69.68-1.42,1.34-2.17,2-.25.22-.5.43-.76.63l-.15.13a16.37,16.37,0,0,1-1.36,1c-.3.23-.61.45-.93.67s-.66.46-1,.68l-.72.47c-1,.64-2,1.24-3.08,1.81-.31.17-.62.34-.94.5l-.83.42-1.3.62-1.18.53-1,.43a69.49,69.49,0,0,1-6.83,2.42c-.32-.89-.64-1.78-.94-2.68-.49-1.43-1-2.86-1.42-4.3-.31-1-.62-2-.92-3s-.65-2.2-1-3.31c-.82-2.92-1.57-5.86-2.26-8.79-.11-.46-.22-.92-.32-1.39q-.84-3.61-1.55-7.22c-.3-1.51-.59-3-.85-4.51-.2-1.11-.39-2.21-.58-3.31a3,3,0,0,0-.07-.43c-.11-.65-.21-1.29-.32-1.93-.2-1.31-.4-2.61-.58-3.9-.06-.35-.11-.71-.16-1.06h0c-.32-2.22-.6-4.4-.86-6.55-.07-.52-.12-1-.18-1.56s-.16-1.39-.23-2.07c-.06-.5-.11-1-.16-1.51-.15-1.4-.29-2.78-.41-4.14-.11-1.1-.2-2.19-.29-3.25l-.06-.76c-.05-.74-.11-1.47-.16-2.19s-.11-1.44-.15-2.14-.09-1.4-.14-2.09c-.08-1.38-.15-2.72-.22-4s-.11-2.49-.16-3.68v-.1c0-.91-.06-1.81-.09-2.67-.17-5.58-.17-10.12-.14-13.26V161l35.08-9H134c7,14.24,12.47,32.82,12.81,64.27v1.54C146.83,218.31,146.95,218.74,146.95,219.26Z" transform="translate(10.42 80.94)"/><path class="cls-4" d="M102.23,216.85c-.06-.35-.11-.71-.16-1.06h0c-.32-2.22-.6-4.4-.86-6.55q-.11-.78-.18-1.56c-.09-.7-.16-1.39-.23-2.07-.06-.51-.12-1-.16-1.51-.15-1.4-.29-2.78-.41-4.14-.11-1.1-.2-2.18-.29-3.25l-.06-.76c-.06-.74-.11-1.47-.16-2.19s-.11-1.44-.15-2.14-.1-1.4-.14-2.09c-.08-1.38-.15-2.72-.22-4s-.12-2.49-.16-3.68v-.1q0-1.38,0-2.64c-.17-5.58-.17-10.12-.14-13.26V161L133,151.27l-51-21-46,8.49L30.5,151l34.78,9.9s.24,5.18.09,13.7v2c0,1,0,2.07-.08,3.16v1.41c-.11,2.83-.25,5.9-.46,9.16q-.06,1.08-.15,2.19c0,.46-.06.92-.1,1.38a9,9,0,0,1-.08,1.12c0,.68-.1,1.37-.16,2.06-.49,5.84-1.16,12.13-2.09,18.68h0a6.47,6.47,0,0,1-.16,1.06c-.13,1-.28,1.93-.43,2.9s-.31,1.95-.47,2.93H76.67a1.94,1.94,0,0,1,1.76-1.12H87a1.94,1.94,0,0,1,1.76,1.12h14.43c-.11-.65-.21-1.29-.32-1.93C102.61,219.44,102.41,218.11,102.23,216.85Zm-20.09-2.67-7.34-6.5,2.65-41.15h10l2.3,41.15Z" transform="translate(10.42 80.94)"/><polygon class="cls-4" points="40.98 231.98 75.76 241.88 40.59 232.84 40.98 231.98"/><polygon class="cls-4" points="92.56 247.47 92.56 295.12 85.22 288.62 87.87 247.47 92.56 247.47"/><path class="cls-4" d="M78.4,221.56h3.74v1.12H76.67A1.94,1.94,0,0,1,78.4,221.56Z" transform="translate(10.42 80.94)"/><path class="cls-4" d="M82.14,230.93V232H78.4a2,2,0,0,1-1.73-1.11Z" transform="translate(10.42 80.94)"/><path class="cls-6" d="M65.43,174.65v2c0,1,0,2.07-.08,3.16v1.41c-.11,2.83-.25,5.9-.46,9.16l-.22,2.15c0,.46-.06.91-.1,1.38a8.91,8.91,0,0,1-.08,1.12c0,.68-.11,1.36-.16,2.06-.49,5.84-1.16,12.13-2.09,18.68v-.07L55,179.43,60.59,165,30.17,151.9l35.17,9S65.58,166.11,65.43,174.65Z" transform="translate(10.42 80.94)"/><path class="cls-1" d="M65.43,174.65v2c0,1,0,2.07-.08,3.16v1.41c-.11,2.83-.25,5.9-.46,9.16l-.22,2.15c0,.46-.06.91-.1,1.38a8.91,8.91,0,0,1-.08,1.12c0,.68-.11,1.36-.16,2.06-.49,5.84-1.16,12.13-2.09,18.68v-.07L55,179.43,60.59,165,30.17,151.9l.39-.85,34.92,9.64S65.58,166.11,65.43,174.65Z" transform="translate(10.42 80.94)"/><polygon class="cls-7" points="64.34 260.37 69.97 245.95 40.59 232.84 70.97 245.95 65.34 260.37 72.62 296.63 64.34 260.37"/><path class="cls-8" d="M62.22,215.77h0a6.47,6.47,0,0,1-.16,1.06c-.13,1-.28,1.93-.43,2.9l-.48,2.93c-.08.5-.16,1-.25,1.51-.34,2-.72,4-1.11,6.08a3.11,3.11,0,0,1-.14.66l-.09.49c-.09.45-.19.91-.28,1.36-.2,1-.4,1.93-.62,2.89s-.36,1.65-.55,2.48a2.13,2.13,0,0,1-.1.42c-.22,1-.45,1.94-.69,2.9v.06q-.35,1.43-.72,2.85c-.24.92-.48,1.83-.73,2.75-.3,1.08-.6,2.17-.92,3.25-.24.84-.49,1.67-.75,2.5-.61,2-1.27,4.06-2,6.07-.31.9-.62,1.79-.94,2.68-20.33-6-34-19.37-34-42.37,0-33.33,5.66-52.66,12.83-67.36L59.55,165l-5.63,14.41,8.28,36.27Z" transform="translate(10.42 80.94)"/><path class="cls-6" d="M134,151.92l-.22.1h0L103.7,165l5.63,14.41-7.27,36.27v.07c-.32-2.22-.6-4.4-.86-6.55q-.11-.78-.18-1.56c-.09-.7-.16-1.39-.23-2.07-.06-.5-.11-1-.16-1.51-.15-1.4-.29-2.78-.41-4.14-.11-1.1-.2-2.18-.29-3.25l-.06-.76c-.05-.74-.11-1.47-.16-2.19s-.11-1.44-.15-2.14-.09-1.4-.14-2.09c-.08-1.38-.15-2.72-.22-4s-.12-2.49-.16-3.68v-.1q-.06-1.38-.09-2.67c-.17-5.58-.17-10.12-.14-13.26v-4.87l35.08-9Z" transform="translate(10.42 80.94)"/><polygon class="cls-6" points="144.51 232.85 144.47 232.85 144.49 232.85 144.51 232.85"/><path class="cls-1" d="M134.56,151.69l-.2.09-.3.13h0L103.72,165l5.63,14.41-7.27,36.27v.07c-.32-2.22-.6-4.4-.86-6.55q-.11-.78-.18-1.56c-.09-.7-.16-1.39-.23-2.07-.06-.5-.11-1-.16-1.51-.15-1.4-.29-2.78-.41-4.14-.11-1.1-.2-2.18-.29-3.25l-.06-.76c-.05-.74-.11-1.47-.16-2.19s-.11-1.44-.15-2.14-.09-1.4-.14-2.09c-.08-1.38-.15-2.72-.22-4s-.12-2.49-.16-3.68v-.1q-.06-1.38-.06-2.64c-.17-5.58-.17-10.12-.14-13.26v-4a10.57,10.57,0,0,1,.06-1.1l34.08-9.5,1-.3Z" transform="translate(10.42 80.94)"/><polygon class="cls-7" points="115.15 245.95 120.78 260.37 112.51 296.63 119.78 260.37 114.15 245.95 144.23 232.97 115.15 245.95"/><path class="cls-8" d="M146.95,219.26v2.3a9.31,9.31,0,0,1-.1,1.67,17.52,17.52,0,0,1-.18,2.06l-.09.74a6.69,6.69,0,0,1-.14,1l-.15.93c-.21,1.24-.47,2.43-.78,3.6-.09.4-.2.79-.32,1.18a1.56,1.56,0,0,1-.1.37c-.12.39-.24.77-.38,1.15a1.44,1.44,0,0,1-.14.43,5.55,5.55,0,0,1-.21.57c-.13.4-.28.79-.44,1.17s-.39,1-.61,1.42a30.89,30.89,0,0,1-1.41,2.82c-.13.25-.26.49-.41.73s-.43.73-.66,1.09l-.15.24c-.26.42-.54.83-.83,1.23-.09.14-.18.27-.28.4s-.38.53-.58.78l-.4.53-1,1.24c-.32.4-.66.75-1,1.12l-.11.12c-.38.4-.76.79-1.15,1.17-.69.68-1.42,1.34-2.17,2-.25.22-.5.43-.76.63l-.15.13a16.37,16.37,0,0,1-1.36,1c-.3.23-.61.45-.93.67s-.66.46-1,.68l-.72.47c-1,.64-2,1.24-3.08,1.81-.31.17-.62.34-.94.5l-.83.42-1.3.62-1.18.53-1,.43a69.49,69.49,0,0,1-6.83,2.42c-.32-.89-.64-1.78-.94-2.68-.49-1.43-1-2.86-1.42-4.3-.31-1-.62-2-.92-3s-.65-2.2-1-3.31c-.82-2.92-1.57-5.86-2.26-8.79-.11-.46-.22-.92-.32-1.39q-.84-3.61-1.55-7.22c-.3-1.51-.59-3-.85-4.51-.2-1.11-.39-2.21-.58-3.31a3,3,0,0,0-.07-.43c-.11-.65-.21-1.29-.32-1.93-.2-1.31-.4-2.61-.58-3.9-.06-.35-.11-.71-.16-1.06h0v-.07l8.27-36.27L104.73,165l29.08-13h0l.2-.1h.09l.25-.12.2-.09.1.21.67,1.39c.62,1.34,1.23,2.73,1.82,4.16.51,1.23,1,2.49,1.49,3.8h0a129,129,0,0,1,6.65,28.6h0c.18,1.44.35,2.92.5,4.43l.15,1.53h0c.1,1.17.21,2.36.3,3.57s.17,2.47.25,3.74v.16c0,.86.1,1.72.14,2.6V206c.05.9.08,1.82.12,2.75q.11,2.85.15,5.85v3C146.88,218.23,146.95,218.74,146.95,219.26Z" transform="translate(10.42 80.94)"/><polyline class="cls-9" points="46.61 219.69 40.98 231.98 91.59 245.95 92.59 240.47"/><polyline class="cls-9" points="139.07 219.69 144.54 231.88 94.09 245.95 93.09 240.47"/><polygon class="cls-10" points="100.2 288.62 92.56 295.12 85.22 288.62 87.87 247.47 97.9 247.47 100.2 288.62"/><polyline class="cls-11" points="89.28 240.32 85.22 244.32 92.59 254.62 100.2 244.38 94.98 240.32 89.28 240.32"/><path class="cls-12" d="M104.67,230.93h-45a3.08,3.08,0,0,1,.13-.66c.39-2,.77-4.06,1.11-6.08.09-.5.17-1,.26-1.51h42a1,1,0,0,0,.07.43c.18,1.1.38,2.2.58,3.31A45.21,45.21,0,0,0,104.67,230.93Z" transform="translate(10.42 80.94)"/><path class="cls-13" d="M88.88,223.49v6.62A2,2,0,0,1,86.94,232H78.4a2,2,0,0,1-1.91-1.94v-6.63a2,2,0,0,1,.18-.81,1.94,1.94,0,0,1,1.76-1.12H87a1.94,1.94,0,0,1,1.76,1.12A2,2,0,0,1,88.88,223.49Z" transform="translate(10.42 80.94)"/><rect class="cls-14" x="88.3" y="304.08" width="8.68" height="7.23" rx="1.54" ry="1.54"/><path class="cls-13" d="M82.47,226.25h5.39a.42.42,0,0,1,.42.42h0a.42.42,0,0,1-.42.42H82.47a.42.42,0,0,1-.42-.42h0A.42.42,0,0,1,82.47,226.25Z" transform="translate(10.42 80.94)"/><path d="M62.2,230.93s-1.53,19.5-10.91,30.7c.32-.89.64-1.78.94-2.68.69-2,1.35-4,2-6.07.26-.83.51-1.66.75-2.5.32-1.08.62-2.17.92-3.25.25-.92.49-1.83.73-2.75s.49-1.9.72-2.85v-.06c.24-1,.47-1.93.69-2.9a2.13,2.13,0,0,1,.1-.42c.19-.83.37-1.65.55-2.48s.42-1.92.62-2.89c.09-.45.19-.91.28-1.36a2.25,2.25,0,0,1,.1-.49Z" transform="translate(10.42 80.94)"/><path d="M102.09,230.93s1.53,19.5,10.91,30.7c-.32-.89-.64-1.78-.94-2.68-.69-2-1.35-4-2-6.07-.26-.83-.51-1.66-.75-2.5-.32-1.08-.62-2.17-.92-3.25-.25-.92-.49-1.83-.73-2.75s-.49-1.9-.72-2.85v-.06c-.24-1-.47-1.93-.69-2.9a2.13,2.13,0,0,0-.1-.42c-.19-.83-.37-1.65-.55-2.48s-.42-1.92-.62-2.89c-.09-.45-.19-.91-.28-1.36a2.25,2.25,0,0,0-.1-.49Z" transform="translate(10.42 80.94)"/><polygon class="cls-15" points="75.9 241.63 85.32 244.22 85.22 244.32 87.84 247.97 85.22 288.62 92.56 295.12 83.67 289.03 87.22 247.95 84.97 244.57 75.9 241.63"/><circle class="cls-2" cx="18.5" cy="197.3" r="8.08"/><path class="cls-3" d="M18.26,117.35h0a1.73,1.73,0,0,1-.07.21h0c-.62,1.55-3.23,3.77-3.8,3.53s-1.71-2.55-1.56-4.61h0a1.48,1.48,0,0,1,0-.21.83.83,0,0,1,0-.35.24.24,0,0,1,0-.08,2.52,2.52,0,0,1,.07-.26.09.09,0,0,1,0-.05h0a2.78,2.78,0,0,1,5.26,1.81h.1Z" transform="translate(10.42 80.94)"/><path class="cls-2" d="M150,78.63v1.75a76.11,76.11,0,0,1-.5,7.73,123,123,0,0,1-5.44,24.37c-3.78,11.57-4.56,12.67-12,24.81s-27.84,22.24-49.83,22.24c-22.32,0-45.36-16.07-50.34-25.58s-6.34-11.76-10.06-21.84a129.43,129.43,0,0,1-6.69-24,55.39,55.39,0,0,1-.73-7.73v-1.7a67.84,67.84,0,0,1,135.68,0h0Z" transform="translate(10.42 80.94)"/><path class="cls-3" d="M144,112.48a123,123,0,0,0,5.49-24.37c.78,0,1.48.19,2.18.19C163,88.3,144.64,120.27,144,112.48Z" transform="translate(10.42 80.94)"/><path class="cls-3" d="M21.77,112.11C19.17,118.95,0,89.63,12.93,88.25a15.39,15.39,0,0,1,2.15-.14A129.43,129.43,0,0,0,21.77,112.11Z" transform="translate(10.42 80.94)"/><circle cx="58.9" cy="166.43" r="2.81"/><circle cx="126.65" cy="166.43" r="2.81"/><path class="cls-3" d="M80.33,73.17c-7.83,21.7-4.17,22.64.83,22.64C72.5,94.87,80.33,73.17,80.33,73.17Z" transform="translate(10.42 80.94)"/><polygon class="cls-3" points="88.48 194.86 90.09 201.21 89.28 194.86 88.48 194.86"/><polygon class="cls-3" points="95.78 194.86 94.17 201.21 94.98 194.86 95.78 194.86"/><path class="cls-16" d="M12.93,88.3C11.5,44.6,25.84,8.76,82.17,8.6s69.5,39.74,69.5,79.7l-3.18-.19s6.35-70.56-66.24-70.56S16.08,88.11,16.08,88.11Z" transform="translate(10.42 80.94)"/><path class="cls-17" d="M65.33,117.38s-3.58-17.27,15.17-17.27,14.75,17.25,14.75,17.25,2.17-15.25-14.92-15.25S65.33,117.38,65.33,117.38Z" transform="translate(10.42 80.94)"/><path class="cls-3" d="M68.64,94.87c-9.3,3.3-14.89,11.88-13.76,20.76C54.19,105.94,62.22,98.06,68.64,94.87Z" transform="translate(10.42 80.94)"/><path class="cls-3" d="M92.32,94.87c9.3,3.3,14.89,11.88,13.76,20.76C106.77,105.94,98.74,98.06,92.32,94.87Z" transform="translate(10.42 80.94)"/><path class="cls-18" d="M151.67,88.3s3.68-44.41-12.95-55.83c0-13.15-20-26.25-59.86-26.25S23,21.33,23.05,36.05c-7.92,5.5-11.88,29.28-10.12,52.25h4.24S19,43.67,37.31,35.67c8.36-13.15,80.29-15.17,89.45,0,18.35,7.53,20.66,52.44,20.66,52.44Z" transform="translate(10.42 80.94)"/><rect class="cls-19" x="68.92" y="166.27" width="13.33" height="8.47" rx="2.33" ry="2.33"/><rect class="cls-19" x="97.26" y="166.27" width="13.33" height="8.47" rx="2.33" ry="2.33"/><path class="cls-19" d="M71.37,86.29a11,11,0,0,1,8.3-4.18,9,9,0,0,1,7.6,4.24" transform="translate(10.42 80.94)"/><path class="cls-20" d="M125.91,36.05C149.15,35.7,129,57.73,112,61.73s-14.67,6.33,4.26,6c17.19-.26-4.72,14.22-8.88,16.87l-.48.31c.62-.44,2.82-2,5-3.85,4.48-3.83,8.86-9-.89-8.22C95.67,74,78.28,63.45,106.72,57.4,129,52.67,119,39.48,100.34,42.79c-.55.1-1.1.13-1.62.23h0a132.59,132.59,0,0,1-17.92,1.21C32,44.23-7.85,17.94-10.3-15.12c-.08-1.07-.12-2.15-.12-3.23,0-34.57,40.84-62.59,91.21-62.59S172-52.92,172-18.35C172,4.95,153.44,25.28,125.91,36.05Z" transform="translate(10.42 80.94)"/><text class="cls-21" transform="translate(36.99 42.8) rotate(2.85)">Régula<tspan class="cls-22" x="64.43" y="0">r</tspan><tspan x="73.26" y="0">iser</tspan><tspan x="-13.72" y="24.25">les t</tspan><tspan class="cls-23" x="24.18" y="24.25">r</tspan><tspan class="cls-24" x="32.1" y="24.25">a</tspan><tspan class="cls-25" x="42.42" y="24.25">v</tspan><tspan x="53.07" y="24.25">ailleurs</tspan><tspan x="0.33" y="48.5">sans papier</tspan></text><path class="cls-26" d="M111,72.88c9.75-.73,5.37,4.39.89,8.22,3.28-3.12,5.23-7-4.89-7.37-17.08-.58-21-10.5-11.64-14,14.14-5.26,36.62-17.5-.73-14C38,51-7.71,20.89-10.3-15.12-7.85,17.94,32,44.23,80.79,44.23A132.59,132.59,0,0,0,98.71,43h0c.52-.1,1.07-.13,1.62-.23C119,39.48,129,52.67,106.72,57.4,78.28,63.45,95.67,74,111,72.88Z" transform="translate(10.42 80.94)"/></svg>